SplineFontDB: 3.2
FontName: BibleRomanCondensedBold
FullName: Bible Roman Condensed Bold
FamilyName: Bible Roman Condensed
Weight: Bold
Copyright: 2002, Fredrick Nader. All rights reserved. apostrophe@apostrophiclab.com
Version: 1.0; December 2002
ItalicAngle: 0
UnderlinePosition: -150
UnderlineWidth: 40
Ascent: 819
Descent: 205
InvalidEm: 0
sfntRevision: 0x00010000
LayerCount: 2
Layer: 0 1 "Hinten" 1
Layer: 1 1 "Vorne" 0
XUID: [1021 256 -1967491057 7440]
StyleMap: 0x0040
FSType: 0
OS2Version: 2
OS2_WeightWidthSlopeOnly: 0
OS2_UseTypoMetrics: 0
CreationTime: 1039457615
ModificationTime: 1771267676
PfmFamily: 17
TTFWeight: 400
TTFWidth: 3
LineGap: 28
VLineGap: 0
Panose: 2 2 5 0 6 4 11 2 4 3
OS2TypoAscent: 816
OS2TypoAOffset: 0
OS2TypoDescent: -281
OS2TypoDOffset: 0
OS2TypoLinegap: 54
OS2WinAscent: 1026
OS2WinAOffset: 0
OS2WinDescent: 298
OS2WinDOffset: 0
HheadAscent: 1026
HheadAOffset: 0
HheadDescent: -298
HheadDOffset: 0
OS2SubXSize: 717
OS2SubYSize: 666
OS2SubXOff: 0
OS2SubYOff: 143
OS2SupXSize: 717
OS2SupYSize: 666
OS2SupXOff: 0
OS2SupYOff: 488
OS2StrikeYSize: 51
OS2StrikeYPos: 256
OS2FamilyClass: 258
OS2Vendor: 'APOS'
OS2CodePages: 20000111.00000000
OS2UnicodeRanges: 80000027.4000004a.00000000.00000000
Lookup: 1 0 0 "'smcp' Gemeine in Kapit+AOQA-lchen in Lateinisch Nachschlagetabelle 0" { "'smcp' Gemeine in Kapit+AOQA-lchen in Lateinisch Nachschlagetabelle 0 Subtabelle"  } ['smcp' ('latn' <'dflt' > ) ]
Lookup: 1 0 0 "'c2sc' Versalien in Kapit+AOQA-lchen in Lateinisch Nachschlagetabelle 0" { "'c2sc' Versalien in Kapit+AOQA-lchen in Lateinisch Nachschlagetabelle 0 Subtabelle"  } ['c2sc' ('latn' <'dflt' > ) ]
Lookup: 258 0 0 "'kern' Horizontale Unterschneidung in Lateinisch Nachschlagetabelle 0" { "'kern' Horizontale Unterschneidung in Lateinisch Nachschlagetabelle 0 Subtabelle"  } ['kern' ('DFLT' <'dflt' > 'latn' <'dflt' > ) ]
MarkAttachClasses: 1
DEI: 91125
ShortTable: maxp 16
  1
  0
  248
  235
  7
  0
  0
  1
  0
  0
  0
  0
  0
  0
  0
  0
EndShort

StartChar: breve
Encoding: 5 5 4
Width: 360
Flags: W
LayerCount: 2
Fore
SplineSet
93 689 m 1,0,-1
 129 689 l 1,1,-1
 146.364257812 689 l 1,2,-1
 147.694335938 665.940429688 l 2,3,4
 148.875976562 645.450195312 148.875976562 645.450195312 159.319335938 629.327148438 c 0,5,6
 169.876953125 613.028320312 169.876953125 613.028320312 181.352539062 611.935546875 c 2,7,-1
 185.0546875 611.583007812 l 1,8,-1
 185.887695312 611.028320312 l 1,9,10
 202.774414062 611.71484375 202.774414062 611.71484375 213.994140625 626.673828125 c 0,11,12
 227.25 644.348632812 227.25 644.348632812 227.25 664 c 2,13,-1
 227.25 689 l 1,14,-1
 246 689 l 1,15,-1
 277.5 689 l 1,16,-1
 296.25 689 l 1,17,-1
 296.25 664 l 2,18,19
 296.25 631.2109375 296.25 631.2109375 286.333984375 604.166992188 c 0,20,21
 276.41796875 577.122070312 276.41796875 577.122070312 260.818359375 556.91796875 c 0,22,23
 245.21875 536.712890625 245.21875 536.712890625 224.645507812 525.3828125 c 0,24,25
 203.977539062 514 203.977539062 514 181.5 514 c 0,26,27
 176.298828125 514 176.298828125 514 170.075195312 516.224609375 c 0,28,29
 151.528320312 518.202148438 151.528320312 518.202148438 134.4453125 531.98828125 c 0,30,31
 117.36328125 545.7734375 117.36328125 545.7734375 104.223632812 566.797851562 c 0,32,33
 91.083984375 587.821289062 91.083984375 587.821289062 83.1328125 612.556640625 c 0,34,35
 75.1826171875 637.291992188 75.1826171875 637.291992188 74.271484375 662.79296875 c 2,36,-1
 73.3359375 689 l 1,37,-1
 93 689 l 1,0,-1
EndSplineSet
EndChar

StartChar: dotaccent
Encoding: 6 6 5
Width: 348
Flags: W
LayerCount: 2
Fore
SplineSet
120.75 641 m 0,0,1
 120.75 675.153320312 120.75 675.153320312 140.045898438 701.577148438 c 0,2,3
 159.341796875 728 159.341796875 728 186.094726562 728 c 0,4,5
 212.84765625 728 212.84765625 728 233.923828125 701.954101562 c 0,6,7
 255 675.909179688 255 675.909179688 255 637.6875 c 0,8,9
 255 599.465820312 255 599.465820312 234.436523438 572.732421875 c 0,10,11
 213.873046875 546 213.873046875 546 186 546 c 0,12,13
 181.056640625 546 181.056640625 546 176.921875 547.725585938 c 0,14,15
 165.85546875 550.1953125 165.85546875 550.1953125 155.618164062 559.294921875 c 0,16,17
 135.764648438 576.942382812 135.764648438 576.942382812 125.93359375 608.401367188 c 0,18,19
 120.75 624.990234375 120.75 624.990234375 120.75 641 c 0,0,1
EndSplineSet
EndChar

StartChar: ring
Encoding: 8 8 6
Width: 355
Flags: W
LayerCount: 2
Fore
SplineSet
184.112304688 599.052734375 m 1,0,1
 194.484375 599.66015625 194.484375 599.66015625 201.8671875 609.504882812 c 0,2,3
 209.25 619.348632812 209.25 619.348632812 209.25 634.696289062 c 0,4,5
 209.25 650.043945312 209.25 650.043945312 200.717773438 660.522460938 c 0,6,7
 192.186523438 671 192.186523438 671 182.180664062 671 c 0,8,9
 172.17578125 671 172.17578125 671 165.212890625 661.434570312 c 0,10,11
 158.25 651.869140625 158.25 651.869140625 158.25 639 c 0,12,13
 158.25 633.926757812 158.25 633.926757812 160.4453125 626.771484375 c 0,14,15
 165.090820312 611.629882812 165.090820312 611.629882812 173.881835938 603.81640625 c 0,16,17
 177.413085938 600.676757812 177.413085938 600.676757812 184.112304688 599.052734375 c 1,0,1
271.5 635 m 0,18,19
 271.5 609.859375 271.5 609.859375 264.368164062 587.669921875 c 0,20,21
 257.248046875 565.51953125 257.248046875 565.51953125 244.474609375 549.119140625 c 0,22,23
 231.701171875 532.71875 231.701171875 532.71875 214.854492188 523.359375 c 0,24,25
 198.0078125 514 198.0078125 514 180 514 c 0,26,27
 173.021484375 514 173.021484375 514 168.086914062 516.55078125 c 0,28,29
 153.405273438 519.033203125 153.405273438 519.033203125 139.633789062 530.662109375 c 0,30,31
 125.862304688 542.291992188 125.862304688 542.291992188 115.772460938 560.025390625 c 0,32,33
 105.682617188 577.758789062 105.682617188 577.758789062 99.716796875 598.565429688 c 0,34,35
 93.75 619.37109375 93.75 619.37109375 93.75 640.732421875 c 0,36,37
 93.75 662.09375 93.75 662.09375 100.375976562 682.91796875 c 0,38,39
 107.001953125 703.743164062 107.001953125 703.743164062 118.364257812 720.155273438 c 0,40,41
 129.727539062 736.568359375 129.727539062 736.568359375 145.272460938 746.284179688 c 0,42,43
 160.818359375 756 160.818359375 756 178.5 756 c 0,44,45
 219.26171875 756 219.26171875 756 245.380859375 721.173828125 c 0,46,47
 271.5 686.348632812 271.5 686.348632812 271.5 635 c 0,18,19
EndSplineSet
EndChar

StartChar: hungarumlaut
Encoding: 10 10 7
Width: 399
Flags: W
LayerCount: 2
Fore
SplineSet
288.7734375 747.5 m 0,0,1
 297.612304688 747.5 297.612304688 747.5 308.21875 738.072265625 c 0,2,3
 310.640625 735.380859375 310.640625 735.380859375 311.924804688 734.243164062 c 0,4,5
 316.622070312 731.48046875 316.622070312 731.48046875 319.360351562 728.559570312 c 0,6,7
 326.8046875 720.619140625 326.8046875 720.619140625 332.979492188 715.069335938 c 0,8,9
 338.137695312 711.84375 338.137695312 711.84375 341.771484375 706.522460938 c 0,10,11
 348.397460938 696.817382812 348.397460938 696.817382812 348.397460938 683.3671875 c 0,12,13
 348.397460938 665.353515625 348.397460938 665.353515625 338.870117188 653.40234375 c 0,14,15
 333.575195312 645.157226562 333.575195312 645.157226562 320.349609375 622.7578125 c 0,16,17
 288.056640625 568.064453125 288.056640625 568.064453125 262.342773438 529.016601562 c 0,18,19
 247.063476562 505.814453125 247.063476562 505.814453125 241.000976562 500.849609375 c 0,20,21
 228.244140625 493.8359375 228.244140625 493.8359375 224.706054688 493.8359375 c 0,22,23
 224.462890625 493.8359375 224.462890625 493.8359375 224.262695312 493.869140625 c 0,24,25
 215.180664062 493.869140625 215.180664062 493.869140625 207.553710938 501.327148438 c 0,26,27
 196.75 511.890625 196.75 511.890625 196.75 529.6171875 c 0,28,29
 196.75 539.127929688 196.75 539.127929688 200.29296875 548.997070312 c 0,30,31
 207.684570312 574.323242188 207.684570312 574.323242188 223.686523438 618.701171875 c 0,32,33
 229.916015625 635.9765625 229.916015625 635.9765625 235.571289062 651.357421875 c 1,34,35
 230.080078125 642.625 230.080078125 642.625 218.349609375 622.7578125 c 0,36,37
 186.056640625 568.064453125 186.056640625 568.064453125 160.342773438 529.016601562 c 0,38,39
 145.061523438 505.8125 145.061523438 505.8125 137.997070312 499.840820312 c 0,40,41
 130.931640625 493.869140625 130.931640625 493.869140625 122.161132812 493.869140625 c 0,42,43
 113.298828125 493.869140625 113.298828125 493.869140625 105.645507812 500.884765625 c 0,44,45
 94.2998046875 511.28515625 94.2998046875 511.28515625 94.2998046875 529.215820312 c 0,46,47
 94.2998046875 539.44921875 94.2998046875 539.44921875 98.498046875 549.698242188 c 0,48,49
 108.2578125 582.88671875 108.2578125 582.88671875 146.272460938 686.46484375 c 0,50,51
 155.29296875 711.041992188 155.29296875 711.041992188 161.96875 725.392578125 c 0,52,53
 172.252929688 747.5 172.252929688 747.5 186.7734375 747.5 c 0,54,55
 195.612304688 747.5 195.612304688 747.5 206.21875 738.072265625 c 0,56,57
 209.266601562 734.685546875 209.266601562 734.685546875 211.405273438 733.124023438 c 0,58,59
 216.399414062 729.475585938 216.399414062 729.475585938 221.106445312 724.59375 c 0,60,61
 225.813476562 719.712890625 225.813476562 719.712890625 230.979492188 715.069335938 c 0,62,63
 236.137695312 711.84375 236.137695312 711.84375 239.771484375 706.522460938 c 0,64,65
 246.397460938 696.817382812 246.397460938 696.817382812 246.397460938 683.3671875 c 0,66,67
 246.397460938 681.791015625 246.397460938 681.791015625 246.32421875 680.26171875 c 1,68,69
 255.948242188 705.796875 255.948242188 705.796875 263.516601562 724.538085938 c 0,70,71
 274.280273438 747.5 274.280273438 747.5 288.7734375 747.5 c 0,0,1
EndSplineSet
EndChar

StartChar: ogonek
Encoding: 11 11 8
Width: 363
Flags: W
LayerCount: 2
Fore
SplineSet
243.701171875 47.396484375 m 0,0,1
 269.469726562 66.384765625 269.469726562 66.384765625 302.239257812 66.384765625 c 0,2,3
 319.438476562 66.384765625 319.438476562 66.384765625 325.42578125 63.7236328125 c 0,4,5
 338.213867188 58.0400390625 338.213867188 58.0400390625 340.947265625 37.994140625 c 0,6,7
 341.375 34.857421875 341.375 34.857421875 341.375 28.021484375 c 0,8,9
 341.375 21.1845703125 341.375 21.1845703125 334.763671875 -26.4169921875 c 1,10,11
 317.098632812 -23.7998046875 317.098632812 -23.7998046875 315.551757812 -23.7998046875 c 0,12,13
 314.00390625 -23.7998046875 314.00390625 -23.7998046875 308.73828125 -26.140625 c 0,14,15
 297.59765625 -31.091796875 297.59765625 -31.091796875 290.142578125 -45.0078125 c 0,16,17
 287.44921875 -50.0341796875 287.44921875 -50.0341796875 287.145507812 -53.486328125 c 0,18,19
 286.840820312 -56.9384765625 286.840820312 -56.9384765625 286.840820312 -59.5947265625 c 0,20,21
 286.840820312 -70.9912109375 286.840820312 -70.9912109375 291.73828125 -80.6650390625 c 0,22,23
 296.634765625 -90.337890625 296.634765625 -90.337890625 316.23828125 -91.0087890625 c 2,24,-1
 316.577148438 -91.0234375 l 2,25,26
 321.9140625 -91.3330078125 321.9140625 -91.3330078125 329.333984375 -91.3330078125 c 0,27,28
 349.720703125 -91.3330078125 349.720703125 -91.3330078125 376.120117188 -81.8564453125 c 2,29,-1
 387.712890625 -77.6953125 l 1,30,-1
 395.41015625 -90.0107421875 l 2,31,32
 402.895507812 -101.98828125 402.895507812 -101.98828125 403.797851562 -115.211914062 c 0,33,34
 404.143554688 -120.291992188 404.143554688 -120.291992188 406.693359375 -147.483398438 c 1,35,36
 374.765625 -163.447265625 374.765625 -163.447265625 354.994140625 -173.130859375 c 0,37,38
 332.592773438 -184.102539062 332.592773438 -184.102539062 309.62890625 -184.104492188 c 0,39,40
 286.665039062 -184.10546875 286.665039062 -184.10546875 265.736328125 -174.6171875 c 0,41,42
 244.807617188 -165.129882812 244.807617188 -165.129882812 228.642578125 -146.655273438 c 0,43,44
 212.477539062 -128.180664062 212.477539062 -128.180664062 204.006835938 -101.830078125 c 0,45,46
 197.4375 -81.390625 197.4375 -81.390625 197.4375 -58.25 c 0,47,48
 197.4375 -16.783203125 197.4375 -16.783203125 213.689453125 12.38671875 c 0,49,50
 225.87890625 34.2646484375 225.87890625 34.2646484375 243.701171875 47.396484375 c 0,0,1
EndSplineSet
EndChar

StartChar: caron
Encoding: 12 12 9
Width: 324
Flags: W
LayerCount: 2
Fore
SplineSet
250.5 741 m 0,0,1
 262.875976562 741 262.875976562 741 269.5859375 727.953125 c 0,2,3
 273.75 719.85546875 273.75 719.85546875 273.75 711.594726562 c 0,4,5
 273.75 703.333984375 273.75 703.333984375 272.001953125 696.791015625 c 0,6,7
 266.608398438 676.599609375 266.608398438 676.599609375 255.865234375 651.20703125 c 0,8,9
 245.123046875 625.814453125 245.123046875 625.814453125 235.661132812 603.106445312 c 0,10,11
 219.580078125 564.51171875 219.580078125 564.51171875 207.754882812 540.446289062 c 0,12,13
 195.9296875 516.381835938 195.9296875 516.381835938 191.908203125 510.16796875 c 0,14,15
 187.885742188 503.954101562 187.885742188 503.954101562 183.626953125 500.546875 c 2,16,-1
 174.360351562 493.133789062 l 1,17,-1
 164.9140625 500.129882812 l 2,18,19
 153.073242188 508.901367188 153.073242188 508.901367188 149.71484375 518.673828125 c 1,20,-1
 107.756835938 609.951171875 l 2,21,22
 86.5380859375 656.056640625 86.5380859375 656.056640625 75.298828125 696.73046875 c 0,23,24
 72.75 706.927734375 72.75 706.927734375 72.75 713 c 0,25,26
 72.75 728.9609375 72.75 728.9609375 81.4462890625 738.237304688 c 0,27,28
 87.890625 745.111328125 87.890625 745.111328125 96.8330078125 745.111328125 c 0,29,30
 106.424804688 745.111328125 106.424804688 745.111328125 114.96484375 735.243164062 c 0,31,32
 124.411132812 724.328125 124.411132812 724.328125 146.680664062 684.396484375 c 0,33,34
 162.5625 655.916992188 162.5625 655.916992188 173.685546875 640.431640625 c 1,35,36
 180.499023438 650.8359375 180.499023438 650.8359375 194.701171875 676.786132812 c 0,37,38
 208.903320312 702.735351562 208.903320312 702.735351562 217.829101562 716.009765625 c 0,39,40
 226.754882812 729.284179688 226.754882812 729.284179688 234.481445312 735.141601562 c 0,41,42
 242.208007812 741 242.208007812 741 250.5 741 c 0,0,1
EndSplineSet
EndChar

StartChar: dotlessi
Encoding: 13 13 10
Width: 240
Flags: W
LayerCount: 2
Fore
SplineSet
171.75 134.334960938 m 1,0,-1
 171.299804688 91.7998046875 l 2,1,2
 171.299804688 63.8232421875 171.299804688 63.8232421875 173.982421875 55.6220703125 c 1,3,4
 179.484375 51.736328125 179.484375 51.736328125 188.508789062 49.587890625 c 0,5,6
 197.532226562 47.4384765625 197.532226562 47.4384765625 208.14453125 43.748046875 c 0,7,8
 218.756835938 40.056640625 218.756835938 40.056640625 224.858398438 27.322265625 c 0,9,10
 229.5 17.6357421875 229.5 17.6357421875 229.5 4.728515625 c 0,11,12
 229.5 -8.1796875 229.5 -8.1796875 224.16015625 -17.7265625 c 0,13,14
 217.108398438 -30.333984375 217.108398438 -30.333984375 204.215820312 -31.896484375 c 0,15,16
 195.112304688 -33 195.112304688 -33 184.651367188 -33 c 0,17,18
 174.189453125 -33 174.189453125 -33 160.689453125 -30.5 c 0,19,20
 147.189453125 -28 147.189453125 -28 131.401367188 -28 c 0,21,22
 115.612304688 -28 115.612304688 -28 94.9873046875 -30.5 c 0,23,24
 74.3623046875 -33 74.3623046875 -33 54 -33 c 2,25,-1
 45 -33 l 2,26,27
 36.3603515625 -33 36.3603515625 -33 28.595703125 -30.0419921875 c 0,28,29
 17.2568359375 -25.72265625 17.2568359375 -25.72265625 12.3935546875 -11.1337890625 c 0,30,31
 9.75 -3.2021484375 9.75 -3.2021484375 9.75 8.5732421875 c 0,32,33
 9.75 20.3486328125 9.75 20.3486328125 16.744140625 29.673828125 c 2,34,-1
 19.744140625 33.673828125 l 1,35,-1
 20.5751953125 34.7822265625 l 1,36,37
 31.9951171875 46.625 31.9951171875 46.625 43.458984375 49.1728515625 c 0,38,39
 54.9228515625 51.7197265625 54.9228515625 51.7197265625 61.12890625 52.8486328125 c 0,40,41
 67.333984375 53.9765625 67.333984375 53.9765625 70.3857421875 56.1884765625 c 0,42,43
 71.0771484375 58.228515625 71.0771484375 58.228515625 71.9140625 63.8623046875 c 0,44,45
 72.75 69.49609375 72.75 69.49609375 72.75 72 c 2,46,-1
 72.75 87 l 1,47,-1
 73.25 130.111328125 l 1,48,-1
 73 171.888671875 l 2,49,50
 73 193.385742188 73 193.385742188 73.5087890625 215.76953125 c 2,51,-1
 73.515625 216.014648438 l 2,52,53
 74.2734375 241.287109375 74.2734375 241.287109375 75.38671875 265.040039062 c 0,54,55
 76.5 288.791992188 76.5 288.791992188 76.5 305.854492188 c 0,56,57
 76.5 345.399414062 76.5 345.399414062 72.310546875 354.358398438 c 0,58,59
 70.9423828125 355.892578125 70.9423828125 355.892578125 59.7177734375 362.055664062 c 0,60,61
 48.4931640625 368.217773438 48.4931640625 368.217773438 42.6328125 372.125 c 0,62,63
 27 382.546875 27 382.546875 27 401.821289062 c 0,64,65
 27 421.096679688 27 421.096679688 39.970703125 433.069335938 c 0,66,67
 53.3203125 445.391601562 53.3203125 445.391601562 79.0166015625 454.111328125 c 0,68,69
 84.970703125 456.676757812 84.970703125 456.676757812 102.875 470.318359375 c 0,70,71
 132.061523438 492.555664062 132.061523438 492.555664062 138.70703125 495.77734375 c 0,72,73
 145.353515625 499 145.353515625 499 151.513671875 499 c 0,74,75
 157.674804688 499 157.674804688 499 163.493164062 493.828125 c 0,76,77
 173.25 485.155273438 173.25 485.155273438 173.25 469.365234375 c 0,78,79
 173.25 438.37109375 173.25 438.37109375 171.729492188 407.750976562 c 0,80,81
 168.7734375 285.131835938 168.7734375 285.131835938 171.743164062 134.668945312 c 2,82,-1
 171.75 134.334960938 l 1,0,-1
EndSplineSet
EndChar

StartChar: fraction
Encoding: 25 25 11
Width: 203
Flags: W
LayerCount: 2
Fore
SplineSet
276.75 715 m 2,0,1
 290.53515625 715 290.53515625 715 307.916992188 700.004882812 c 0,2,3
 320.076171875 689.514648438 320.076171875 689.514648438 327.708984375 683.962890625 c 2,4,-1
 345.813476562 670.795898438 l 1,5,-1
 334.305664062 648.046875 l 2,6,7
 312.200195312 604.341796875 312.200195312 604.341796875 288.350585938 563.458007812 c 0,8,9
 264.501953125 522.57421875 264.501953125 522.57421875 239.702148438 481.489257812 c 0,10,11
 167.69140625 358.47265625 167.69140625 358.47265625 96.2255859375 238.739257812 c 0,12,13
 24.7548828125 118.998046875 24.7548828125 118.998046875 -50.998046875 -23.53125 c 1,14,-1
 -64.703125 -16.22265625 l 2,15,16
 -70.48046875 -13.140625 -70.48046875 -13.140625 -80.427734375 -3.8076171875 c 0,17,18
 -90.375 5.5263671875 -90.375 5.5263671875 -105.155273438 12.3798828125 c 2,19,-1
 -129.34765625 23.6005859375 l 1,20,21
 -20.859375 217.24609375 -20.859375 217.24609375 74.3525390625 376.681640625 c 0,22,23
 169.5703125 536.12890625 169.5703125 536.12890625 267.208984375 715 c 1,24,-1
 276.75 715 l 2,0,1
EndSplineSet
EndChar

StartChar: fi
Encoding: 26 26 12
Width: 468
Flags: W
LayerCount: 2
Fore
SplineSet
399.75 134.334960938 m 1,0,-1
 399.299804688 91.7998046875 l 2,1,2
 399.299804688 63.59765625 399.299804688 63.59765625 401.952148438 55.9384765625 c 1,3,4
 408.00390625 51.7607421875 408.00390625 51.7607421875 416.796875 49.58984375 c 0,5,6
 425.590820312 47.4189453125 425.590820312 47.4189453125 436.173828125 43.7373046875 c 0,7,8
 446.756835938 40.056640625 446.756835938 40.056640625 452.858398438 27.322265625 c 0,9,10
 457.5 17.6357421875 457.5 17.6357421875 457.5 4.728515625 c 0,11,12
 457.5 -8.1796875 457.5 -8.1796875 452.16015625 -17.7265625 c 0,13,14
 445.108398438 -30.333984375 445.108398438 -30.333984375 432.215820312 -31.896484375 c 0,15,16
 423.112304688 -33 423.112304688 -33 412.651367188 -33 c 0,17,18
 402.189453125 -33 402.189453125 -33 388.689453125 -30.5 c 0,19,20
 375.189453125 -28 375.189453125 -28 359.401367188 -28 c 0,21,22
 343.612304688 -28 343.612304688 -28 322.987304688 -30.5 c 0,23,24
 302.362304688 -33 302.362304688 -33 282 -33 c 2,25,-1
 273.75 -33 l 2,26,27
 265.279296875 -33 265.279296875 -33 257.288085938 -30.1591796875 c 0,28,29
 245.795898438 -26.072265625 245.795898438 -26.072265625 240.671875 -11.7255859375 c 0,30,31
 237.75 -3.5439453125 237.75 -3.5439453125 237.75 8.40234375 c 0,32,33
 237.75 20.3486328125 237.75 20.3486328125 244.744140625 29.673828125 c 2,34,-1
 247.744140625 33.673828125 l 1,35,-1
 248.575195312 34.7822265625 l 1,36,37
 259.995117188 46.625 259.995117188 46.625 271.458984375 49.1728515625 c 0,38,39
 282.922851562 51.7197265625 282.922851562 51.7197265625 289.12890625 52.8486328125 c 0,40,41
 295.333984375 53.9765625 295.333984375 53.9765625 298.385742188 56.1884765625 c 0,42,43
 299.077148438 58.228515625 299.077148438 58.228515625 299.9140625 63.8623046875 c 0,44,45
 300.75 69.49609375 300.75 69.49609375 300.75 72 c 2,46,-1
 300.75 87 l 1,47,-1
 301.25 130.111328125 l 1,48,-1
 301 171.888671875 l 2,49,50
 301 193.385742188 301 193.385742188 301.508789062 215.76953125 c 2,51,-1
 301.515625 216.014648438 l 2,52,53
 302.2734375 241.287109375 302.2734375 241.287109375 303.38671875 265.040039062 c 0,54,55
 304.5 288.791992188 304.5 288.791992188 304.5 307.4453125 c 0,56,57
 304.5 345.256835938 304.5 345.256835938 297.59375 363.017578125 c 0,58,59
 290.715820312 380.701171875 290.715820312 380.701171875 273.98828125 382 c 1,60,-1
 194.25 382 l 2,61,62
 177.994140625 382 177.994140625 382 156.435546875 381.296875 c 1,63,64
 156.75 367.424804688 156.75 367.424804688 156.75 358 c 2,65,-1
 156 82 l 2,66,67
 156 66.7080078125 156 66.7080078125 158.620117188 61.583984375 c 0,68,69
 163.899414062 51.2607421875 163.899414062 51.2607421875 177.615234375 49.490234375 c 0,70,71
 191.331054688 47.720703125 191.331054688 47.720703125 210.475585938 41.71484375 c 1,72,-1
 214.255859375 36.673828125 l 2,73,74
 222.75 25.3486328125 222.75 25.3486328125 222.75 8 c 0,75,76
 222.75 -6.04296875 222.75 -6.04296875 216.396484375 -15.484375 c 1,77,-1
 215.02734375 -20.9638671875 l 1,78,-1
 208.782226562 -25.7216796875 l 2,79,80
 199.23046875 -33 199.23046875 -33 184.408203125 -33 c 0,81,82
 169.586914062 -33 169.586914062 -33 154.586914062 -30 c 0,83,84
 139.586914062 -27 139.586914062 -27 122.400390625 -27 c 0,85,86
 105.212890625 -27 105.212890625 -27 83.087890625 -30 c 0,87,88
 60.962890625 -33 60.962890625 -33 46.9052734375 -33 c 0,89,90
 32.84765625 -33 32.84765625 -33 24.2470703125 -31.908203125 c 0,91,92
 15.6474609375 -30.81640625 15.6474609375 -30.81640625 9.646484375 -25.1767578125 c 0,93,94
 -0.75 -15.4072265625 -0.75 -15.4072265625 -0.75 2 c 0,95,96
 -0.75 14.8623046875 -0.75 14.8623046875 3.486328125 24.7470703125 c 0,97,98
 9.48046875 38.7333984375 9.48046875 38.7333984375 20.3896484375 42.9755859375 c 0,99,100
 31.298828125 47.21875 31.298828125 47.21875 40.8662109375 50.0986328125 c 0,101,102
 50.43359375 52.9794921875 50.43359375 52.9794921875 55.8076171875 59.197265625 c 0,103,104
 58.5 65.54296875 58.5 65.54296875 58.5 81 c 2,105,-1
 58.5 375 l 2,106,107
 58.5 377.07421875 58.5 377.07421875 58.42578125 379.1953125 c 0,108,109
 48.2265625 380.428710938 48.2265625 380.428710938 39.548828125 380.749023438 c 0,110,111
 30.87109375 381.068359375 30.87109375 381.068359375 21.80859375 383.485351562 c 0,112,113
 9.802734375 386.686523438 9.802734375 386.686523438 3.640625 399.625976562 c 0,114,115
 -0.75 409 -0.75 409 -0.75 421 c 0,116,117
 -0.75 441.924804688 -0.75 441.924804688 4.16015625 452.8359375 c 0,118,119
 10.3505859375 466.59375 10.3505859375 466.59375 24.8466796875 471.6796875 c 0,120,121
 36.533203125 475.780273438 36.533203125 475.780273438 58.7861328125 478.55078125 c 1,122,123
 60.2861328125 509.037109375 60.2861328125 509.037109375 61.30859375 546.75 c 0,124,125
 62.3310546875 584.463867188 62.3310546875 584.463867188 70.2802734375 625.928710938 c 0,126,127
 77.5771484375 667.921875 77.5771484375 667.921875 92.677734375 706.01171875 c 0,128,129
 107.77734375 744.1015625 107.77734375 744.1015625 130.311523438 773.590820312 c 0,130,131
 152.846679688 803.081054688 152.846679688 803.081054688 182.030273438 820.0703125 c 0,132,133
 211.21484375 837.060546875 211.21484375 837.060546875 244.450195312 837.060546875 c 0,134,135
 265.740234375 837.060546875 265.740234375 837.060546875 284.241210938 833.618164062 c 0,136,137
 302.743164062 830.176757812 302.743164062 830.176757812 319.004882812 819.025390625 c 0,138,139
 335.266601562 807.874023438 335.266601562 807.874023438 346.85546875 789.063476562 c 0,140,141
 358.444335938 770.252929688 358.444335938 770.252929688 359.883789062 741.44921875 c 0,142,143
 360.674804688 736.158203125 360.674804688 736.158203125 360.674804688 730.844726562 c 0,144,145
 360.674804688 715.540039062 360.674804688 715.540039062 353.625976562 700.099609375 c 0,146,147
 346.577148438 684.658203125 346.577148438 684.658203125 334.4296875 675.087890625 c 0,148,149
 320.198242188 663.875 320.198242188 663.875 305.068359375 663.875 c 0,150,151
 289.938476562 663.875 289.938476562 663.875 279.583007812 675.142578125 c 0,152,153
 270.294921875 684.11328125 270.294921875 684.11328125 265.93359375 703.219726562 c 0,154,155
 264.598632812 709.069335938 264.598632812 709.069335938 259.939453125 715.591796875 c 0,156,157
 255.280273438 722.114257812 255.280273438 722.114257812 243.352539062 729.096679688 c 0,158,159
 231.55859375 736 231.55859375 736 205.5 736 c 0,160,161
 196.189453125 736 196.189453125 736 190.28515625 728.9140625 c 0,162,163
 174.006835938 709.379882812 174.006835938 709.379882812 164.836914062 659.532226562 c 0,164,165
 154.5 603.34375 154.5 603.34375 154.5 518 c 2,166,-1
 154.5 504 l 2,167,168
 154.5 493.178710938 154.5 493.178710938 154.818359375 478 c 1,169,-1
 316.5 478 l 2,170,171
 330.333984375 478 330.333984375 478 348.581054688 489.584960938 c 0,172,173
 365.986328125 500.63671875 365.986328125 500.63671875 374.461914062 500.63671875 c 0,174,175
 382.936523438 500.63671875 382.936523438 500.63671875 389.280273438 494.0078125 c 0,176,177
 392.90625 491.78515625 392.90625 491.78515625 395.614257812 487.994140625 c 0,178,179
 401.25 480.104492188 401.25 480.104492188 401.25 466.83984375 c 0,180,181
 401.25 438.37109375 401.25 438.37109375 399.729492188 407.750976562 c 0,182,183
 396.7734375 285.131835938 396.7734375 285.131835938 399.743164062 134.668945312 c 2,184,-1
 399.75 134.334960938 l 1,0,-1
EndSplineSet
EndChar

StartChar: fl
Encoding: 27 27 13
Width: 472
Flags: W
LayerCount: 2
Fore
SplineSet
394.5 798 m 1,0,-1
 395.25 741.961914062 l 1,1,-1
 394.5 79 l 2,2,3
 394.5 63.1484375 394.5 63.1484375 396.552734375 60.1259765625 c 2,4,-1
 397.237304688 59.1181640625 l 1,5,6
 407.930664062 52.388671875 407.930664062 52.388671875 425.08984375 49.845703125 c 2,7,-1
 431.41015625 48.91015625 l 2,8,9
 442.4140625 47.8896484375 442.4140625 47.8896484375 449.939453125 40.2158203125 c 0,10,11
 461.25 28.68359375 461.25 28.68359375 461.25 8 c 0,12,13
 461.25 -3.7841796875 461.25 -3.7841796875 456.971679688 -13.3388671875 c 0,14,15
 452.692382812 -22.89453125 452.692382812 -22.89453125 444.196289062 -28.041015625 c 0,16,17
 439.395507812 -32 439.395507812 -32 430.5 -32 c 2,18,-1
 427.5 -32 l 2,19,20
 408.493164062 -32 408.493164062 -32 390.868164062 -29.5 c 0,21,22
 373.243164062 -27 373.243164062 -27 353.995117188 -27 c 0,23,24
 334.747070312 -27 334.747070312 -27 313.372070312 -30 c 0,25,26
 291.997070312 -33 291.997070312 -33 268.5 -33 c 0,27,28
 263.336914062 -33 263.336914062 -33 254.775390625 -31.2880859375 c 0,29,30
 246.213867188 -29.5751953125 246.213867188 -29.5751953125 240.455078125 -23.509765625 c 0,31,32
 231 -13.5498046875 231 -13.5498046875 231 3.22265625 c 0,33,34
 231 19.9951171875 231 19.9951171875 236.375976562 29.5517578125 c 0,35,36
 241.750976562 39.107421875 241.750976562 39.107421875 249.694335938 41.755859375 c 2,37,-1
 263.20703125 47.98828125 l 2,38,39
 275.065429688 52.638671875 275.065429688 52.638671875 286.204101562 58.671875 c 0,40,41
 290.673828125 61.0927734375 290.673828125 61.0927734375 292.4765625 67.380859375 c 0,42,43
 295.5 77.9267578125 295.5 77.9267578125 295.5 102.046875 c 2,44,-1
 296.25 646 l 2,45,46
 296.25 678.196289062 296.25 678.196289062 288.91796875 698.138671875 c 0,47,48
 273.102539062 741.158203125 273.102539062 741.158203125 235.6328125 741.158203125 c 0,49,50
 223.293945312 741.158203125 223.293945312 741.158203125 209.926757812 736.702148438 c 0,51,52
 192.708984375 731.13671875 192.708984375 731.13671875 183.267578125 710.504882812 c 0,53,54
 160.193359375 660.083984375 160.193359375 660.083984375 156.334960938 580.858398438 c 0,55,56
 154.5 543.176757812 154.5 543.176757812 154.5 518 c 2,57,-1
 154.5 504 l 2,58,59
 154.5 493.178710938 154.5 493.178710938 154.818359375 478 c 1,60,-1
 226.5 478 l 2,61,62
 244.01171875 478 244.01171875 478 254.755859375 463.673828125 c 2,63,-1
 260.25 456.348632812 l 1,64,-1
 260.25 446 l 1,65,-1
 261 428 l 1,66,67
 261 408.671875 261 408.671875 252.758789062 394.021484375 c 2,68,-1
 248.4453125 386.353515625 l 1,69,70
 232.122070312 382 232.122070312 382 220.5 382 c 2,71,-1
 156.963867188 382 l 1,72,73
 156.75 367.659179688 156.75 367.659179688 156.75 358 c 2,74,-1
 156 82 l 2,75,76
 156 66.7080078125 156 66.7080078125 158.620117188 61.583984375 c 0,77,78
 163.899414062 51.2607421875 163.899414062 51.2607421875 177.615234375 49.490234375 c 0,79,80
 191.331054688 47.720703125 191.331054688 47.720703125 210.475585938 41.71484375 c 1,81,-1
 214.255859375 36.673828125 l 2,82,83
 222.75 25.3486328125 222.75 25.3486328125 222.75 8 c 0,84,85
 222.75 -6.04296875 222.75 -6.04296875 216.396484375 -15.484375 c 1,86,-1
 215.02734375 -20.9638671875 l 1,87,-1
 208.782226562 -25.7216796875 l 2,88,89
 199.23046875 -33 199.23046875 -33 184.408203125 -33 c 0,90,91
 169.586914062 -33 169.586914062 -33 154.586914062 -30 c 0,92,93
 139.586914062 -27 139.586914062 -27 122.400390625 -27 c 0,94,95
 105.212890625 -27 105.212890625 -27 83.087890625 -30 c 0,96,97
 60.962890625 -33 60.962890625 -33 46.9052734375 -33 c 0,98,99
 32.84765625 -33 32.84765625 -33 24.2470703125 -31.908203125 c 0,100,101
 15.6474609375 -30.81640625 15.6474609375 -30.81640625 9.646484375 -25.1767578125 c 0,102,103
 -0.75 -15.4072265625 -0.75 -15.4072265625 -0.75 2 c 0,104,105
 -0.75 14.8623046875 -0.75 14.8623046875 3.486328125 24.7470703125 c 0,106,107
 9.48046875 38.7333984375 9.48046875 38.7333984375 20.3896484375 42.9755859375 c 0,108,109
 31.298828125 47.21875 31.298828125 47.21875 40.8662109375 50.0986328125 c 0,110,111
 50.43359375 52.9794921875 50.43359375 52.9794921875 55.8076171875 59.197265625 c 0,112,113
 58.5 65.54296875 58.5 65.54296875 58.5 81 c 2,114,-1
 58.5 375 l 2,115,116
 58.5 377.07421875 58.5 377.07421875 58.42578125 379.1953125 c 0,117,118
 48.2265625 380.428710938 48.2265625 380.428710938 39.548828125 380.749023438 c 0,119,120
 30.87109375 381.068359375 30.87109375 381.068359375 21.80859375 383.485351562 c 0,121,122
 9.802734375 386.686523438 9.802734375 386.686523438 3.640625 399.625976562 c 0,123,124
 -0.75 409 -0.75 409 -0.75 421 c 0,125,126
 -0.75 441.924804688 -0.75 441.924804688 4.16015625 452.8359375 c 0,127,128
 10.3505859375 466.59375 10.3505859375 466.59375 24.8466796875 471.6796875 c 0,129,130
 36.533203125 475.780273438 36.533203125 475.780273438 58.7861328125 478.55078125 c 1,131,132
 60.2861328125 509.037109375 60.2861328125 509.037109375 61.30859375 546.75 c 0,133,134
 62.3310546875 584.463867188 62.3310546875 584.463867188 70.2802734375 625.928710938 c 0,135,136
 77.5771484375 667.921875 77.5771484375 667.921875 92.677734375 706.01171875 c 0,137,138
 107.77734375 744.1015625 107.77734375 744.1015625 130.311523438 773.590820312 c 0,139,140
 152.846679688 803.081054688 152.846679688 803.081054688 182.030273438 820.0703125 c 0,141,142
 211.21484375 837.060546875 211.21484375 837.060546875 244.450195312 837.060546875 c 0,143,144
 246.5703125 837.060546875 246.5703125 837.060546875 248.704101562 836.993164062 c 2,145,-1
 248.864257812 836.986328125 l 2,146,147
 274.256835938 835.89453125 274.256835938 835.89453125 293.16015625 829.208007812 c 0,148,149
 312.063476562 822.520507812 312.063476562 822.520507812 325.8671875 806.793945312 c 1,150,151
 336.43359375 811.818359375 336.43359375 811.818359375 348.266601562 817.788085938 c 0,152,153
 360.099609375 823.7578125 360.099609375 823.7578125 374.430664062 829.216796875 c 1,154,-1
 381.631835938 822.81640625 l 1,155,-1
 386.131835938 818.81640625 l 1,156,-1
 394.5 811.377929688 l 1,157,-1
 394.5 798 l 1,0,-1
EndSplineSet
EndChar

StartChar: Lslash
Encoding: 28 28 14
Width: 481
Flags: W
LayerCount: 2
Fore
SplineSet
13.5791015625 300.951171875 m 0,0,1
 11.892578125 306.059570312 11.892578125 306.059570312 11.892578125 313.350585938 c 0,2,3
 11.892578125 333.881835938 11.892578125 333.881835938 37.3828125 350.875 c 0,4,5
 44.318359375 355.499023438 44.318359375 355.499023438 51.115234375 359.791015625 c 2,6,-1
 63.1279296875 367.990234375 l 2,7,8
 72.462890625 373.32421875 72.462890625 373.32421875 80.884765625 380.061523438 c 0,9,10
 89.3056640625 386.799804688 89.3056640625 386.799804688 96 391.813476562 c 1,11,-1
 96 614 l 2,12,13
 96 636.903320312 96 636.903320312 92.6435546875 654.802734375 c 0,14,15
 91.2666015625 665.358398438 91.2666015625 665.358398438 87.5029296875 667.509765625 c 0,16,17
 76.79296875 673.62890625 76.79296875 673.62890625 62.81640625 675.958984375 c 0,18,19
 48.8388671875 678.288085938 48.8388671875 678.288085938 37.3525390625 681.16015625 c 0,20,21
 25.8662109375 684.03125 25.8662109375 684.03125 19.0166015625 692.137695312 c 0,22,23
 9 703.990234375 9 703.990234375 9 723 c 0,24,25
 9 736.044921875 9 736.044921875 13.291015625 745.747070312 c 0,26,27
 19.8359375 760.543945312 19.8359375 760.543945312 33.1455078125 763.629882812 c 0,28,29
 43.3662109375 766 43.3662109375 766 62.6708984375 766 c 0,30,31
 81.974609375 766 81.974609375 766 107.474609375 762.5 c 0,32,33
 132.974609375 759 132.974609375 759 159.958007812 759 c 0,34,35
 186.940429688 759 186.940429688 759 212.440429688 761 c 0,36,37
 237.940429688 763 237.940429688 763 270.75 763 c 2,38,-1
 277.874023438 763 l 1,39,-1
 283.198242188 756.689453125 l 2,40,41
 295.232421875 742.42578125 295.232421875 742.42578125 297 723.57421875 c 1,42,-1
 297 722 l 2,43,44
 297 705.887695312 297 705.887695312 290.478515625 696.033203125 c 0,45,46
 283.958007812 686.1796875 283.958007812 686.1796875 274.041992188 681.772460938 c 0,47,48
 264.125976562 677.365234375 264.125976562 677.365234375 249.6171875 675.606445312 c 2,49,-1
 225.268554688 672.610351562 l 2,50,51
 218.90625 671.814453125 218.90625 671.814453125 214.974609375 668.421875 c 0,52,53
 208.5 659.259765625 208.5 659.259765625 208.5 610.560546875 c 0,54,55
 208.5 561.861328125 208.5 561.861328125 208.20703125 526.649414062 c 0,56,57
 207.913085938 491.4375 207.913085938 491.4375 207.821289062 465.837890625 c 1,58,59
 215.971679688 471.243164062 215.971679688 471.243164062 230.581054688 481.330078125 c 0,60,61
 254.61328125 497.923828125 254.61328125 497.923828125 259.57421875 500.5703125 c 0,62,63
 264.536132812 503.215820312 264.536132812 503.215820312 268.586914062 503.215820312 c 0,64,65
 278.58984375 503.215820312 278.58984375 503.215820312 286.127929688 491.900390625 c 0,66,67
 290.27734375 485.670898438 290.27734375 485.670898438 295.3046875 471.845703125 c 0,68,69
 300.33203125 458.020507812 300.33203125 458.020507812 308.374023438 436.575195312 c 0,70,71
 309.900390625 430.47265625 309.900390625 430.47265625 309.900390625 425.780273438 c 0,72,73
 309.900390625 411.961914062 309.900390625 411.961914062 301.087890625 401.680664062 c 0,74,75
 291.66796875 390.690429688 291.66796875 390.690429688 279.038085938 382.83203125 c 0,76,77
 272.319335938 378.651367188 272.319335938 378.651367188 207 333.758789062 c 1,78,-1
 207 204 l 2,79,80
 207 152.263671875 207 152.263671875 208.756835938 128.837890625 c 0,81,82
 211.559570312 91.4736328125 211.559570312 91.4736328125 216.08984375 81.501953125 c 1,83,84
 230.955078125 67.873046875 230.955078125 67.873046875 250.1171875 64.822265625 c 0,85,86
 260.827148438 63.1171875 260.827148438 63.1171875 271.798828125 63.1171875 c 0,87,88
 282.770507812 63.1171875 282.770507812 63.1171875 299.26171875 66.2587890625 c 0,89,90
 315.751953125 69.3994140625 315.751953125 69.3994140625 332.580078125 77.318359375 c 0,91,92
 349.407226562 85.2373046875 349.407226562 85.2373046875 354.859375 90.8916015625 c 1,93,94
 364.9140625 98.4326171875 364.9140625 98.4326171875 377.243164062 118.87109375 c 0,95,96
 389.573242188 139.309570312 389.573242188 139.309570312 400.447265625 163.47265625 c 0,97,98
 411.3203125 187.63671875 411.3203125 187.63671875 418.099609375 203.356445312 c 0,99,100
 430.84765625 232.916015625 430.84765625 232.916015625 435.502929688 237.744140625 c 0,101,102
 445.544921875 248.158203125 445.544921875 248.158203125 457.965820312 248.158203125 c 0,103,104
 462.134765625 248.158203125 462.134765625 248.158203125 466.370117188 246.9296875 c 0,105,106
 484.274414062 241.740234375 484.274414062 241.740234375 491.143554688 221.133789062 c 2,107,-1
 495.213867188 208.922851562 l 1,108,-1
 489.846679688 197.637695312 l 2,109,110
 471.515625 159.096679688 471.515625 159.096679688 461.482421875 120.396484375 c 0,111,112
 451.44921875 81.6962890625 451.44921875 81.6962890625 445.150390625 50.0830078125 c 0,113,114
 438.852539062 18.46875 438.852539062 18.46875 435.79296875 3.634765625 c 0,115,116
 432.733398438 -11.2001953125 432.733398438 -11.2001953125 430.190429688 -18.2529296875 c 0,117,118
 427.646484375 -25.3056640625 427.646484375 -25.3056640625 424.048828125 -30.2255859375 c 0,119,120
 416.900390625 -40 416.900390625 -40 407.25 -40 c 0,121,122
 355.060546875 -40 355.060546875 -40 301.435546875 -31 c 0,123,124
 247.810546875 -22 247.810546875 -22 198 -22 c 0,125,126
 173.259765625 -22 173.259765625 -22 154.918945312 -23.9560546875 c 0,127,128
 136.578125 -25.9130859375 136.578125 -25.9130859375 119.392578125 -27.9052734375 c 0,129,130
 102.078125 -29.9130859375 102.078125 -29.9130859375 82.9189453125 -31.9560546875 c 0,131,132
 63.759765625 -34 63.759765625 -34 37.5 -34 c 0,133,134
 23.9921875 -34 23.9921875 -34 15.3515625 -19.599609375 c 0,135,136
 8.25 -7.763671875 8.25 -7.763671875 8.25 5.498046875 c 0,137,138
 8.25 37.9306640625 8.25 37.9306640625 27.546875 48.22265625 c 0,139,140
 37.802734375 53.69140625 37.802734375 53.69140625 50.55078125 54.7880859375 c 0,141,142
 63.298828125 55.884765625 63.298828125 55.884765625 75.7041015625 58.248046875 c 0,143,144
 82.8779296875 59.6142578125 82.8779296875 59.6142578125 88.908203125 66.9052734375 c 0,145,146
 93.505859375 73.7373046875 93.505859375 73.7373046875 96.2626953125 97.4296875 c 0,147,148
 101.587890625 143.180664062 101.587890625 143.180664062 98.275390625 228.184570312 c 0,149,150
 97.6435546875 244.409179688 97.6435546875 244.409179688 97.1435546875 259.309570312 c 1,151,152
 61.9658203125 235.857421875 61.9658203125 235.857421875 50.2197265625 235.857421875 c 0,153,154
 45.4013671875 235.857421875 45.4013671875 235.857421875 40.5185546875 238.895507812 c 0,155,156
 35.63671875 241.93359375 35.63671875 241.93359375 32.5517578125 249.120117188 c 0,157,158
 29.0625 255.565429688 29.0625 255.565429688 25.498046875 265.599609375 c 0,159,160
 21.93359375 275.633789062 21.93359375 275.633789062 13.5791015625 300.951171875 c 0,0,1
EndSplineSet
EndChar

StartChar: lslash
Encoding: 29 29 15
Width: 243
Flags: W
LayerCount: 2
Fore
SplineSet
171 666 m 1,0,-1
 170.25 527 l 1,1,-1
 170.25 494.075195312 l 1,2,3
 182.412109375 502.588867188 182.412109375 502.588867188 191.799804688 509.329101562 c 0,4,5
 213.98046875 525.252929688 213.98046875 525.252929688 216.758789062 526.734375 c 0,6,7
 219.536132812 528.215820312 219.536132812 528.215820312 223.583007812 528.215820312 c 0,8,9
 233.791015625 528.215820312 233.791015625 528.215820312 241.275390625 516.528320312 c 0,10,11
 245.32421875 510.206054688 245.32421875 510.206054688 249.928710938 496.697265625 c 0,12,13
 254.534179688 483.188476562 254.534179688 483.188476562 263.2578125 462.041015625 c 1,14,15
 264.900390625 455.47265625 264.900390625 455.47265625 264.900390625 450.759765625 c 0,16,17
 264.900390625 431.461914062 264.900390625 431.461914062 245.681640625 415.692382812 c 0,18,19
 239.634765625 410.73046875 239.634765625 410.73046875 234.071289062 407.551757812 c 0,20,21
 228.508789062 404.373046875 228.508789062 404.373046875 224.58984375 401.772460938 c 2,22,-1
 170.25 363.018554688 l 1,23,-1
 170.25 78 l 2,24,25
 170.25 62.1484375 170.25 62.1484375 172.302734375 59.1259765625 c 2,26,-1
 172.987304688 58.1181640625 l 1,27,28
 183.680664062 51.388671875 183.680664062 51.388671875 200.83984375 48.845703125 c 2,29,-1
 207.16015625 47.91015625 l 2,30,31
 218.1640625 46.8896484375 218.1640625 46.8896484375 225.689453125 39.2158203125 c 0,32,33
 237 27.68359375 237 27.68359375 237 7 c 0,34,35
 237 -4.7841796875 237 -4.7841796875 232.721679688 -14.3388671875 c 0,36,37
 228.442382812 -23.89453125 228.442382812 -23.89453125 219.946289062 -29.041015625 c 0,38,39
 215.145507812 -33 215.145507812 -33 206.25 -33 c 2,40,-1
 203.25 -33 l 2,41,42
 184.243164062 -33 184.243164062 -33 166.618164062 -30.5 c 0,43,44
 148.993164062 -28 148.993164062 -28 129.745117188 -28 c 0,45,46
 110.497070312 -28 110.497070312 -28 89.1220703125 -31 c 0,47,48
 67.7470703125 -34 67.7470703125 -34 44.25 -34 c 0,49,50
 39.0869140625 -34 39.0869140625 -34 30.525390625 -32.2880859375 c 0,51,52
 21.9638671875 -30.5751953125 21.9638671875 -30.5751953125 16.205078125 -24.509765625 c 0,53,54
 6.75 -14.5498046875 6.75 -14.5498046875 6.75 2.22265625 c 0,55,56
 6.75 18.9951171875 6.75 18.9951171875 12.1259765625 28.5517578125 c 0,57,58
 17.5009765625 38.107421875 17.5009765625 38.107421875 25.4443359375 40.755859375 c 2,59,-1
 38.95703125 46.98828125 l 2,60,61
 50.8154296875 51.638671875 50.8154296875 51.638671875 61.9541015625 57.671875 c 0,62,63
 66.423828125 60.0927734375 66.423828125 60.0927734375 68.2265625 66.380859375 c 0,64,65
 71.25 76.9267578125 71.25 76.9267578125 71.25 101 c 2,66,-1
 71.25 294.431640625 l 1,67,-1
 62.01953125 287.901367188 l 2,68,69
 57.6875 284.8359375 57.6875 284.8359375 44.859375 277.994140625 c 0,70,71
 32.0302734375 271.15234375 32.0302734375 271.15234375 27.0869140625 269.504882812 c 0,72,73
 22.14453125 267.857421875 22.14453125 267.857421875 18.0224609375 267.857421875 c 0,74,75
 13.9013671875 267.857421875 13.9013671875 267.857421875 9.0185546875 270.895507812 c 0,76,77
 4.13671875 273.93359375 4.13671875 273.93359375 1.0517578125 281.120117188 c 0,78,79
 -2.4375 287.565429688 -2.4375 287.565429688 -6.001953125 297.599609375 c 0,80,81
 -16.6875 327.676757812 -16.6875 327.676757812 -18.1474609375 333.516601562 c 0,82,83
 -19.607421875 339.356445312 -19.607421875 339.356445312 -19.607421875 346.192382812 c 0,84,85
 -19.607421875 353.029296875 -19.607421875 353.029296875 -16.185546875 359.505859375 c 0,86,87
 -12.7646484375 365.981445312 -12.7646484375 365.981445312 -7.7353515625 371.010742188 c 0,88,89
 1.7822265625 380.528320312 1.7822265625 380.528320312 14.0966796875 388.305664062 c 0,90,91
 26.4111328125 396.083984375 26.4111328125 396.083984375 30.833984375 399.622070312 c 1,92,93
 37.09765625 402.75390625 37.09765625 402.75390625 45.1240234375 408.747070312 c 0,94,95
 53.150390625 414.740234375 53.150390625 414.740234375 72 427.423828125 c 1,96,-1
 72 472 l 1,97,-1
 72.75 584 l 1,98,-1
 72.75 645 l 2,99,100
 72.75 658.9453125 72.75 658.9453125 71.6904296875 675.900390625 c 0,101,102
 71.1064453125 685.248046875 71.1064453125 685.248046875 67.41015625 691.662109375 c 0,103,104
 65.875 693.129882812 65.875 693.129882812 61.6435546875 695.951171875 c 0,105,106
 48.8955078125 704.44921875 48.8955078125 704.44921875 40.068359375 711.692382812 c 0,107,108
 26.25 723.030273438 26.25 723.030273438 26.25 742 c 2,109,-1
 26.25 746 l 2,110,111
 26.25 764.453125 26.25 764.453125 38.1328125 772.375 c 2,112,-1
 42.0703125 775 l 1,113,-1
 46.5 775 l 2,114,115
 51.828125 775.479492188 51.828125 775.479492188 66.4853515625 781.125976562 c 0,116,117
 105.489257812 796.149414062 105.489257812 796.149414062 128.25 812.513671875 c 1,118,-1
 128.25 847.7109375 l 1,119,-1
 157.381835938 821.81640625 l 1,120,-1
 161.881835938 817.81640625 l 1,121,-1
 170.25 810.377929688 l 1,122,-1
 170.25 797 l 1,123,-1
 171 741 l 1,124,-1
 171 666 l 1,0,-1
EndSplineSet
EndChar

StartChar: Zcaron
Encoding: 30 30 16
Width: 581
Flags: W
LayerCount: 2
Fore
SplineSet
405.875 669.6796875 m 1,0,1
 393.005859375 669 393.005859375 669 392.25 669 c 2,2,-1
 339 669 l 2,3,4
 312.909179688 669 312.909179688 669 246.045898438 667.505859375 c 0,5,6
 179.181640625 666.01171875 179.181640625 666.01171875 159.4765625 664.604492188 c 0,7,8
 139.771484375 663.197265625 139.771484375 663.197265625 123.411132812 656.612304688 c 0,9,10
 107.049804688 650.026367188 107.049804688 650.026367188 92.5283203125 629.051757812 c 0,11,12
 87.623046875 622.243164062 87.623046875 622.243164062 83.15234375 611.600585938 c 0,13,14
 78.6826171875 600.95703125 78.6826171875 600.95703125 73.3955078125 587.943359375 c 0,15,16
 56.3564453125 546 56.3564453125 546 36.75 546 c 0,17,18
 30.09765625 546 30.09765625 546 22.0595703125 549.384765625 c 0,19,20
 1.7099609375 557.953125 1.7099609375 557.953125 1.7099609375 581.448242188 c 0,21,22
 1.7099609375 586.657226562 1.7099609375 586.657226562 2.9169921875 591.7578125 c 0,23,24
 7.654296875 619.948242188 7.654296875 619.948242188 13.6044921875 645.979492188 c 0,25,26
 15.5517578125 654.499023438 15.5517578125 654.499023438 25.666015625 698.750976562 c 0,27,28
 31.7451171875 722.0546875 31.7451171875 722.0546875 35.638671875 737.627929688 c 0,29,30
 44.982421875 775 44.982421875 775 69 775 c 0,31,32
 86.9296875 775 86.9296875 775 96.8671875 768.375 c 0,33,34
 102.22265625 764.8046875 102.22265625 764.8046875 114.434570312 763.32421875 c 1,35,-1
 118.381835938 759.81640625 l 2,36,37
 121.325195312 757.200195312 121.325195312 757.200195312 132.423828125 755.599609375 c 0,38,39
 143.5234375 754 143.5234375 754 155.25 754 c 2,40,-1
 169.5 754 l 2,41,42
 203.831054688 754 203.831054688 754 246.16796875 754.999023438 c 0,43,44
 269.005859375 755.538085938 269.005859375 755.538085938 292.400390625 755.931640625 c 1,45,46
 288.926757812 759.580078125 288.926757812 759.580078125 286.436523438 764.560546875 c 0,47,48
 263.7734375 813.915039062 263.7734375 813.915039062 243.0390625 858.455078125 c 0,49,50
 222.3046875 902.99609375 222.3046875 902.99609375 211.048828125 943.73046875 c 0,51,52
 208.5 953.927734375 208.5 953.927734375 208.5 963.42578125 c 0,53,54
 208.5 972.923828125 208.5 972.923828125 213.655273438 981.515625 c 0,55,56
 220.612304688 993.111328125 220.612304688 993.111328125 232.583007812 993.111328125 c 0,57,58
 242.174804688 993.111328125 242.174804688 993.111328125 250.71484375 983.243164062 c 0,59,60
 258.991210938 973.678710938 258.991210938 973.678710938 276.318359375 943.645507812 c 0,61,62
 301.95703125 899.206054688 301.95703125 899.206054688 309.948242188 888.0703125 c 1,63,64
 318.190429688 900.5703125 318.190429688 900.5703125 331.365234375 925.569335938 c 0,65,66
 344.541015625 950.568359375 344.541015625 950.568359375 355.037109375 966.177734375 c 0,67,68
 370.3828125 989 370.3828125 989 384.622070312 989 c 0,69,70
 399.366210938 989 399.366210938 989 405.951171875 974.366210938 c 0,71,72
 409.5 966.479492188 409.5 966.479492188 409.5 958.349609375 c 0,73,74
 409.5 950.219726562 409.5 950.219726562 407.713867188 943.717773438 c 0,75,76
 402.657226562 925.305664062 402.657226562 925.305664062 391.764648438 899.559570312 c 0,77,78
 380.873046875 873.814453125 380.873046875 873.814453125 371.411132812 851.106445312 c 0,79,80
 355.330078125 812.51171875 355.330078125 812.51171875 336.3203125 773.825195312 c 0,81,82
 330.921875 762.838867188 330.921875 762.838867188 326.723632812 756.427734375 c 1,83,84
 329.734375 756.463867188 329.734375 756.463867188 332.75390625 756.498046875 c 0,85,86
 377.00390625 756.998046875 377.00390625 756.998046875 419.416992188 757.999023438 c 0,87,88
 461.831054688 759 461.831054688 759 497.25 759 c 0,89,90
 503.18359375 759 503.18359375 759 514.075195312 761.419921875 c 0,91,92
 531.083007812 765.200195312 531.083007812 765.200195312 541.65234375 765.200195312 c 0,93,94
 552.221679688 765.200195312 552.221679688 765.200195312 560.844726562 759.7890625 c 0,95,96
 569.467773438 754.37890625 569.467773438 754.37890625 573.02734375 745.2265625 c 0,97,98
 576.586914062 736.073242188 576.586914062 736.073242188 576.586914062 729.083007812 c 0,99,100
 576.586914062 714.280273438 576.586914062 714.280273438 572.280273438 705.815429688 c 0,101,102
 563.720703125 688.989257812 563.720703125 688.989257812 523.813476562 627.663085938 c 0,103,104
 449.557617188 513.139648438 449.557617188 513.139648438 418.271484375 463.9375 c 0,105,106
 386.985351562 414.735351562 386.985351562 414.735351562 357.366210938 369.244140625 c 0,107,108
 331.559570312 329.608398438 331.559570312 329.608398438 288.348632812 261.682617188 c 0,109,110
 245.138671875 193.7578125 245.138671875 193.7578125 239.982421875 184.96875 c 0,111,112
 233.637695312 173.377929688 233.637695312 173.377929688 220.809570312 152.751953125 c 0,113,114
 207.981445312 132.125 207.981445312 132.125 194.739257812 110.545898438 c 0,115,116
 173.288085938 75.58984375 173.288085938 75.58984375 166.794921875 59.470703125 c 1,117,118
 168.7109375 59.3330078125 168.7109375 59.3330078125 170.75 59.3330078125 c 2,119,-1
 189.75 60 l 1,120,-1
 339.75 61 l 2,121,122
 366.405273438 61 366.405273438 61 395.994140625 62.42578125 c 0,123,124
 425.58203125 63.8515625 425.58203125 63.8515625 450.088867188 72.765625 c 0,125,126
 464.107421875 80.1845703125 464.107421875 80.1845703125 471.19140625 92.3291015625 c 0,127,128
 480.850585938 108.887695312 480.850585938 108.887695312 490.6484375 131.241210938 c 0,129,130
 494.078125 139.71875 494.078125 139.71875 497.061523438 153.641601562 c 0,131,132
 506.14453125 196.028320312 506.14453125 196.028320312 526.157226562 204.3671875 c 0,133,134
 530.076171875 206 530.076171875 206 534.26953125 206 c 0,135,136
 546.333984375 206 546.333984375 206 558.7421875 192.212890625 c 2,137,-1
 564.026367188 186.340820312 l 1,138,139
 567.75 158.208984375 567.75 158.208984375 567.75 139.055664062 c 0,140,141
 567.75 119.903320312 567.75 119.903320312 564.180664062 100.869140625 c 0,142,143
 558.270507812 69.3447265625 558.270507812 69.3447265625 556.473632812 46.9921875 c 0,144,145
 554.677734375 24.6396484375 554.677734375 24.6396484375 550.508789062 7.962890625 c 0,146,147
 546.33984375 -8.7138671875 546.33984375 -8.7138671875 535.28125 -20.857421875 c 0,148,149
 524.221679688 -33 524.221679688 -33 505.5 -33 c 0,150,151
 475.76171875 -33 475.76171875 -33 446.51171875 -31 c 0,152,153
 417.26171875 -29 417.26171875 -29 388.5 -29 c 2,154,-1
 321.75 -29 l 2,155,156
 252.359375 -29 252.359375 -29 176.608398438 -32.4990234375 c 0,157,158
 100.857421875 -35.9990234375 100.857421875 -35.9990234375 30.75 -36 c 0,159,160
 19.1708984375 -36 19.1708984375 -36 11.2197265625 -28.048828125 c 0,161,162
 0 -16.8291015625 0 -16.8291015625 0 4 c 0,163,164
 -0 10.986328125 -0 10.986328125 1.9794921875 15.6435546875 c 0,165,166
 5.56640625 24.0869140625 5.56640625 24.0869140625 17.177734375 43.7919921875 c 0,167,168
 60.2099609375 116.815429688 60.2099609375 116.815429688 92.32421875 168.956054688 c 0,169,170
 152.032226562 265.89453125 152.032226562 265.89453125 152.032226562 265.895507812 c 2,171,-1
 208.658203125 357.397460938 l 2,172,173
 286.228515625 482.717773438 286.228515625 482.717773438 301.107421875 507.065429688 c 0,174,175
 325.172851562 546.444335938 325.172851562 546.444335938 341.390625 570.771484375 c 0,176,177
 388.346679688 641.205078125 388.346679688 641.205078125 395.783203125 653.163085938 c 0,178,179
 403.220703125 665.120117188 403.220703125 665.120117188 405.875 669.6796875 c 1,0,1
EndSplineSet
EndChar

StartChar: zcaron
Encoding: 31 31 17
Width: 357
Flags: W
LayerCount: 2
Fore
SplineSet
215.84765625 402.747070312 m 1,0,-1
 195 402 l 1,1,-1
 171 402 l 2,2,3
 150.915039062 402 150.915039062 402 130.323242188 401.526367188 c 0,4,5
 109.732421875 401.053710938 109.732421875 401.053710938 96.1708984375 396.532226562 c 0,6,7
 88.3095703125 394.682617188 88.3095703125 394.682617188 84.9091796875 390.375 c 0,8,9
 78.55859375 382.331054688 78.55859375 382.331054688 73.0068359375 372.4609375 c 0,10,11
 67.4541015625 362.590820312 67.4541015625 362.590820312 60.880859375 353.826171875 c 0,12,13
 49.76171875 339 49.76171875 339 33 339 c 0,14,15
 14.3759765625 339 14.3759765625 339 7.28515625 354.666992188 c 0,16,17
 2.0185546875 366.302734375 2.0185546875 366.302734375 4.8681640625 379.14453125 c 0,18,19
 9.076171875 398.110351562 9.076171875 398.110351562 10.8505859375 402.842773438 c 0,20,21
 13.0478515625 408.701171875 13.0478515625 408.701171875 16.4150390625 423.641601562 c 0,22,23
 20.2978515625 444.262695312 20.2978515625 444.262695312 23.5458984375 457.255859375 c 0,24,25
 32.732421875 494 32.732421875 494 56.25 494 c 0,26,27
 70.4443359375 494 70.4443359375 494 82.087890625 487.649414062 c 0,28,29
 86.9443359375 485 86.9443359375 485 99.75 485 c 2,30,-1
 178.611328125 485 l 1,31,32
 166.27734375 494.24609375 166.27734375 494.24609375 163.022460938 497.547851562 c 0,33,34
 159.30859375 501.315429688 159.30859375 501.315429688 156.686523438 506.560546875 c 0,35,36
 134.0234375 555.915039062 134.0234375 555.915039062 113.2890625 600.455078125 c 0,37,38
 92.5546875 644.99609375 92.5546875 644.99609375 81.298828125 685.73046875 c 0,39,40
 78.75 695.927734375 78.75 695.927734375 78.75 702 c 0,41,42
 78.75 719.33984375 78.75 719.33984375 88.734375 728.807617188 c 0,43,44
 95.2666015625 735 95.2666015625 735 104.25 735 c 2,45,-1
 106.122070312 735 l 2,46,47
 114.44140625 732.78125 114.44140625 732.78125 120.018554688 726.336914062 c 0,48,49
 129.241210938 715.678710938 129.241210938 715.678710938 152.870117188 674.72265625 c 0,50,51
 172.20703125 641.206054688 172.20703125 641.206054688 180.198242188 630.0703125 c 1,52,53
 188.440429688 642.5703125 188.440429688 642.5703125 201.615234375 667.569335938 c 0,54,55
 214.791015625 692.568359375 214.791015625 692.568359375 225.287109375 708.177734375 c 0,56,57
 240.6328125 731 240.6328125 731 254.872070312 731 c 0,58,59
 269.616210938 731 269.616210938 731 276.201171875 716.366210938 c 0,60,61
 279.75 708.479492188 279.75 708.479492188 279.75 700.349609375 c 0,62,63
 279.75 692.219726562 279.75 692.219726562 277.963867188 685.717773438 c 0,64,65
 272.907226562 667.305664062 272.907226562 667.305664062 262.014648438 641.559570312 c 0,66,67
 251.123046875 615.814453125 251.123046875 615.814453125 241.661132812 593.106445312 c 0,68,69
 225.580078125 554.51171875 225.580078125 554.51171875 206.5703125 515.825195312 c 0,70,71
 197.6328125 497.63671875 197.6328125 497.63671875 191.984375 491.98828125 c 2,72,-1
 184.99609375 485 l 1,73,-1
 219.75 485 l 2,74,75
 232.749023438 485 232.749023438 485 246.999023438 486 c 0,76,77
 261.249023438 487 261.249023438 487 276 487 c 2,78,-1
 287.25 487 l 2,79,80
 298.831054688 487 298.831054688 487 310.599609375 485.20703125 c 0,81,82
 322.368164062 483.413085938 322.368164062 483.413085938 329.327148438 480.190429688 c 0,83,84
 336.286132812 476.966796875 336.286132812 476.966796875 342.110351562 469.201171875 c 0,85,86
 348.583007812 457.118164062 348.583007812 457.118164062 348.583007812 446.40234375 c 0,87,88
 348.583007812 435.686523438 348.583007812 435.686523438 344.857421875 424.5078125 c 0,89,90
 306.916992188 354.306640625 306.916992188 354.306640625 271.232421875 289.697265625 c 0,91,92
 235.626953125 225.234375 235.626953125 225.234375 198.879882812 157.23828125 c 0,93,94
 182.166015625 126.848632812 182.166015625 126.848632812 167.193359375 101.709960938 c 0,95,96
 152.221679688 76.572265625 152.221679688 76.572265625 145.090820312 61 c 1,97,-1
 165 61 l 2,98,99
 210.321289062 61 210.321289062 61 230.09765625 63.8662109375 c 0,100,101
 264.36328125 68.83203125 264.36328125 68.83203125 272.19140625 74.1474609375 c 0,102,103
 275.35546875 78.1455078125 275.35546875 78.1455078125 279.133789062 99.3037109375 c 2,104,-1
 282.883789062 120.303710938 l 2,105,106
 286.19921875 138.870117188 286.19921875 138.870117188 295.5078125 149.212890625 c 2,107,-1
 300.716796875 155 l 1,108,-1
 307.5 155 l 1,109,-1
 310.421875 155 l 2,110,111
 312.044921875 155.166992188 312.044921875 155.166992188 313.604492188 155.166992188 c 0,112,113
 329.741210938 155.166992188 329.741210938 155.166992188 337.08984375 138.8359375 c 0,114,115
 342 127.923828125 342 127.923828125 342 112 c 2,116,-1
 342 88 l 2,117,118
 342 39.50390625 342 39.50390625 337.135742188 7.078125 c 0,119,120
 334.630859375 -9.625 334.630859375 -9.625 328.76953125 -17.1953125 c 0,121,122
 321.197265625 -29.6748046875 321.197265625 -29.6748046875 310.555664062 -29.6748046875 c 0,123,124
 310.279296875 -29.6748046875 310.279296875 -29.6748046875 310 -29.6669921875 c 0,125,126
 304.0703125 -29.6669921875 304.0703125 -29.6669921875 298.3828125 -25.875 c 0,127,128
 297.0703125 -25 297.0703125 -25 296.25 -25 c 0,129,130
 238.619140625 -25 238.619140625 -25 184.99609375 -26 c 0,131,132
 131.373046875 -27 131.373046875 -27 73.5 -27 c 2,133,-1
 63 -27 l 2,134,135
 31.6328125 -27 31.6328125 -27 18.8818359375 -19.2724609375 c 0,136,137
 11.1201171875 -14.568359375 11.1201171875 -14.568359375 7.435546875 -6.7841796875 c 0,138,139
 3.75 1 3.75 1 3.75 11.283203125 c 0,140,141
 3.75 21.56640625 3.75 21.56640625 8.3876953125 30.841796875 c 0,142,143
 8.859375 31.8583984375 8.859375 31.8583984375 10.3056640625 36.677734375 c 0,144,145
 18.2998046875 52.6669921875 18.2998046875 52.6669921875 26.3564453125 63.919921875 c 0,146,147
 33.5126953125 73.916015625 33.5126953125 73.916015625 40.8017578125 86.5166015625 c 0,148,149
 75.0322265625 144.0625 75.0322265625 144.0625 106.681640625 202.646484375 c 2,150,-1
 170.598632812 320.263671875 l 2,151,152
 175.473632812 329.956054688 175.473632812 329.956054688 184.829101562 345.923828125 c 0,153,154
 193.947265625 361.485351562 193.947265625 361.485351562 215.84765625 402.747070312 c 1,0,-1
EndSplineSet
EndChar

StartChar: exclam
Encoding: 33 33 18
Width: 185
Flags: W
LayerCount: 2
Fore
SplineSet
156 46 m 0,0,1
 156 4.9892578125 156 4.9892578125 133.950195312 -18.53125 c 0,2,3
 113.822265625 -40 113.822265625 -40 87.0654296875 -40 c 0,4,5
 60.3076171875 -40 60.3076171875 -40 42.904296875 -12.5751953125 c 0,6,7
 25.5 14.8486328125 25.5 14.8486328125 25.5 47 c 0,8,9
 25.5 83.955078125 25.5 83.955078125 44.3447265625 110.477539062 c 0,10,11
 63.1904296875 137 63.1904296875 137 90.9619140625 137 c 0,12,13
 118.734375 137 118.734375 137 137.3671875 108.706054688 c 0,14,15
 156 80.4111328125 156 80.4111328125 156 46 c 0,0,1
106.330078125 194.774414062 m 0,16,17
 100.997070312 190.833007812 100.997070312 190.833007812 96.650390625 190.833007812 c 0,18,19
 81.9208984375 190.833007812 81.9208984375 190.833007812 72.765625 199.98828125 c 2,20,-1
 66.080078125 206.673828125 l 1,21,22
 61.919921875 267.697265625 61.919921875 267.697265625 50.509765625 400.041992188 c 0,23,24
 39.1005859375 532.387695312 39.1005859375 532.387695312 34.57421875 596.762695312 c 0,25,26
 30.0478515625 661.137695312 30.0478515625 661.137695312 28.5234375 715.703125 c 0,27,28
 27.3955078125 739.202148438 27.3955078125 739.202148438 33.75390625 751.3125 c 0,29,30
 42.3046875 767.599609375 42.3046875 767.599609375 59.775390625 767.599609375 c 0,31,32
 66.3798828125 767.599609375 66.3798828125 767.599609375 74.8173828125 765.799804688 c 0,33,34
 83.2548828125 764 83.2548828125 764 94.310546875 764 c 0,35,36
 105.365234375 764 105.365234375 764 114.740234375 765.5 c 0,37,38
 124.115234375 767 124.115234375 767 132 767 c 0,39,40
 146.938476562 767 146.938476562 767 156.543945312 756.520507812 c 0,41,42
 166.150390625 746.041992188 166.150390625 746.041992188 166.150390625 724.715820312 c 0,43,44
 166.150390625 713.100585938 166.150390625 713.100585938 158.37890625 631.506835938 c 0,45,46
 150.608398438 549.912109375 150.608398438 549.912109375 144.228515625 479.360351562 c 0,47,48
 130.057617188 322.642578125 130.057617188 322.642578125 117.522460938 216.1015625 c 0,49,50
 115.584960938 201.614257812 115.584960938 201.614257812 106.330078125 194.774414062 c 0,16,17
EndSplineSet
EndChar

StartChar: quotedbl
Encoding: 34 34 19
Width: 228
Flags: W
LayerCount: 2
Fore
SplineSet
165.75 770 m 1,0,-1
 187.905273438 769.01171875 l 1,1,2
 192.241210938 769.857421875 192.241210938 769.857421875 193.653320312 769.857421875 c 0,3,4
 202.509765625 769.857421875 202.509765625 769.857421875 208.029296875 763.635742188 c 0,5,6
 219.545898438 750.654296875 219.545898438 750.654296875 219.545898438 730.966796875 c 0,7,8
 219.545898438 725.803710938 219.545898438 725.803710938 218.491210938 720.934570312 c 0,9,10
 215.990234375 701.220703125 215.990234375 701.220703125 211.419921875 645.500976562 c 0,11,12
 206.849609375 589.782226562 206.849609375 589.782226562 203.655273438 561.032226562 c 0,13,14
 200.459960938 532.283203125 200.459960938 532.283203125 197.311523438 522.385742188 c 0,15,16
 192.6171875 507.23828125 192.6171875 507.23828125 180.775390625 501.497070312 c 0,17,18
 174.388671875 498.400390625 174.388671875 498.400390625 170.23828125 498.400390625 c 0,19,20
 166.087890625 498.400390625 166.087890625 498.400390625 164.409179688 498.603515625 c 0,21,22
 155.33984375 499.703125 155.33984375 499.703125 147.515625 507.004882812 c 0,23,24
 137.138671875 516.690429688 137.138671875 516.690429688 135.204101562 534.302734375 c 0,25,26
 122.716796875 643.912109375 122.716796875 643.912109375 120.272460938 677.8125 c 0,27,28
 117.536132812 715.755859375 117.536132812 715.755859375 117.536132812 730.534179688 c 0,29,30
 117.536132812 770 117.536132812 770 148.5 770 c 2,31,-1
 165.75 770 l 1,0,-1
57.75 770 m 1,32,-1
 79.900390625 769.010742188 l 2,33,34
 82.7431640625 769.857421875 82.7431640625 769.857421875 85.6533203125 769.857421875 c 0,35,36
 94.509765625 769.857421875 94.509765625 769.857421875 100.029296875 763.635742188 c 0,37,38
 111.545898438 750.654296875 111.545898438 750.654296875 111.545898438 730.966796875 c 0,39,40
 111.545898438 725.803710938 111.545898438 725.803710938 110.491210938 720.934570312 c 0,41,42
 109.086914062 709.866210938 109.086914062 709.866210938 106.599609375 681.905273438 c 0,43,44
 99.6181640625 603.456054688 99.6181640625 603.456054688 95.6650390625 567.870117188 c 0,45,46
 91.7109375 532.284179688 91.7109375 532.284179688 88.5625 522.387695312 c 0,47,48
 84.0048828125 507.671875 84.0048828125 507.671875 72.953125 501.77734375 c 0,49,50
 66.619140625 498.400390625 66.619140625 498.400390625 62.353515625 498.400390625 c 0,51,52
 58.087890625 498.400390625 58.087890625 498.400390625 56.4091796875 498.603515625 c 0,53,54
 47.775390625 499.650390625 47.775390625 499.650390625 39.828125 506.392578125 c 0,55,56
 28.46484375 516.03515625 28.46484375 516.03515625 26.4541015625 534.299804688 c 0,57,58
 9.5361328125 682.807617188 9.5361328125 682.807617188 9.5361328125 732.734375 c 0,59,60
 9.5361328125 745.311523438 9.5361328125 745.311523438 13.7841796875 754.375 c 0,61,62
 21.1083984375 770 21.1083984375 770 39.75 770 c 2,63,-1
 57.75 770 l 1,32,-1
EndSplineSet
EndChar

StartChar: numbersign
Encoding: 35 35 20
Width: 393
Flags: W
LayerCount: 2
Fore
SplineSet
211.973632812 263 m 1,0,1
 214.349609375 277.868164062 214.349609375 277.868164062 216.405273438 289.578125 c 0,2,3
 218.4609375 301.2890625 218.4609375 301.2890625 220.000976562 310.772460938 c 1,4,5
 214.356445312 310.6640625 214.356445312 310.6640625 205.543945312 310.424804688 c 0,6,7
 196.732421875 310.184570312 196.732421875 310.184570312 183.897460938 310.067382812 c 1,8,9
 180.78125 290.546875 180.78125 290.546875 179.197265625 279.752929688 c 0,10,11
 177.61328125 268.958984375 177.61328125 268.958984375 176.670898438 263 c 1,12,-1
 211.973632812 263 l 1,0,1
202.385742188 423.823242188 m 1,13,-1
 236.18359375 423.099609375 l 1,14,15
 239.434570312 448.711914062 239.434570312 448.711914062 243.598632812 482.448242188 c 0,16,17
 247.76171875 516.184570312 247.76171875 516.184570312 256.500976562 583.505859375 c 1,18,-1
 267.611328125 587.950195312 l 2,19,20
 277.735351562 592 277.735351562 592 289.165039062 592 c 0,21,22
 310.122070312 592 310.122070312 592 319.44140625 589.514648438 c 2,23,-1
 336.372070312 585 l 1,24,25
 330.538085938 518.104492188 330.538085938 518.104492188 325.518554688 484.220703125 c 0,26,27
 320.499023438 450.336914062 320.499023438 450.336914062 316.2890625 423 c 1,28,-1
 382.124023438 423 l 1,29,-1
 385.135742188 402.921875 l 1,30,-1
 387.385742188 387.921875 l 1,31,-1
 387.75 385.49609375 l 1,32,-1
 387.75 383 l 1,33,-1
 387.75 369 l 2,34,35
 387.75 359.736328125 387.75 359.736328125 386.90625 348.487304688 c 0,36,37
 385.586914062 330.89453125 385.586914062 330.89453125 378.16015625 319.010742188 c 2,38,-1
 371.780273438 308.802734375 l 1,39,40
 355.302734375 311 355.302734375 311 348 311 c 2,41,-1
 330 311 l 1,42,-1
 298.661132812 311 l 1,43,44
 292.090820312 270.119140625 292.090820312 270.119140625 290.875976562 263 c 1,45,-1
 343.334960938 263 l 1,46,-1
 348.959960938 252.614257812 l 2,47,48
 360.950195312 230.479492188 360.950195312 230.479492188 360.950195312 208.677734375 c 0,49,50
 360.950195312 187.069335938 360.950195312 187.069335938 350.33203125 160.328125 c 2,51,-1
 345.296875 147.645507812 l 1,52,53
 306.145507812 145.375976562 306.145507812 145.375976562 272.745117188 145.069335938 c 1,54,55
 269.752929688 123.599609375 269.752929688 123.599609375 265.998046875 92.7294921875 c 0,56,57
 262.243164062 61.8583984375 262.243164062 61.8583984375 251.3046875 -23 c 1,58,-1
 235.5 -23 l 1,59,-1
 215 -24.3330078125 l 2,60,61
 205.76953125 -24.3330078125 205.76953125 -24.3330078125 171.506835938 -20.8193359375 c 1,62,63
 182.091796875 60.7255859375 182.091796875 60.7255859375 185.913085938 86.3447265625 c 0,64,65
 189.733398438 111.962890625 189.733398438 111.962890625 191.622070312 124.641601562 c 0,66,67
 193.510742188 137.3203125 193.510742188 137.3203125 194.655273438 145 c 1,68,-1
 157.985351562 145 l 1,69,70
 154.536132812 120.252929688 154.536132812 120.252929688 137.515625 -23 c 1,71,-1
 121.5 -23 l 1,72,-1
 100.416992188 -24.3330078125 l 2,73,74
 91.01953125 -24.3330078125 91.01953125 -24.3330078125 56.7568359375 -20.8193359375 c 1,75,76
 67.0625 58.5751953125 67.0625 58.5751953125 70.0830078125 78.96484375 c 0,77,78
 73.103515625 99.353515625 73.103515625 99.353515625 79.9873046875 146.159179688 c 1,79,80
 51.693359375 146.576171875 51.693359375 146.576171875 14.25 149.349609375 c 1,81,-1
 14.25 173 l 2,82,83
 14.25 177.927734375 14.25 177.927734375 12.375 185.427734375 c 0,84,85
 10.5 192.927734375 10.5 192.927734375 10.5 204.176757812 c 0,86,87
 10.5 215.42578125 10.5 215.42578125 12.5546875 225.2890625 c 0,88,89
 14.609375 235.151367188 14.609375 235.151367188 15.189453125 240.560546875 c 2,90,-1
 17.486328125 262 l 1,91,-1
 33.75 262 l 2,92,93
 47.076171875 262 47.076171875 262 64.41796875 262.420898438 c 0,94,95
 81.7607421875 262.840820312 81.7607421875 262.840820312 97.9169921875 262.950195312 c 1,96,97
 100.170898438 277.48828125 100.170898438 277.48828125 102.040039062 288.952148438 c 0,98,99
 103.909179688 300.416992188 103.909179688 300.416992188 105.39453125 310 c 1,100,-1
 57.30078125 310 l 1,101,-1
 51.74609375 321.444335938 l 2,102,103
 39.6962890625 346.275390625 39.6962890625 346.275390625 39.6962890625 366.340820312 c 0,104,105
 39.6962890625 386.40625 39.6962890625 386.40625 51.345703125 412.69140625 c 2,106,-1
 56.80078125 425 l 1,107,-1
 67.5 425 l 1,108,-1
 121.5 424.10546875 l 1,109,110
 133.201171875 513.514648438 133.201171875 513.514648438 141.591796875 583.442382812 c 1,111,-1
 152.861328125 587.950195312 l 2,112,113
 162.985351562 592 162.985351562 592 174.809570312 592 c 0,114,115
 195.372070312 592 195.372070312 592 204.69140625 589.514648438 c 2,116,-1
 221.622070312 585 l 1,117,118
 215.803710938 518.278320312 215.803710938 518.278320312 211.129882812 484.213867188 c 0,119,120
 206.456054688 450.149414062 206.456054688 450.149414062 202.385742188 423.823242188 c 1,13,-1
EndSplineSet
EndChar

StartChar: dollar
Encoding: 36 36 21
Width: 474
Flags: W
LayerCount: 2
Fore
SplineSet
194.344726562 688.494140625 m 1,0,1
 175.327148438 680.806640625 175.327148438 680.806640625 160.009765625 665.138671875 c 0,2,3
 137.45703125 642.0703125 137.45703125 642.0703125 137.45703125 602.600585938 c 128,-1,4
 137.45703125 563.130859375 137.45703125 563.130859375 160.893554688 536.40625 c 0,5,6
 175.619140625 519.614257812 175.619140625 519.614257812 193.51953125 504.892578125 c 1,7,8
 193.614257812 555.803710938 193.614257812 555.803710938 193.934570312 601.43359375 c 128,-1,9
 194.25390625 647.064453125 194.25390625 647.064453125 194.344726562 688.494140625 c 1,0,1
333.552734375 153.247070312 m 128,-1,11
 333.552734375 200.07421875 333.552734375 200.07421875 308.848632812 229.487304688 c 0,12,13
 293.522460938 247.733398438 293.522460938 247.733398438 273.891601562 263.928710938 c 1,14,-1
 273.891601562 49.34765625 l 1,15,16
 295.169921875 58.712890625 295.169921875 58.712890625 310.779296875 78.1142578125 c 0,17,10
 333.552734375 106.420898438 333.552734375 106.420898438 333.552734375 153.247070312 c 128,-1,11
273.891601562 763.9453125 m 1,18,19
 273.891601562 737.884765625 273.891601562 737.884765625 273.891601562 754.916992188 c 1,20,21
 297.06640625 748.323242188 297.06640625 748.323242188 332.028320312 729.041015625 c 1,22,23
 337.990234375 742.139648438 337.990234375 742.139648438 347.359375 753.166992188 c 0,24,25
 359.083984375 769.6171875 359.083984375 769.6171875 378.75 769.6171875 c 0,26,27
 390.963867188 769.6171875 390.963867188 769.6171875 398.36328125 757.34765625 c 128,-1,28
 405.75 745.095703125 405.75 745.095703125 405.75 712.899414062 c 0,29,30
 405.75 698.508789062 405.75 698.508789062 404.631835938 683.939453125 c 128,-1,31
 403.512695312 669.370117188 403.512695312 669.370117188 403.581054688 659.709960938 c 128,-1,32
 403.650390625 650.048828125 403.650390625 650.048828125 403.650390625 624.407226562 c 128,-1,33
 403.650390625 598.764648438 403.650390625 598.764648438 401.09765625 555.338867188 c 1,34,35
 395.043945312 521.002929688 395.043945312 521.002929688 373.5 521.002929688 c 0,36,37
 368.177734375 521.002929688 368.177734375 521.002929688 365.24609375 521.926757812 c 128,-1,38
 362.315429688 522.849609375 362.315429688 522.849609375 362.05859375 522.89453125 c 0,39,40
 345.697265625 523.036132812 345.697265625 523.036132812 335.4453125 544.487304688 c 0,41,42
 330.184570312 555.495117188 330.184570312 555.495117188 327.155273438 569.233398438 c 128,-1,43
 324.124023438 582.970703125 324.124023438 582.970703125 321.786132812 594.388671875 c 128,-1,44
 319.447265625 605.807617188 319.447265625 605.807617188 315.078125 613.424804688 c 1,45,46
 304.041015625 641.46875 304.041015625 641.46875 285.22265625 656.9921875 c 0,47,48
 279.106445312 662.037109375 279.106445312 662.037109375 272.98828125 665.815429688 c 1,49,50
 272.98828125 546.7421875 272.98828125 546.7421875 272.98828125 448.642578125 c 1,51,52
 293.840820312 433.784179688 293.840820312 433.784179688 314.692382812 426.827148438 c 2,53,54
 342.756835938 412.146484375 342.756835938 412.146484375 362.694335938 397.153320312 c 1,55,56
 399.177734375 366.140625 399.177734375 366.140625 419.294921875 317.54296875 c 128,-1,57
 439.412109375 268.9453125 439.412109375 268.9453125 440.24609375 214.241210938 c 1,58,59
 440.24609375 222.296875 440.24609375 222.296875 440.24609375 213.779296875 c 2,60,61
 440.24609375 107.63671875 440.24609375 107.63671875 392.439453125 46.8427734375 c 0,62,63
 350.556640625 -6.4140625 350.556640625 -6.4140625 272.98828125 -21.2861328125 c 1,64,65
 272.98828125 -6.0869140625 272.98828125 -6.0869140625 272.98828125 -33.890625 c 1,66,67
 272.98828125 -19.193359375 272.98828125 -19.193359375 272.98828125 -49.015625 c 2,68,69
 272.98828125 -58.275390625 272.98828125 -58.275390625 271.857421875 -66.560546875 c 2,70,71
 270.473632812 -52.2802734375 270.473632812 -52.2802734375 269.08984375 -88 c 1,72,-1
 249.49609375 -88 l 1,73,-1
 230.522460938 -88 l 2,74,75
 216 -88 216 -88 209.830078125 -85.7236328125 c 2,76,77
 203.375 -58.3427734375 203.375 -58.3427734375 196.921875 -80.9609375 c 1,78,79
 195.8046875 -48.5478515625 195.8046875 -48.5478515625 194.688476562 -66.1337890625 c 2,80,81
 193.4765625 -58.5234375 193.4765625 -58.5234375 193.4765625 -49.9248046875 c 2,82,83
 193.4765625 -19.990234375 193.4765625 -19.990234375 193.4765625 -34.7890625 c 1,84,85
 193.4765625 -8.3212890625 193.4765625 -8.3212890625 193.4765625 -25.2548828125 c 1,86,87
 175.942382812 -22.1435546875 175.942382812 -22.1435546875 154.870117188 -13.4765625 c 128,-1,88
 133.796875 -4.80859375 133.796875 -4.80859375 124.610351562 -0.8779296875 c 0,89,90
 116.509765625 3.0517578125 116.509765625 3.0517578125 114.295898438 3.0517578125 c 128,-1,91
 112.08203125 3.0517578125 112.08203125 3.0517578125 111.741210938 3.0263671875 c 0,92,93
 109.333984375 -0.6181640625 109.333984375 -0.6181640625 107.15234375 -5.5703125 c 0,94,95
 101.950195312 -17.3818359375 101.950195312 -17.3818359375 94.501953125 -26.10546875 c 0,96,97
 83.857421875 -38.5732421875 83.857421875 -38.5732421875 64.5 -38.5732421875 c 0,98,99
 52.10546875 -38.5732421875 52.10546875 -38.5732421875 46.345703125 -28.0126953125 c 128,-1,100
 40.5859375 -17.453125 40.5859375 -17.453125 39.04296875 -4.802734375 c 128,-1,101
 37.5 7.8466796875 37.5 7.8466796875 37.5 25.328125 c 128,-1,102
 37.5 42.8095703125 37.5 42.8095703125 38.625 60.310546875 c 128,-1,103
 39.75 77.8115234375 39.75 77.8115234375 39.75 95.9169921875 c 0,104,105
 39.75 149.407226562 39.75 149.407226562 42.115234375 181.646484375 c 0,106,107
 43.7587890625 200.299804688 43.7587890625 200.299804688 52.505859375 208.575195312 c 128,-1,108
 61.25390625 216.850585938 61.25390625 216.850585938 70.5 216.850585938 c 0,109,110
 75.8955078125 216.850585938 75.8955078125 216.850585938 81.4072265625 214.954101562 c 1,111,112
 91.2099609375 214.74609375 91.2099609375 214.74609375 98.5595703125 206.537109375 c 0,113,114
 107.618164062 196.420898438 107.618164062 196.420898438 112.771484375 168.259765625 c 0,115,116
 118.038085938 139.470703125 118.038085938 139.470703125 123.7890625 122.896484375 c 0,117,118
 134.654296875 94.0361328125 134.654296875 94.0361328125 160.428710938 77.6923828125 c 0,119,120
 176.638671875 67.4130859375 176.638671875 67.4130859375 193.4765625 62.396484375 c 1,121,122
 193.4765625 200.9296875 193.4765625 200.9296875 193.4765625 319.944335938 c 1,123,124
 166.803710938 334.903320312 166.803710938 334.903320312 136.875976562 352.80859375 c 0,125,126
 110.42578125 370.713867188 110.42578125 370.713867188 87.818359375 396.637695312 c 128,-1,127
 65.2099609375 422.561523438 65.2099609375 422.561523438 50.23046875 458.192382812 c 128,-1,128
 35.25 493.823242188 35.25 493.823242188 35.25 541.676757812 c 128,-1,129
 35.25 589.530273438 35.25 589.530273438 47.931640625 628.451171875 c 128,-1,130
 60.611328125 667.373046875 60.611328125 667.373046875 83.123046875 695.23046875 c 0,131,132
 122.458984375 743.912109375 122.458984375 743.912109375 194.380859375 756.927734375 c 1,133,134
 194.380859375 753.193359375 194.380859375 753.193359375 194.380859375 792.97265625 c 1,135,136
 194.380859375 778.30859375 194.380859375 778.30859375 194.380859375 810.024414062 c 1,137,138
 218.717773438 819.002929688 218.717773438 819.002929688 224.197265625 819 c 2,139,-1
 232.329101562 819 l 2,140,141
 237.7265625 819 237.7265625 819 244.47265625 818.42578125 c 0,142,143
 258.649414062 817.21875 258.649414062 817.21875 268.17578125 806.673828125 c 2,144,145
 272.2890625 777.123046875 272.2890625 777.123046875 276.400390625 797.571289062 c 1,146,147
 273.891601562 781.822265625 273.891601562 781.822265625 273.891601562 777.1796875 c 2,148,149
 273.891601562 748.407226562 273.891601562 748.407226562 273.891601562 763.9453125 c 1,18,19
361.997070312 532.009765625 m 1,150,-1
 361.997070312 532.009765625 l 1,150,-1
EndSplineSet
EndChar

StartChar: percent
Encoding: 37 37 22
Width: 673
Flags: W
LayerCount: 2
Fore
SplineSet
528.828125 214.287109375 m 128,-1,1
 512.321289062 233 512.321289062 233 489.352539062 233 c 0,2,3
 471.73046875 233 471.73046875 233 455.317382812 215.634765625 c 128,-1,4
 438.904296875 198.268554688 438.904296875 198.268554688 438.254882812 167.796875 c 2,5,6
 438.249023438 178.029296875 438.249023438 178.029296875 438.244140625 167.440429688 c 2,7,8
 438.143554688 164.782226562 438.143554688 164.782226562 438.143554688 162.23046875 c 0,9,10
 438.143554688 131.678710938 438.143554688 131.678710938 453.178710938 116.338867188 c 128,-1,11
 468.213867188 101 468.213867188 101 489.748046875 101 c 128,-1,12
 511.283203125 101 511.283203125 101 527.994140625 115.91796875 c 128,-1,13
 544.626953125 130.8359375 544.626953125 130.8359375 545.25 161.758789062 c 0,14,0
 545.201171875 195.573242188 545.201171875 195.573242188 528.828125 214.287109375 c 128,-1,1
218.975585938 604.287109375 m 128,-1,16
 202.46875 623 202.46875 623 179.5 623 c 0,17,18
 161.985351562 623 161.985351562 623 145.51953125 605.267578125 c 128,-1,19
 129.053710938 587.53515625 129.053710938 587.53515625 128.40234375 556.956054688 c 2,20,21
 128.396484375 546.303710938 128.396484375 546.303710938 128.391601562 556.599609375 c 2,22,23
 128.291015625 553.94140625 128.291015625 553.94140625 128.291015625 551.391601562 c 0,24,25
 128.291015625 520.984375 128.291015625 520.984375 143.268554688 505.9921875 c 128,-1,26
 158.24609375 491 158.24609375 491 179.838867188 491 c 128,-1,27
 201.430664062 491 201.430664062 491 218.141601562 505.91796875 c 128,-1,28
 234.8515625 520.8359375 234.8515625 520.8359375 235.537109375 551.758789062 c 0,29,15
 235.483398438 585.573242188 235.483398438 585.573242188 218.975585938 604.287109375 c 128,-1,16
503.540039062 740 m 1,30,-1
 514.07421875 740 l 2,31,32
 529.075195312 740 529.075195312 740 548.083984375 725.181640625 c 0,33,34
 560.716796875 714.592773438 560.716796875 714.592773438 568.458984375 708.962890625 c 2,35,36
 577.510742188 727.379882812 577.510742188 727.379882812 586.5625 695.795898438 c 1,37,38
 580.809570312 709.420898438 580.809570312 709.420898438 575.055664062 673.046875 c 2,39,40
 552.950195312 629.341796875 552.950195312 629.341796875 527.645507812 588.458007812 c 0,41,42
 501.440429688 547.57421875 501.440429688 547.57421875 474.19140625 506.489257812 c 0,43,44
 395.068359375 383.47265625 395.068359375 383.47265625 316.543945312 263.739257812 c 128,-1,45
 238.014648438 143.998046875 238.014648438 143.998046875 154.779296875 1.46875 c 1,46,47
 147.250976562 30.123046875 147.250976562 30.123046875 139.720703125 8.77734375 c 2,48,49
 133.373046875 11.859375 133.373046875 11.859375 122.822265625 21.1923828125 c 0,50,51
 112.875 30.5263671875 112.875 30.5263671875 98.095703125 37.3798828125 c 2,52,53
 85.9990234375 67.990234375 85.9990234375 67.990234375 73.90234375 48.6005859375 c 1,54,55
 187.89453125 242.24609375 187.89453125 242.24609375 292.498046875 401.663085938 c 128,-1,56
 397.108398438 561.090820312 397.108398438 561.090820312 503.540039062 740 c 1,30,-1
548.177734375 331.1171875 m 0,57,58
 573.607421875 318.271484375 573.607421875 318.271484375 593.073242188 295.171875 c 128,-1,59
 612.561523438 272.045898438 612.561523438 272.045898438 624.28125 240.244140625 c 128,-1,60
 636 208.442382812 636 208.442382812 636 171.588867188 c 128,-1,61
 636 134.735351562 636 134.735351562 625.743164062 101.829101562 c 128,-1,62
 615.435546875 68.7607421875 615.435546875 68.7607421875 596.822265625 44.03515625 c 128,-1,63
 578.15625 19.236328125 578.15625 19.236328125 552.499023438 4.6552734375 c 0,64,65
 525.163085938 -11 525.163085938 -11 491 -11 c 128,-1,66
 456.896484375 -11 456.896484375 -11 427.91796875 1.6826171875 c 0,67,68
 398.940429688 13.5009765625 398.940429688 13.5009765625 377.958984375 37.2294921875 c 0,69,70
 357.127929688 60.7861328125 357.127929688 60.7861328125 346.189453125 93.05859375 c 128,-1,71
 335.25 125.330078125 335.25 125.330078125 335.25 163.170898438 c 128,-1,72
 335.25 201.01171875 335.25 201.01171875 346.103515625 233.56640625 c 128,-1,73
 356.958007812 266.12109375 356.958007812 266.12109375 377.47265625 290.939453125 c 128,-1,74
 398.131835938 315.932617188 398.131835938 315.932617188 426.787109375 329.975585938 c 128,-1,75
 455.40625 344 455.40625 344 487.99609375 344 c 128,-1,76
 520.584960938 344 520.584960938 344 548.177734375 331.1171875 c 0,57,58
238.75390625 720.16796875 m 0,77,78
 266.694335938 707.315429688 266.694335938 707.315429688 288.083984375 684.202148438 c 128,-1,79
 309.545898438 661.010742188 309.545898438 661.010742188 322.3984375 628.712890625 c 128,-1,80
 335.25 596.416015625 335.25 596.416015625 335.25 559.545898438 c 128,-1,81
 335.25 522.676757812 335.25 522.676757812 323.939453125 490.165039062 c 128,-1,82
 312.61328125 457.614257812 312.61328125 457.614257812 292.203125 432.922851562 c 128,-1,83
 271.794921875 408.233398438 271.794921875 408.233398438 243.627929688 393.1171875 c 128,-1,84
 215.4609375 378 215.4609375 378 181.147460938 378 c 128,-1,85
 146.833984375 378 146.833984375 378 119.048828125 390.3671875 c 0,86,87
 93.0771484375 402.734375 93.0771484375 402.734375 74.119140625 426.28515625 c 128,-1,88
 55.3017578125 449.661132812 55.3017578125 449.661132812 44.8740234375 481.504882812 c 128,-1,89
 34.5 513.184570312 34.5 513.184570312 34.5 551.189453125 c 128,-1,90
 34.5 589.193359375 34.5 589.193359375 44.7568359375 622.109375 c 128,-1,91
 55.064453125 655.188476562 55.064453125 655.188476562 73.7509765625 680.020507812 c 128,-1,92
 92.4375 704.853515625 92.4375 704.853515625 118.078125 718.889648438 c 0,93,94
 145.48828125 734 145.48828125 734 178.110351562 734 c 128,-1,95
 210.732421875 734 210.732421875 734 238.75390625 720.16796875 c 0,77,78
EndSplineSet
EndChar

StartChar: ampersand
Encoding: 38 38 23
Width: 608
Flags: W
LayerCount: 2
Fore
SplineSet
249.19921875 459.565429688 m 0,0,1
 264.484375 473.533203125 264.484375 473.533203125 272.8671875 497.084960938 c 0,2,3
 281.25 520.637695312 281.25 520.637695312 281.25 549.404296875 c 0,4,5
 281.25 578.170898438 281.25 578.170898438 269.657226562 597.30859375 c 0,6,7
 259.545898438 614 259.545898438 614 239.2109375 614 c 0,8,9
 218.875976562 614 218.875976562 614 207.688476562 598.065429688 c 0,10,11
 196.5 582.130859375 196.5 582.130859375 196.5 556 c 0,12,13
 196.5 539.627929688 196.5 539.627929688 201.702148438 524.984375 c 0,14,15
 204.041992188 517.184570312 204.041992188 517.184570312 209.982421875 506.345703125 c 0,16,17
 219.807617188 488.419921875 219.807617188 488.419921875 241.923828125 463.649414062 c 0,18,19
 244.627929688 460.62109375 244.627929688 460.62109375 247.1953125 458.09375 c 0,20,21
 248.186523438 458.854492188 248.186523438 458.854492188 249.19921875 459.565429688 c 0,0,1
131.25 198 m 0,22,23
 131.25 143.583007812 131.25 143.583007812 159.55859375 107.592773438 c 0,24,25
 173.227539062 90.2158203125 173.227539062 90.2158203125 190.916015625 80.1083984375 c 0,26,27
 208.60546875 70 208.60546875 70 229.5 70 c 0,28,29
 261.163085938 70 261.163085938 70 284.124023438 87.931640625 c 0,30,31
 307.083984375 105.862304688 307.083984375 105.862304688 330.14453125 137.541015625 c 0,32,33
 334.081054688 142.7890625 334.081054688 142.7890625 336.283203125 147.327148438 c 0,34,35
 338.485351562 151.866210938 338.485351562 151.866210938 339.887695312 154.7265625 c 0,36,37
 337.625 159.51953125 337.625 159.51953125 331.982421875 168.069335938 c 0,38,39
 321.313476562 184.234375 321.313476562 184.234375 316.8828125 191.348632812 c 0,40,41
 267.182617188 273.734375 267.182617188 273.734375 199.6171875 336.639648438 c 1,42,43
 171.653320312 319.208007812 171.653320312 319.208007812 152.61328125 285.485351562 c 0,44,45
 131.25 247.646484375 131.25 247.646484375 131.25 198 c 0,22,23
141.65625 640.211914062 m 0,46,47
 158.442382812 663.770507812 158.442382812 663.770507812 181.819335938 677.885742188 c 0,48,49
 205.196289062 692 205.196289062 692 231.911132812 692 c 0,50,51
 289.120117188 692 289.120117188 692 325.326171875 661.6875 c 0,52,53
 345.41015625 644.873046875 345.41015625 644.873046875 357.580078125 616.7890625 c 0,54,55
 369.75 588.704101562 369.75 588.704101562 369.75 549 c 0,56,57
 369.75 517.713867188 369.75 517.713867188 359.702148438 492.74609375 c 0,58,59
 349.654296875 467.779296875 349.654296875 467.779296875 335.178710938 449.044921875 c 0,60,61
 318.731445312 427.760742188 318.731445312 427.760742188 297.051757812 410.186523438 c 1,62,63
 316.083984375 390.903320312 316.083984375 390.903320312 332.461914062 369.06640625 c 0,64,65
 355.227539062 338.711914062 355.227539062 338.711914062 391.697265625 283.513671875 c 0,66,67
 397.794921875 274.28515625 397.794921875 274.28515625 403.671875 265.448242188 c 1,68,69
 409.0390625 274.328125 409.0390625 274.328125 416.436523438 285.770507812 c 0,70,71
 444 328.401367188 444 328.401367188 444 357 c 0,72,73
 444 364.056640625 444 364.056640625 443.200195312 369.254882812 c 1,74,75
 438.888671875 371.454101562 438.888671875 371.454101562 434.8828125 374.125 c 0,76,77
 420.75 383.546875 420.75 383.546875 420.75 412 c 0,78,79
 420.75 422.096679688 420.75 422.096679688 425.78515625 430.489257812 c 0,80,81
 430.8203125 438.880859375 430.8203125 438.880859375 439.999023438 441.940429688 c 0,82,83
 449.177734375 445 449.177734375 445 456.75 445 c 2,84,-1
 507 445 l 2,85,86
 523.387695312 445 523.387695312 445 539.887695312 447 c 0,87,88
 556.387695312 449 556.387695312 449 575.25 449 c 0,89,90
 585.657226562 449 585.657226562 449 594.234375 440.995117188 c 0,91,92
 606 430.013671875 606 430.013671875 606 410.500976562 c 0,93,94
 606 390.989257812 606 390.989257812 595.200195312 379.46875 c 0,95,96
 583.526367188 367.016601562 583.526367188 367.016601562 564.741210938 365.543945312 c 0,97,98
 557.809570312 365 557.809570312 365 553.27734375 365 c 0,99,100
 548.744140625 365 548.744140625 365 539.581054688 355.374023438 c 0,101,102
 530.41796875 345.748046875 530.41796875 345.748046875 519.760742188 329.705078125 c 0,103,104
 509.103515625 313.662109375 509.103515625 313.662109375 500.696289062 297.091796875 c 0,105,106
 481.279296875 258.819335938 481.279296875 258.819335938 441.912109375 192.952148438 c 1,107,108
 468.896484375 142.852539062 468.896484375 142.852539062 494.717773438 112.166992188 c 0,109,110
 510.314453125 93.6318359375 510.314453125 93.6318359375 527.189453125 81.515625 c 0,111,112
 544.064453125 69.400390625 544.064453125 69.400390625 566.462890625 66.5107421875 c 1,113,114
 573.354492188 62.572265625 573.354492188 62.572265625 580.747070312 59.6728515625 c 0,115,116
 588.138671875 56.7744140625 588.138671875 56.7744140625 594.88671875 50.2314453125 c 0,117,118
 607.150390625 38.33984375 607.150390625 38.33984375 607.150390625 18.048828125 c 0,119,120
 607.150390625 3.98828125 607.150390625 3.98828125 599.330078125 -12.3955078125 c 2,121,-1
 595.740234375 -19.9169921875 l 1,122,123
 583.465820312 -25.373046875 583.465820312 -25.373046875 575.063476562 -27.1416015625 c 0,124,125
 566.84375 -28.8720703125 566.84375 -28.8720703125 550.28515625 -29.9365234375 c 0,126,127
 533.725585938 -31 533.725585938 -31 527.25 -31 c 0,128,129
 486.258789062 -31 486.258789062 -31 459.377929688 -13.9326171875 c 0,130,131
 432.49609375 3.134765625 432.49609375 3.134765625 414.663085938 25.806640625 c 0,132,133
 396.830078125 48.478515625 396.830078125 48.478515625 383.826171875 72.318359375 c 0,134,135
 380.40234375 78.5966796875 380.40234375 78.5966796875 376.977539062 84.1552734375 c 1,136,137
 347.724609375 34.9375 347.724609375 34.9375 302.0859375 -7.517578125 c 0,138,139
 284.112304688 -24.236328125 284.112304688 -24.236328125 267.71875 -32.3466796875 c 0,140,141
 234.655273438 -49.9072265625 234.655273438 -49.9072265625 193.881835938 -50.9951171875 c 2,142,-1
 193.690429688 -51 l 2,143,144
 166.372070312 -51 166.372070312 -51 143.762695312 -42.2060546875 c 0,145,146
 117.625976562 -34.1982421875 117.625976562 -34.1982421875 95.8466796875 -15.408203125 c 0,147,148
 53.1259765625 21.44921875 53.1259765625 21.44921875 35.5517578125 88.2294921875 c 0,149,150
 27 120.727539062 27 120.727539062 27 157 c 2,151,-1
 27 176 l 2,152,153
 27 237.301757812 27 237.301757812 53.1142578125 283.913085938 c 0,154,155
 79.2275390625 330.525390625 79.2275390625 330.525390625 114.333007812 361.004882812 c 0,156,157
 128.09375 372.875976562 128.09375 372.875976562 138.975585938 379.815429688 c 0,158,159
 149.857421875 386.754882812 149.857421875 386.754882812 153.002929688 389.0703125 c 1,160,161
 137.225585938 410.310546875 137.225585938 410.310546875 123.936523438 438.833984375 c 0,162,163
 105.75 477.868164062 105.75 477.868164062 105.75 516.430664062 c 0,164,165
 105.75 554.993164062 105.75 554.993164062 115.376953125 585.916992188 c 0,166,167
 125.004882812 616.840820312 125.004882812 616.840820312 141.65625 640.211914062 c 0,46,47
EndSplineSet
EndChar

StartChar: quotesingle
Encoding: 39 39 24
Width: 119
Flags: W
LayerCount: 2
Fore
SplineSet
57.75 770 m 1,0,-1
 79.900390625 769.010742188 l 2,1,2
 82.7431640625 769.857421875 82.7431640625 769.857421875 85.6533203125 769.857421875 c 0,3,4
 94.509765625 769.857421875 94.509765625 769.857421875 100.029296875 763.635742188 c 0,5,6
 111.545898438 750.654296875 111.545898438 750.654296875 111.545898438 730.966796875 c 0,7,8
 111.545898438 725.803710938 111.545898438 725.803710938 110.491210938 720.934570312 c 0,9,10
 109.086914062 709.866210938 109.086914062 709.866210938 106.599609375 681.905273438 c 0,11,12
 99.6181640625 603.456054688 99.6181640625 603.456054688 95.6650390625 567.870117188 c 0,13,14
 91.7109375 532.284179688 91.7109375 532.284179688 88.5625 522.387695312 c 0,15,16
 84.0048828125 507.671875 84.0048828125 507.671875 72.953125 501.77734375 c 0,17,18
 66.619140625 498.400390625 66.619140625 498.400390625 62.353515625 498.400390625 c 0,19,20
 58.087890625 498.400390625 58.087890625 498.400390625 56.4091796875 498.603515625 c 0,21,22
 47.775390625 499.650390625 47.775390625 499.650390625 39.828125 506.392578125 c 0,23,24
 28.46484375 516.03515625 28.46484375 516.03515625 26.4541015625 534.299804688 c 0,25,26
 9.5361328125 682.807617188 9.5361328125 682.807617188 9.5361328125 732.734375 c 0,27,28
 9.5361328125 745.311523438 9.5361328125 745.311523438 13.7841796875 754.375 c 0,29,30
 21.1083984375 770 21.1083984375 770 39.75 770 c 2,31,-1
 57.75 770 l 1,0,-1
EndSplineSet
EndChar

StartChar: parenleft
Encoding: 40 40 25
Width: 270
Flags: W
LayerCount: 2
Fore
SplineSet
121.5 269 m 0,0,1
 121.5 151.172851562 121.5 151.172851562 149.74609375 41.0869140625 c 0,2,3
 158.87109375 5.51953125 158.87109375 5.51953125 172.254882812 -24.533203125 c 2,4,-1
 207.25 -107.819335938 l 2,5,6
 223.250976562 -145.951171875 223.250976562 -145.951171875 249.15234375 -175.689453125 c 1,7,8
 257.924804688 -190.727539062 257.924804688 -190.727539062 257.924804688 -206.334960938 c 0,9,10
 257.924804688 -212.869140625 257.924804688 -212.869140625 256.53125 -219.372070312 c 0,11,12
 253.307617188 -234.416992188 253.307617188 -234.416992188 244.086914062 -242.124023438 c 0,13,14
 237.056640625 -248 237.056640625 -248 228.948242188 -248 c 0,15,16
 214.501953125 -248 214.501953125 -248 198.432617188 -230.267578125 c 0,17,18
 186.881835938 -217.521484375 186.881835938 -217.521484375 181.602539062 -210.483398438 c 0,19,20
 109.711914062 -112.568359375 109.711914062 -112.568359375 67.6064453125 2.833984375 c 0,21,22
 25.5 118.236328125 25.5 118.236328125 25.5 259 c 0,23,24
 25.5 378.903320312 25.5 378.903320312 62.8544921875 502.33984375 c 0,25,26
 99.0478515625 621.935546875 99.0478515625 621.935546875 163.716796875 710.612304688 c 0,27,28
 175.541992188 729.887695312 175.541992188 729.887695312 190.638671875 746.357421875 c 0,29,30
 199.197265625 755.693359375 199.197265625 755.693359375 208.681640625 765.178710938 c 0,31,32
 218.166992188 774.663085938 218.166992188 774.663085938 227.150390625 776.659179688 c 2,33,-1
 233.844726562 778.147460938 l 1,34,-1
 239.677734375 773.610351562 l 2,35,36
 253.2109375 763.084960938 253.2109375 763.084960938 260.22265625 745.9453125 c 2,37,-1
 263.310546875 738.395507812 l 1,38,-1
 262.244140625 729.866210938 l 2,39,40
 260.430664062 715.360351562 260.430664062 715.360351562 250.552734375 703.720703125 c 0,41,42
 224.341796875 668.68359375 224.341796875 668.68359375 207.440429688 635.819335938 c 0,43,44
 165.545898438 554.920898438 165.545898438 554.920898438 143.515625 461.501953125 c 0,45,46
 121.5 368.145507812 121.5 368.145507812 121.5 269 c 0,0,1
EndSplineSet
EndChar

StartChar: parenright
Encoding: 41 41 26
Width: 270
Flags: W
LayerCount: 2
Fore
SplineSet
241.5 269 m 0,0,1
 241.5 176.172851562 241.5 176.172851562 220.483398438 86.3984375 c 0,2,3
 193.393554688 -29.3203125 193.393554688 -29.3203125 141.923828125 -123.681640625 c 0,4,5
 114.947265625 -173.138671875 114.947265625 -173.138671875 83.4287109375 -211.0625 c 0,6,7
 66.5439453125 -231.379882812 66.5439453125 -231.379882812 49.0322265625 -244.721679688 c 2,8,-1
 42.2607421875 -249.881835938 l 1,9,-1
 34.7275390625 -247.091796875 l 2,10,11
 24.82421875 -243.423828125 24.82421875 -243.423828125 17.7783203125 -235.536132812 c 0,12,13
 8.1962890625 -224.80859375 8.1962890625 -224.80859375 5.05859375 -208.07421875 c 2,14,-1
 2.720703125 -195.608398438 l 1,15,16
 34.130859375 -146.337890625 34.130859375 -146.337890625 57.4677734375 -105.498046875 c 0,17,18
 115.373046875 -4.1630859375 115.373046875 -4.1630859375 134.272460938 116.143554688 c 0,19,20
 145.5 187.610351562 145.5 187.610351562 145.5 262 c 0,21,22
 145.5 419.91796875 145.5 419.91796875 100.314453125 551.62109375 c 0,23,24
 84.9638671875 596.364257812 84.9638671875 596.364257812 64.2001953125 634.549804688 c 0,25,26
 43.4365234375 672.735351562 43.4365234375 672.735351562 31.4423828125 688.729492188 c 0,27,28
 19.447265625 704.72265625 19.447265625 704.72265625 11.662109375 718.994140625 c 1,29,30
 8.6474609375 727.034179688 8.6474609375 727.034179688 8.6474609375 734.000976562 c 0,31,32
 8.6474609375 746.197265625 8.6474609375 746.197265625 15.9150390625 759.614257812 c 0,33,34
 26.4150390625 779 26.4150390625 779 39.75 779 c 0,35,36
 51.333984375 779 51.333984375 779 68.2421875 760.212890625 c 0,37,38
 72.6767578125 755.28515625 72.6767578125 755.28515625 77.1328125 750.423828125 c 0,39,40
 81.58984375 745.5625 81.58984375 745.5625 84.505859375 741.673828125 c 0,41,42
 156.5390625 645.62890625 156.5390625 645.62890625 199.01953125 527.15234375 c 0,43,44
 241.5 408.674804688 241.5 408.674804688 241.5 269 c 0,0,1
EndSplineSet
EndChar

StartChar: asterisk
Encoding: 42 42 27
Width: 399
Flags: W
LayerCount: 2
Fore
SplineSet
4.22265625 553.385742188 m 0,0,1
 1.25 560.520507812 1.25 560.520507812 1.25 569.8125 c 0,2,3
 1.25 580.240234375 1.25 580.240234375 9.09375 601.15625 c 0,4,5
 9.6259765625 602.575195312 9.6259765625 602.575195312 10.30859375 605.306640625 c 0,6,7
 10.9912109375 608.038085938 10.9912109375 608.038085938 12.52734375 612.64453125 c 0,8,9
 14.0625 617.250976562 14.0625 617.250976562 17.015625 626.666015625 c 0,10,11
 18.0439453125 634.393554688 18.0439453125 634.393554688 21.1455078125 640.659179688 c 0,12,13
 28.244140625 655 28.244140625 655 40.76171875 655 c 0,14,15
 53.2802734375 655 53.2802734375 655 62.73828125 645.28515625 c 0,16,17
 69.33203125 639.591796875 69.33203125 639.591796875 87.6123046875 626.209960938 c 0,18,19
 127.900390625 596.71875 127.900390625 596.71875 156.74609375 573.805664062 c 0,20,21
 161.8671875 569.737304688 161.8671875 569.737304688 166.258789062 566.150390625 c 1,22,23
 164.564453125 580.80859375 164.564453125 580.80859375 160.315429688 617.412109375 c 0,24,25
 152.26953125 686.736328125 152.26953125 686.736328125 149.915039062 730.672851562 c 0,26,27
 151.291015625 745.350585938 151.291015625 745.350585938 154.5 753.90625 c 0,28,29
 161.66015625 773 161.66015625 773 182.25 773 c 2,30,-1
 195.75 773 l 2,31,32
 199.872070312 773 199.872070312 773 205.44140625 771.514648438 c 2,33,-1
 205.517578125 771.499023438 l 2,34,35
 207.453125 771.1015625 207.453125 771.1015625 212.879882812 771.012695312 c 0,36,37
 216.202148438 771.444335938 216.202148438 771.444335938 217.27734375 771.444335938 c 0,38,39
 224.130859375 771.444335938 224.130859375 771.444335938 230.686523438 766.58203125 c 0,40,41
 237.2421875 761.719726562 237.2421875 761.719726562 240.420898438 751.830078125 c 0,42,43
 243.599609375 741.940429688 243.599609375 741.940429688 243.599609375 734.969726562 c 0,44,45
 243.599609375 727.998046875 243.599609375 727.998046875 242.5 722.958984375 c 0,46,47
 241.189453125 712.0390625 241.189453125 712.0390625 239.431640625 684.381835938 c 0,48,49
 234.528320312 607.247070312 234.528320312 607.247070312 230.770507812 569.180664062 c 1,50,51
 266.73046875 597.131835938 266.73046875 597.131835938 298.728515625 620.4765625 c 0,52,53
 331.091796875 644.087890625 331.091796875 644.087890625 338.001953125 650.998046875 c 0,54,55
 346.630859375 655.599609375 346.630859375 655.599609375 354.209960938 655.599609375 c 0,56,57
 368.7109375 655.599609375 368.7109375 655.599609375 376.049804688 641.663085938 c 0,58,59
 379.069335938 635.928710938 379.069335938 635.928710938 380.258789062 628.870117188 c 0,60,61
 383.247070312 620.83203125 383.247070312 620.83203125 384.954101562 615.82421875 c 0,62,63
 386.686523438 610.744140625 386.686523438 610.744140625 388.961914062 604.67578125 c 0,64,65
 391.237304688 598.608398438 391.237304688 598.608398438 393.53515625 591.4765625 c 0,66,67
 397.456054688 581.115234375 397.456054688 581.115234375 397.456054688 571.524414062 c 0,68,69
 397.456054688 571.41796875 397.456054688 571.41796875 397.456054688 571.311523438 c 0,70,71
 397.456054688 547.5546875 397.456054688 547.5546875 375.650390625 536.620117188 c 0,72,73
 365.004882812 531.170898438 365.004882812 531.170898438 345.135742188 524.038085938 c 0,74,75
 325.267578125 516.90625 325.267578125 516.90625 304.186523438 508.875 c 0,76,77
 277.459960938 498.693359375 277.459960938 498.693359375 249.676757812 489.685546875 c 1,78,79
 251.705078125 487.143554688 251.705078125 487.143554688 253.903320312 484.28515625 c 0,80,81
 280.227539062 450.0625 280.227539062 450.0625 306.532226562 412.360351562 c 0,82,83
 332.8359375 374.658203125 332.8359375 374.658203125 337.55078125 369.151367188 c 0,84,85
 346.245117188 359.584960938 346.245117188 359.584960938 348.708984375 344.254882812 c 0,86,87
 349.302734375 340.563476562 349.302734375 340.563476562 349.302734375 336.889648438 c 0,88,89
 349.302734375 323.647460938 349.302734375 323.647460938 342.327148438 314.237304688 c 0,90,91
 339.51953125 310.448242188 339.51953125 310.448242188 335.931640625 307.890625 c 0,92,93
 331.499023438 302.500976562 331.499023438 302.500976562 328.600585938 298.15234375 c 0,94,95
 324.060546875 291.342773438 324.060546875 291.342773438 317.131835938 285.18359375 c 2,96,-1
 310.82421875 279.577148438 l 2,97,98
 301.951171875 270.833007812 301.951171875 270.833007812 292.004882812 270.833007812 c 0,99,100
 277.880859375 270.833007812 277.880859375 270.833007812 266.137695312 289.099609375 c 0,101,102
 260.142578125 301.661132812 260.142578125 301.661132812 238.529296875 350.688476562 c 0,103,104
 214.833984375 404.439453125 214.833984375 404.439453125 201.280273438 438.172851562 c 1,105,106
 192.982421875 420.612304688 192.982421875 420.612304688 177.17578125 390.422851562 c 0,107,108
 156.474609375 350.885742188 156.474609375 350.885742188 144.526367188 327.23046875 c 0,109,110
 132.578125 303.57421875 132.578125 303.57421875 127.000976562 293.745117188 c 0,111,112
 122.146484375 282.0234375 122.146484375 282.0234375 111.622070312 276.009765625 c 0,113,114
 106.673828125 273.181640625 106.673828125 273.181640625 101.498046875 273.181640625 c 0,115,116
 89.9501953125 273.181640625 89.9501953125 273.181640625 81.7509765625 286.336914062 c 0,117,118
 76.294921875 292.02734375 76.294921875 292.02734375 73.6826171875 295.012695312 c 0,119,120
 71.1572265625 297.899414062 71.1572265625 297.899414062 68.62890625 300.708984375 c 0,121,122
 66.1005859375 303.518554688 66.1005859375 303.518554688 64.2255859375 306.018554688 c 2,123,-1
 57.244140625 314.326171875 l 2,124,125
 49.6748046875 324.418945312 49.6748046875 324.418945312 47.7119140625 331.021484375 c 0,126,127
 41.3984375 352.263671875 41.3984375 352.263671875 56.1298828125 372.184570312 c 0,128,129
 72.1171875 395.727539062 72.1171875 395.727539062 109.467773438 439.737304688 c 0,130,131
 132.930664062 467.383789062 132.930664062 467.383789062 148.721679688 484.239257812 c 1,132,133
 111.678710938 496.916992188 111.678710938 496.916992188 93.0703125 504.317382812 c 0,134,135
 71.212890625 513.009765625 71.212890625 513.009765625 51.296875 520.668945312 c 0,136,137
 31.3798828125 528.329101562 31.3798828125 528.329101562 20.9912109375 535.060546875 c 0,138,139
 9.3046875 541.188476562 9.3046875 541.188476562 4.22265625 553.385742188 c 0,0,1
EndSplineSet
EndChar

StartChar: plus
Encoding: 43 43 28
Width: 368
Flags: W
LayerCount: 2
Fore
SplineSet
294.83984375 198.599609375 m 2,0,-1
 224.25 198.01953125 l 1,1,-1
 224.25 29.5009765625 l 1,2,3
 199.8671875 22.9990234375 199.8671875 22.9990234375 194.364257812 22.9990234375 c 0,4,5
 194.3046875 22.9990234375 194.3046875 22.9990234375 194.25 23 c 2,6,-1
 183.75 23 l 2,7,8
 177.274414062 23 177.274414062 23 169.299804688 23.53125 c 0,9,10
 155.563476562 24.447265625 155.563476562 24.447265625 146.2578125 34.787109375 c 2,11,-1
 138.838867188 43.03125 l 1,12,13
 140.700195312 76.5380859375 140.700195312 76.5380859375 140.700195312 104.879882812 c 2,14,-1
 140.265625 197 l 1,15,-1
 26.55078125 197 l 1,16,-1
 20.99609375 208.444335938 l 2,17,18
 8.9462890625 233.275390625 8.9462890625 233.275390625 8.9462890625 253.248046875 c 128,-1,19
 8.9462890625 273.220703125 8.9462890625 273.220703125 20.4150390625 300.274414062 c 2,20,-1
 26.0947265625 313.671875 l 1,21,22
 53.6826171875 312 53.6826171875 312 68.25 312 c 2,23,-1
 139.5 312 l 1,24,-1
 139.5 463.599609375 l 1,25,-1
 148.083007812 471.004882812 l 2,26,27
 166.706054688 487.071289062 166.706054688 487.071289062 181.755859375 487.071289062 c 128,-1,28
 196.8046875 487.071289062 196.8046875 487.071289062 216.518554688 471.5390625 c 2,29,-1
 226.243164062 463.877929688 l 1,30,31
 225 427.422851562 225 427.422851562 225 407 c 2,32,-1
 225 311 l 1,33,-1
 352.124023438 311 l 1,34,-1
 355.135742188 290.921875 l 2,35,36
 357 278.49609375 357 278.49609375 357 270 c 2,37,-1
 357 256 l 2,38,39
 357 247.365234375 357 247.365234375 356.6015625 236.733398438 c 0,40,41
 355.866210938 217.140625 355.866210938 217.140625 346.255859375 204.326171875 c 2,42,-1
 340.177734375 196.221679688 l 1,43,44
 316.096679688 198.599609375 316.096679688 198.599609375 294.83984375 198.599609375 c 2,0,-1
EndSplineSet
EndChar

StartChar: comma
Encoding: 44 44 29
Width: 198
Flags: W
LayerCount: 2
Fore
SplineSet
181.5 -9 m 0,0,1
 181.5 -50.90625 181.5 -50.90625 167.8125 -87.40625 c 0,2,3
 154.125 -123.90625 154.125 -123.90625 133.119140625 -150.85546875 c 0,4,5
 117.47265625 -171.673828125 117.47265625 -171.673828125 95.197265625 -190.7265625 c 0,6,7
 72.921875 -209.780273438 72.921875 -209.780273438 54.1171875 -213.658203125 c 0,8,9
 52.037109375 -214.142578125 52.037109375 -214.142578125 49.9208984375 -214.142578125 c 0,10,11
 38.4169921875 -214.142578125 38.4169921875 -214.142578125 29.6513671875 -201.391601562 c 0,12,13
 20.884765625 -188.640625 20.884765625 -188.640625 20.884765625 -174.5625 c 0,14,15
 20.884765625 -160.6953125 20.884765625 -160.6953125 29.8125 -148.630859375 c 0,16,17
 34.79296875 -141.900390625 34.79296875 -141.900390625 44.5859375 -133.740234375 c 0,18,19
 72.4697265625 -110.502929688 72.4697265625 -110.502929688 88.4912109375 -82.021484375 c 0,20,21
 96 -68.671875 96 -68.671875 96 -50 c 0,22,23
 96 -35.5546875 96 -35.5546875 92.564453125 -32.8056640625 c 0,24,25
 89.1279296875 -30.0576171875 89.1279296875 -30.0576171875 82.4072265625 -27.369140625 c 0,26,27
 70.1220703125 -22.455078125 70.1220703125 -22.455078125 64.033203125 -18.6337890625 c 0,28,29
 49.044921875 -9.2294921875 49.044921875 -9.2294921875 37.3994140625 3.9091796875 c 0,30,31
 21 22.41015625 21 22.41015625 21 54 c 0,32,33
 21 76.2783203125 21 76.2783203125 28.8671875 92.7626953125 c 0,34,35
 36.7353515625 109.247070312 36.7353515625 109.247070312 47.6083984375 118.221679688 c 0,36,37
 69.1474609375 136 69.1474609375 136 93.49609375 136 c 0,38,39
 117.84375 136 117.84375 136 134.119140625 120.217773438 c 0,40,41
 150.39453125 104.435546875 150.39453125 104.435546875 160.713867188 82.8994140625 c 0,42,43
 171.033203125 61.36328125 171.033203125 61.36328125 176.28125 36.8720703125 c 0,44,45
 181.5 12.51953125 181.5 12.51953125 181.5 -9 c 0,0,1
EndSplineSet
EndChar

StartChar: hyphen
Encoding: 45 45 30
Width: 289
Flags: W
LayerCount: 2
Fore
SplineSet
17.3427734375 220.37890625 m 0,0,1
 16.6923828125 224.713867188 16.6923828125 224.713867188 16.6923828125 227.555664062 c 128,-1,2
 16.6923828125 230.397460938 16.6923828125 230.397460938 17.25 278 c 0,3,4
 17.25 292.577148438 17.25 292.577148438 26.4580078125 301.290039062 c 0,5,6
 33.365234375 307.826171875 33.365234375 307.826171875 46.0009765625 308.913085938 c 128,-1,7
 58.63671875 310 58.63671875 310 69.75 310 c 2,8,-1
 83.25 310 l 1,9,-1
 192.5390625 308.75 l 2,10,11
 224.8828125 308.75 224.8828125 308.75 257.017578125 310.965820312 c 1,12,-1
 258 311 l 2,13,14
 269.833984375 311 269.833984375 311 276.364257812 297.211914062 c 0,15,16
 281.25 286.8984375 281.25 286.8984375 281.25 267 c 2,17,-1
 281.25 226 l 2,18,19
 281.25 218.438476562 281.25 218.438476562 278.185546875 211.043945312 c 0,20,21
 272.64453125 197.67578125 272.64453125 197.67578125 257.295898438 194.751953125 c 0,22,23
 248.096679688 193 248.096679688 193 237 193 c 2,24,-1
 63.75 193 l 2,25,26
 44.486328125 193 44.486328125 193 37.8564453125 194.955078125 c 128,-1,27
 31.2265625 196.91015625 31.2265625 196.91015625 27.900390625 199.393554688 c 0,28,29
 18.3349609375 206.536132812 18.3349609375 206.536132812 17.3427734375 220.37890625 c 0,0,1
EndSplineSet
EndChar

StartChar: period
Encoding: 46 46 31
Width: 192
Flags: W
LayerCount: 2
Fore
SplineSet
139.370117188 105.72265625 m 0,0,1
 154.5 79.4970703125 154.5 79.4970703125 154.5 42.7431640625 c 0,2,3
 154.5 5.9892578125 154.5 5.9892578125 135.63671875 -17.0048828125 c 0,4,5
 116.774414062 -40 116.774414062 -40 89.6181640625 -40 c 0,6,7
 62.4619140625 -40 62.4619140625 -40 43.23046875 -16.4951171875 c 0,8,9
 24 7.0087890625 24 7.0087890625 24 45.8779296875 c 0,10,11
 24 84.7470703125 24 84.7470703125 43.8916015625 109.873046875 c 0,12,13
 63.7841796875 135 63.7841796875 135 91.5 135 c 0,14,15
 122.479492188 135 122.479492188 135 139.370117188 105.72265625 c 0,0,1
EndSplineSet
EndChar

StartChar: slash
Encoding: 47 47 32
Width: 290
Flags: W
LayerCount: 2
Fore
SplineSet
57.75 -56 m 1,0,-1
 36.6669921875 -57.3330078125 l 2,1,2
 27.26953125 -57.3330078125 27.26953125 -57.3330078125 -11.033203125 -53.4052734375 c 1,3,4
 50.671875 173.715820312 50.671875 173.715820312 105.373046875 364.046875 c 0,5,6
 160.077148438 554.385742188 160.077148438 554.385742188 211.751953125 763.20703125 c 1,7,-1
 221.111328125 766.950195312 l 2,8,9
 231.235351562 771 231.235351562 771 243.059570312 771 c 0,10,11
 263.622070312 771 263.622070312 771 272.94140625 768.514648438 c 2,12,-1
 292.762695312 763.228515625 l 1,13,-1
 287.30859375 737.25390625 l 2,14,15
 276.561523438 686.078125 276.561523438 686.078125 262.553710938 638.123046875 c 2,16,-1
 152.90234375 252.108398438 l 2,17,18
 112.181640625 109.646484375 112.181640625 109.646484375 71.3251953125 -56 c 1,19,-1
 57.75 -56 l 1,0,-1
EndSplineSet
EndChar

StartChar: zero
Encoding: 48 48 33
Width: 540
Flags: W
LayerCount: 2
Fore
SplineSet
169.795898438 463.741210938 m 128,-1,1
 161.5625 404.98828125 161.5625 404.98828125 161.5625 349.504882812 c 0,2,3
 161.5625 226.912109375 161.5625 226.912109375 189.983398438 152.322265625 c 0,4,5
 204.79296875 113.626953125 204.79296875 113.626953125 226.57421875 91.1875 c 128,-1,6
 248.356445312 68.7470703125 248.356445312 68.7470703125 279.380859375 68.7470703125 c 0,7,8
 326.188476562 68.7470703125 326.188476562 68.7470703125 356.581054688 146.659179688 c 0,9,10
 372.231445312 186.776367188 372.231445312 186.776367188 380.293945312 238.564453125 c 128,-1,11
 388.354492188 290.352539062 388.354492188 290.352539062 389.19140625 345.196289062 c 0,12,13
 389.170898438 401.98046875 389.170898438 401.98046875 381.80078125 459.508789062 c 0,14,15
 366.26171875 578.116210938 366.26171875 578.116210938 320.334960938 628.068359375 c 0,16,17
 304.0234375 645.810546875 304.0234375 645.810546875 282.546875 649.045898438 c 1,18,19
 277.567382812 645.502929688 277.567382812 645.502929688 271.166992188 645.502929688 c 128,-1,20
 264.765625 645.502929688 264.765625 645.502929688 259.665039062 649.298828125 c 1,21,22
 243.129882812 646.51953125 243.129882812 646.51953125 228.723632812 629.950195312 c 0,23,24
 208.098632812 606.225585938 208.098632812 606.225585938 193.063476562 564.360351562 c 128,-1,0
 178.028320312 522.494140625 178.028320312 522.494140625 169.795898438 463.741210938 c 128,-1,1
39.88671875 329.57421875 m 128,-1,26
 39.88671875 405.7578125 39.88671875 405.7578125 54.373046875 472.409179688 c 0,27,28
 84.2958984375 610.068359375 84.2958984375 610.068359375 168.30078125 672.577148438 c 0,29,30
 214.680664062 704.34375 214.680664062 704.34375 270.329101562 704.34375 c 128,-1,31
 325.9765625 704.34375 325.9765625 704.34375 372.609375 675.793945312 c 0,32,33
 418.849609375 647.245117188 418.849609375 647.245117188 447.340820312 599.491210938 c 128,-1,34
 475.83203125 551.73828125 475.83203125 551.73828125 492.126953125 486.448242188 c 128,-1,35
 508.420898438 421.158203125 508.420898438 421.158203125 508.420898438 347.409179688 c 128,-1,36
 508.420898438 273.66015625 508.420898438 273.66015625 493.890625 206.81640625 c 128,-1,37
 479.361328125 139.973632812 479.361328125 139.973632812 452.67578125 87.9970703125 c 0,38,39
 425.698242188 35.4482421875 425.698242188 35.4482421875 380.088867188 3.9130859375 c 0,40,41
 333.044921875 -27.623046875 333.044921875 -27.623046875 276.092773438 -27.623046875 c 128,-1,42
 219.140625 -27.623046875 219.140625 -27.623046875 170.9296875 -0.4873046875 c 0,43,44
 124.90234375 26.546875 124.90234375 26.546875 97.0419921875 75.41015625 c 128,-1,45
 69.1826171875 124.272460938 69.1826171875 124.272460938 54.5341796875 188.764648438 c 128,-1,25
 39.88671875 253.255859375 39.88671875 253.255859375 39.88671875 329.57421875 c 128,-1,26
EndSplineSet
EndChar

StartChar: one
Encoding: 49 49 34
Width: 320
Flags: W
LayerCount: 2
Fore
SplineSet
212.233398438 578.750976562 m 2,0,1
 212.243164062 578.26953125 212.243164062 578.26953125 212.2421875 578.263671875 c 2,2,3
 212.25 577 212.25 577 211.5 529.341796875 c 0,4,5
 211.5 445 211.5 445 210.373046875 359.995117188 c 128,-1,6
 209.25 275 209.25 275 209.25 191.041992188 c 2,7,8
 209.25 185 209.25 185 209.25 169.465820312 c 2,9,10
 209.25 157 209.25 157 211.953125 129.731445312 c 0,11,12
 213.75 111 213.75 111 220.203125 99.9267578125 c 0,13,14
 224.25 93 224.25 93 234.017578125 89.224609375 c 0,15,16
 243.75 86 243.75 86 255.193359375 81.8330078125 c 0,17,18
 266.25 78 266.25 78 276.294921875 72.2626953125 c 0,19,20
 292.5 63 292.5 63 292.5 38.6474609375 c 0,21,22
 292.5 24 292.5 24 288.44921875 13.91015625 c 0,23,24
 282.75 0 282.75 0 269.94921875 -2.244140625 c 0,25,26
 254.25 -5 254.25 -5 250.744140625 -4.787109375 c 0,27,28
 247.5 -5 247.5 -5 245.53515625 -4.7255859375 c 0,29,30
 243.75 -5 243.75 -5 242.057617188 -4.7587890625 c 0,31,32
 204.75 -5 204.75 -5 200.653320312 -0.125 c 0,33,34
 197.577148438 4.5078125 197.577148438 4.5078125 150.848632812 4.5078125 c 2,35,-1
 149.943359375 4.5078125 l 2,36,37
 125.25 5 125.25 5 113.900390625 0.3798828125 c 0,38,39
 102 -4 102 -4 95.4599609375 -4.330078125 c 0,40,41
 89.25 -5 89.25 -5 86.25 -5.1787109375 c 1,42,43
 86.25 4 86.25 4 86.25 -6.259765625 c 1,44,-1
 78.75 -6.259765625 l 1,45,-1
 73.125 -6.259765625 l 1,46,-1
 62.5625 -6.259765625 l 2,47,48
 51.75 -6 51.75 -6 41.4150390625 1.2060546875 c 0,49,50
 27 11 27 11 27 38.755859375 c 0,51,52
 27 61 27 61 40.666015625 72.0859375 c 0,53,54
 47.25 78 47.25 78 62.12890625 83.56640625 c 0,55,56
 72 87 72 87 83.4833984375 92.0458984375 c 0,57,58
 90.75 95 90.75 95 96.876953125 105.3125 c 0,59,60
 101.25 112 101.25 112 103.30859375 140.51171875 c 0,61,62
 105 169 105 169 105 196.880859375 c 2,63,64
 105 216 105 216 105 227.782226562 c 1,65,66
 105 240 105 240 105.75 334.571289062 c 2,67,68
 105.75 342 105.75 342 106.5 485.3125 c 1,69,70
 106.5 496 106.5 496 106.5 514.595703125 c 2,71,72
 106.5 556 106.5 556 105.4296875 561.954101562 c 0,73,74
 105 564 105 564 102.780273438 563.96484375 c 0,75,76
 101.25 564 101.25 564 80.1826171875 565.90625 c 1,77,-1
 67.125 565.90625 l 2,78,79
 55.5 566 55.5 566 42.0927734375 573.970703125 c 0,80,81
 27.75 582 27.75 582 27.1865234375 612.5390625 c 0,82,83
 26.998046875 619.076171875 26.998046875 619.076171875 28.26953125 630.190429688 c 2,84,85
 28.2568359375 630.201171875 28.2568359375 630.201171875 28.2822265625 630.305664062 c 2,86,87
 30 648 30 648 33.974609375 653.387695312 c 0,88,89
 37.5 659 37.5 659 42.0888671875 659.66015625 c 0,90,91
 56.25 664 56.25 664 60.017578125 664.807617188 c 0,92,93
 80.25 670 80.25 670 113.689453125 690.623046875 c 0,94,95
 133.115234375 702.217773438 133.115234375 702.217773438 174.224609375 702.217773438 c 2,96,-1
 176.622070312 702.217773438 l 1,97,98
 180.75 700 180.75 700 186.75 700 c 0,99,100
 193.5 700 193.5 700 193.5 700 c 1,101,102
 198 701 198 701 198 701 c 1,103,104
 205.5 701 205.5 701 205.5 701 c 1,105,-1
 207.75 701 l 1,106,107
 208.5 701 208.5 701 209.25 701 c 1,108,109
 209.25 701 209.25 701 210.75 701 c 1,110,111
 210.75 701 210.75 701 213.75 700 c 1,112,113
 219.997070312 696.876953125 219.997070312 696.876953125 220.725585938 689.799804688 c 2,114,115
 223.5 686 223.5 686 223.5 662.858398438 c 0,116,117
 223.5 649 223.5 649 221.96875 630.125976562 c 1,118,119
 222 622 222 622 221.9609375 627.490234375 c 1,120,121
 222 620 222 620 221.89453125 626.299804688 c 2,122,123
 222 626 222 626 222.016601562 625.709960938 c 0,124,125
 222 625 222 625 221.264648438 623.432617188 c 0,126,127
 219.75 610 219.75 610 215.92578125 601.833984375 c 0,128,129
 210.75 591 210.75 591 212.177734375 581.502929688 c 0,130,131
 212.25 581 212.25 581 212.233398438 578.750976562 c 2,0,1
204.748046875 591.627929688 m 1,132,-1
 198.588867188 583.987304688 l 1,133,-1
 210.6796875 583.83984375 l 1,134,-1
 204.748046875 591.627929688 l 1,132,-1
EndSplineSet
EndChar

StartChar: two
Encoding: 50 50 35
Width: 424
Flags: W
LayerCount: 2
Fore
SplineSet
48.119140625 465.361328125 m 0,0,1
 35.25 482.576171875 35.25 482.576171875 35.25 513.245117188 c 0,2,3
 35.25 527.1484375 35.25 527.1484375 39.1513671875 545.04296875 c 128,-1,4
 43.052734375 562.9375 43.052734375 562.9375 48.072265625 575.526367188 c 128,-1,5
 53.0908203125 588.116210938 53.0908203125 588.116210938 57.015625 599.930664062 c 128,-1,6
 60.94140625 611.747070312 60.94140625 611.747070312 64.2294921875 618.561523438 c 0,7,8
 80.71875 656.44921875 80.71875 656.44921875 95.94140625 676.522460938 c 0,9,10
 123.073242188 712.30078125 123.073242188 712.30078125 159.227539062 716.3359375 c 0,11,12
 173.86328125 717.924804688 173.86328125 717.924804688 188.50390625 717.924804688 c 0,13,14
 268.705078125 717.924804688 268.705078125 717.924804688 306.588867188 642.028320312 c 0,15,16
 329.318359375 595.204101562 329.318359375 595.204101562 329.318359375 530.962890625 c 0,17,18
 329.318359375 493.084960938 329.318359375 493.084960938 321.734375 449.412109375 c 0,19,20
 312.08203125 394.162109375 312.08203125 394.162109375 267.373046875 303.817382812 c 0,21,22
 224.814453125 217.818359375 224.814453125 217.818359375 167.583984375 133.110351562 c 1,23,24
 179.852539062 132.265625 179.852539062 132.265625 192.643554688 132.265625 c 128,-1,25
 205.286132812 132.265625 205.286132812 132.265625 226.870117188 133.793945312 c 128,-1,26
 248.455078125 135.322265625 248.455078125 135.322265625 267.869140625 141.864257812 c 128,-1,27
 287.282226562 148.407226562 287.282226562 148.407226562 294.6171875 155.194335938 c 0,28,29
 315.924804688 200.41796875 315.924804688 200.41796875 329.375976562 234.334960938 c 0,30,31
 340.826171875 268.25 340.826171875 268.25 347.180664062 286.254882812 c 0,32,33
 349.892578125 293.936523438 349.892578125 293.936523438 355.326171875 309.590820312 c 0,34,35
 365.212890625 336.869140625 365.212890625 336.869140625 380.52734375 336.869140625 c 0,36,37
 386.296875 336.869140625 386.296875 336.869140625 392.076171875 332.520507812 c 0,38,39
 408.443359375 320.204101562 408.443359375 320.204101562 414.642578125 292.2109375 c 2,40,41
 416.678710938 320.647460938 416.678710938 320.647460938 418.713867188 273.833984375 c 1,42,43
 416.029296875 302.966796875 416.029296875 302.966796875 413.345703125 256.849609375 c 2,44,45
 395.260742188 199.623046875 395.260742188 199.623046875 388.666015625 154.349609375 c 0,46,47
 378.893554688 87.2578125 378.893554688 87.2578125 376.421875 32.716796875 c 0,48,49
 374.928710938 -0.240234375 374.928710938 -0.240234375 362.111328125 -12.2177734375 c 0,50,51
 357.37890625 -16.6396484375 357.37890625 -16.6396484375 354.009765625 -16.6396484375 c 0,52,53
 338.025390625 -16.6396484375 338.025390625 -16.6396484375 295.005859375 -5.26171875 c 0,54,55
 249.32421875 6.119140625 249.32421875 6.119140625 190.9140625 9.0703125 c 0,56,57
 166.504882812 9.0703125 166.504882812 9.0703125 138.326171875 8.375 c 0,58,59
 113.3984375 7.6796875 113.3984375 7.6796875 95.5068359375 7.5830078125 c 1,60,61
 86.37890625 -15.5830078125 86.37890625 -15.5830078125 74.7109375 -15.5830078125 c 0,62,63
 72.83984375 -15.5830078125 72.83984375 -15.5830078125 70.939453125 -14.896484375 c 0,64,65
 59.095703125 -13.8271484375 59.095703125 -13.8271484375 50.86328125 -1.8134765625 c 0,66,67
 39 13.44140625 39 13.44140625 39 47.5537109375 c 0,68,69
 39 67.4296875 39 67.4296875 47.8603515625 83.55859375 c 0,70,71
 87.431640625 160.834960938 87.431640625 160.834960938 130.202148438 269.200195312 c 0,72,73
 173.943359375 360.278320312 173.943359375 360.278320312 197.612304688 439.33203125 c 0,74,75
 205.67578125 479.424804688 205.67578125 479.424804688 206.060546875 493.397460938 c 0,76,77
 206.060546875 512.8671875 206.060546875 512.8671875 199.76171875 526.423828125 c 0,78,79
 186.307617188 555.384765625 186.307617188 555.384765625 150.620117188 555.384765625 c 0,80,81
 126.6796875 555.384765625 126.6796875 555.384765625 116.814453125 545.486328125 c 0,82,83
 100.970703125 529.58984375 100.970703125 529.58984375 92.74609375 498.083007812 c 0,84,85
 81.6630859375 455.624023438 81.6630859375 455.624023438 63.642578125 455.624023438 c 0,86,87
 55.396484375 455.624023438 55.396484375 455.624023438 48.119140625 465.361328125 c 0,0,1
EndSplineSet
EndChar

StartChar: three
Encoding: 51 51 36
Width: 387
Flags: W
LayerCount: 2
Fore
SplineSet
34.0625 597.955078125 m 4,0,1
 33.888671875 600.954101562 33.888671875 600.954101562 33.888671875 602.875 c 4,2,3
 33.888671875 623.837890625 33.888671875 623.837890625 46.14453125 644.578125 c 4,4,5
 70.701171875 686.134765625 70.701171875 686.134765625 113.990234375 709.22265625 c 4,6,7
 139.595703125 721 139.595703125 721 168 721 c 4,8,9
 232.186523438 721 232.186523438 721 272.8671875 691.866210938 c 4,10,11
 290.184570312 675.471679688 290.184570312 675.471679688 300.438476562 650.401367188 c 132,-1,12
 310.692382812 625.331054688 310.692382812 625.331054688 310.692382812 589.65234375 c 4,13,14
 310.692382812 563.194335938 310.692382812 563.194335938 298.71875 534.84375 c 4,15,16
 278.779296875 487.62890625 278.779296875 487.62890625 236.088867188 443.848632812 c 5,17,18
 288.518554688 434.2421875 288.518554688 434.2421875 317.672851562 399.23046875 c 4,19,20
 339.375 373.169921875 339.375 373.169921875 350.908203125 336.83203125 c 132,-1,21
 362.442382812 300.494140625 362.442382812 300.494140625 362.442382812 259.408203125 c 4,22,23
 362.442382812 198.63671875 362.442382812 198.63671875 337.109375 144.456054688 c 132,-1,24
 311.775390625 90.2744140625 311.775390625 90.2744140625 274.181640625 50.2529296875 c 4,25,26
 224.751953125 10.2314453125 224.751953125 10.2314453125 163.44921875 -13.3720703125 c 4,27,28
 108.360351562 -36.974609375 108.360351562 -36.974609375 64.2958984375 -37.99609375 c 5,29,-1
 63.9423828125 -37.99609375 l 6,30,31
 49.7958984375 -37.99609375 49.7958984375 -37.99609375 42.30078125 -24.0078125 c 4,32,33
 37.255859375 -15.2236328125 37.255859375 -15.2236328125 37.255859375 -4.0615234375 c 4,34,35
 37.255859375 8.8251953125 37.255859375 8.8251953125 43.1611328125 19.1083984375 c 132,-1,36
 49.06640625 29.3916015625 49.06640625 29.3916015625 59.4873046875 31.576171875 c 4,37,38
 92.3740234375 43.0419921875 92.3740234375 43.0419921875 122.353515625 61.251953125 c 4,39,40
 204.424804688 98.724609375 204.424804688 98.724609375 238.422851562 160.482421875 c 4,41,42
 254.958984375 190.520507812 254.958984375 190.520507812 254.958984375 228.787109375 c 4,43,44
 254.958984375 270.653320312 254.958984375 270.653320312 231.095703125 304.817382812 c 4,45,46
 207.4609375 340.01171875 207.4609375 340.01171875 166.862304688 347.485351562 c 4,47,48
 137.357421875 353.307617188 137.357421875 353.307617188 123.750976562 353.307617188 c 4,49,50
 113.083984375 353.307617188 113.083984375 353.307617188 102.569335938 346.297851562 c 4,51,52
 98.7060546875 344.08984375 98.7060546875 344.08984375 91.4833984375 337.15625 c 4,53,54
 76.7373046875 323 76.7373046875 323 66.1923828125 323 c 4,55,56
 49.9091796875 323 49.9091796875 323 41.552734375 338.431640625 c 4,57,58
 36.1923828125 348.330078125 36.1923828125 348.330078125 36.1923828125 362.702148438 c 4,59,60
 36.1923828125 385.748046875 36.1923828125 385.748046875 57.5634765625 397.962890625 c 4,61,62
 67.6279296875 403.715820312 67.6279296875 403.715820312 71.931640625 406.356445312 c 4,63,64
 87.72265625 416.524414062 87.72265625 416.524414062 106.70703125 434.26953125 c 132,-1,65
 125.69140625 452.014648438 125.69140625 452.014648438 148.109375 473.40625 c 132,-1,66
 170.650390625 494.797851562 170.650390625 494.797851562 184.42578125 516.759765625 c 132,-1,67
 198.202148438 538.72265625 198.202148438 538.72265625 198.202148438 558.444335938 c 4,68,69
 198.202148438 593.7109375 198.202148438 593.7109375 180.517578125 608.85546875 c 132,-1,70
 162.833007812 624 162.833007812 624 139.45703125 624 c 4,71,72
 118.673828125 624 118.673828125 624 108.86328125 613.208007812 c 4,73,74
 94.8515625 597.795898438 94.8515625 597.795898438 77.7216796875 573.051757812 c 4,75,76
 70.5625 563.1171875 70.5625 563.1171875 61.275390625 563.1171875 c 132,-1,77
 51.98828125 563.1171875 51.98828125 563.1171875 44.0048828125 572.697265625 c 132,-1,78
 36.021484375 582.27734375 36.021484375 582.27734375 34.0625 597.955078125 c 4,0,1
EndSplineSet
EndChar

StartChar: four
Encoding: 52 52 37
Width: 518
Flags: W
LayerCount: 2
Fore
SplineSet
131.333007812 340.873046875 m 4,0,1
 126.24609375 331.938476562 126.24609375 331.938476562 117.958984375 320.202148438 c 5,2,-1
 259.123046875 325 l 6,3,4
 260.861328125 325 260.861328125 325 262.522460938 325.10546875 c 6,5,-1
 262.522460938 383 l 5,6,-1
 261.672851562 539 l 5,7,-1
 261.672851562 542.255859375 l 5,8,9
 243.0078125 514.095703125 243.0078125 514.095703125 221.74609375 482.881835938 c 4,10,11
 177.61328125 418.092773438 177.61328125 418.092773438 131.333007812 340.873046875 c 4,0,1
372.150390625 322 m 5,12,-1
 411.2421875 322 l 5,13,-1
 464.453125 323 l 6,14,15
 482.447265625 323 482.447265625 323 495.950195312 305.853515625 c 132,-1,16
 509.453125 288.708007812 509.453125 288.708007812 509.453125 264.237304688 c 132,-1,17
 509.453125 239.766601562 509.453125 239.766601562 497.310546875 226.814453125 c 4,18,19
 488.108398438 217 488.108398438 217 474.203125 217 c 4,20,21
 464.443359375 217 464.443359375 217 455.068359375 218 c 132,-1,22
 445.693359375 219 445.693359375 219 436.703125 219 c 6,23,-1
 421.703125 219 l 5,24,-1
 387.5 219.625 l 6,25,26
 378.98828125 219.625 378.98828125 219.625 373.849609375 218.678710938 c 5,27,28
 373.849609375 135.140625 373.849609375 135.140625 373.849609375 35.064453125 c 6,29,30
 373.849609375 26.3427734375 373.849609375 26.3427734375 373.336914062 21.943359375 c 132,-1,31
 372.823242188 17.5439453125 372.823242188 17.5439453125 372.823242188 17.341796875 c 132,-1,32
 372.823242188 17.140625 372.823242188 17.140625 376.185546875 9.9345703125 c 5,33,34
 375.78515625 25.501953125 375.78515625 25.501953125 375.384765625 3.0693359375 c 6,35,36
 373.646484375 -11.8349609375 373.646484375 -11.8349609375 365.967773438 -21.3642578125 c 132,-1,37
 358.290039062 -30.8935546875 358.290039062 -30.8935546875 348.159179688 -35.796875 c 4,38,39
 330.841796875 -45 330.841796875 -45 312.859375 -45 c 132,-1,40
 294.877929688 -45 294.877929688 -45 281.686523438 -38.6494140625 c 4,41,42
 259.123046875 -28.744140625 259.123046875 -28.744140625 259.123046875 -7.962890625 c 134,-1,43
 259.123046875 12.75 259.123046875 12.75 259.123046875 -6.6103515625 c 6,44,45
 261.671875 16.6396484375 261.671875 16.6396484375 261.672851562 84.142578125 c 6,46,47
 261.672851562 134.799804688 261.672851562 134.799804688 261.672851562 168.953125 c 5,48,49
 262.09765625 188.024414062 262.09765625 188.024414062 262.522460938 200.87109375 c 5,50,51
 261.6171875 209.2421875 261.6171875 209.2421875 260.7109375 215.487304688 c 6,52,53
 257.20703125 220.25 257.20703125 220.25 247.518554688 220.25 c 6,54,-1
 221.732421875 219 l 6,55,56
 173.204101562 219 173.204101562 219 125.188476562 215 c 4,57,58
 79.625 211 79.625 211 35.453125 211 c 4,59,60
 25.677734375 211 25.677734375 211 19.2783203125 217.3359375 c 4,61,62
 5.880859375 230.598632812 5.880859375 230.598632812 5.880859375 249.923828125 c 4,63,64
 5.880859375 261.870117188 5.880859375 261.870117188 11.5908203125 272.743164062 c 4,65,66
 31.109375 309.913085938 31.109375 309.913085938 67.958984375 373.619140625 c 4,67,68
 105.163085938 436.452148438 105.163085938 436.452148438 135.3671875 482.686523438 c 4,69,70
 189.305664062 565.256835938 189.305664062 565.256835938 211.0390625 595.249023438 c 4,71,72
 227.475585938 618.947265625 227.475585938 618.947265625 233.458984375 632.358398438 c 132,-1,73
 239.4453125 645.76953125 239.4453125 645.76953125 244.407226562 655.87890625 c 4,74,75
 251.293945312 669.908203125 251.293945312 669.908203125 261.252929688 686.447265625 c 4,76,77
 271.541992188 702.916992188 271.541992188 702.916992188 290.67578125 709.041992188 c 4,78,79
 305.421875 714 305.421875 714 321.75 714 c 132,-1,80
 338.078125 714 338.078125 714 351.037109375 706.375 c 4,81,82
 370.52734375 695.608398438 370.52734375 695.608398438 370.52734375 674.502929688 c 4,83,84
 370.52734375 670.577148438 370.52734375 670.577148438 371.33984375 661.166992188 c 132,-1,85
 372.150390625 651.755859375 372.150390625 651.755859375 372.150390625 616.82421875 c 6,86,-1
 372.150390625 322 l 5,12,-1
EndSplineSet
EndChar

StartChar: five
Encoding: 53 53 38
Width: 448
Flags: W
LayerCount: 2
Fore
SplineSet
115.513671875 677.709960938 m 4,0,1
 121.974609375 678.143554688 121.974609375 678.143554688 132.955078125 678.143554688 c 6,2,3
 175.92578125 659.14453125 175.92578125 659.14453125 218.896484375 676.81640625 c 6,4,5
 266.6171875 676.81640625 266.6171875 676.81640625 305.685546875 679.399414062 c 5,6,7
 326.696289062 697.482421875 326.696289062 697.482421875 344.501953125 757.434570312 c 5,8,9
 353.375976562 774 353.375976562 774 366.75 774 c 4,10,11
 371.7578125 774 371.7578125 774 377.334960938 771.2109375 c 132,-1,12
 382.912109375 768.421875 382.912109375 768.421875 390.419921875 764.41796875 c 5,13,14
 391.787109375 737.595703125 391.787109375 737.595703125 393.153320312 760.7734375 c 6,15,16
 400.334960938 751.8203125 400.334960938 751.8203125 400.334960938 736.62109375 c 4,17,18
 400.334960938 725.186523438 400.334960938 725.186523438 396.921875 708.7734375 c 132,-1,19
 393.508789062 692.361328125 393.508789062 692.361328125 389.840820312 675.896484375 c 132,-1,20
 386.171875 659.431640625 386.171875 659.431640625 383.13671875 639.561523438 c 5,21,22
 380.45703125 628.426757812 380.45703125 628.426757812 377.001953125 616.580078125 c 132,-1,23
 373.545898438 604.732421875 373.545898438 604.732421875 366.7890625 591.7734375 c 132,-1,24
 360.033203125 578.814453125 360.033203125 578.814453125 347.606445312 570.36328125 c 132,-1,25
 335.180664062 561.9140625 335.180664062 561.9140625 315.978515625 561.9140625 c 6,26,-1
 222.0859375 561.9140625 l 6,27,28
 170.702148438 561.9140625 170.702148438 561.9140625 151.752929688 558.501953125 c 5,29,30
 151.2890625 547.998046875 151.2890625 547.998046875 150.826171875 557.931640625 c 5,31,32
 143.751953125 544.719726562 143.751953125 544.719726562 137.126953125 521.163085938 c 132,-1,33
 130.502929688 497.606445312 130.502929688 497.606445312 126.993164062 484.799804688 c 5,34,35
 137.184570312 489.84765625 137.184570312 489.84765625 154.994140625 496.931640625 c 132,-1,36
 172.803710938 504.014648438 172.803710938 504.014648438 195.036132812 508.653320312 c 132,-1,37
 217.267578125 513.291015625 217.267578125 513.291015625 234.50390625 513.291015625 c 132,-1,38
 251.740234375 513.291015625 251.740234375 513.291015625 270.279296875 510.208007812 c 4,39,40
 315.979492188 502.916015625 315.979492188 502.916015625 346.444335938 480.665039062 c 4,41,42
 402.923828125 435.85546875 402.923828125 435.85546875 417.353515625 352.25390625 c 4,43,44
 421.786132812 326.571289062 421.786132812 326.571289062 421.786132812 304.856445312 c 132,-1,45
 421.786132812 283.142578125 421.786132812 283.142578125 420.272460938 266.528320312 c 4,46,47
 413.741210938 196.301757812 413.741210938 196.301757812 382.291992188 138.99609375 c 132,-1,48
 350.841796875 81.6904296875 350.841796875 81.6904296875 301.267578125 41 c 4,49,50
 278.154296875 22 278.154296875 22 262.5625 20.099609375 c 5,51,-1
 261.284179688 20.099609375 l 6,52,53
 241.821289062 20.099609375 241.821289062 20.099609375 223.116210938 45.2294921875 c 4,54,55
 217.927734375 52.1865234375 217.927734375 52.1865234375 217.927734375 59.193359375 c 4,56,57
 217.927734375 69.9814453125 217.927734375 69.9814453125 224.181640625 78.8095703125 c 4,58,59
 227.88671875 84.0380859375 227.88671875 84.0380859375 236.737304688 92.4306640625 c 132,-1,60
 245.586914062 100.823242188 245.586914062 100.823242188 261.1953125 120.325195312 c 132,-1,61
 276.801757812 139.826171875 276.801757812 139.826171875 291.784179688 169.327148438 c 4,62,63
 316.75 218.485351562 316.75 218.485351562 316.75 288.845703125 c 4,64,65
 316.75 322.026367188 316.75 322.026367188 307.750976562 340.515625 c 132,-1,66
 298.75390625 359.004882812 298.75390625 359.004882812 282.665039062 372.151367188 c 4,67,68
 261.44921875 389.489257812 261.44921875 389.489257812 235.572265625 399.14453125 c 4,69,70
 230.627929688 401.118164062 230.627929688 401.118164062 225.927734375 401.118164062 c 4,71,72
 217.241210938 401.118164062 217.241210938 401.118164062 205.814453125 400.334960938 c 132,-1,73
 194.38671875 399.552734375 194.38671875 399.552734375 173.764648438 394.796875 c 132,-1,74
 153.197265625 390.052734375 153.197265625 390.052734375 134.366210938 382.315429688 c 4,75,76
 116.087890625 374.62890625 116.087890625 374.62890625 106.163085938 367.002929688 c 5,77,78
 105.318359375 368.014648438 105.318359375 368.014648438 104.473632812 366.211914062 c 5,79,80
 104.384765625 367.602539062 104.384765625 367.602539062 104.296875 366.122070312 c 5,81,82
 100.2578125 358.28125 100.2578125 358.28125 95.3408203125 351.024414062 c 4,83,84
 87.380859375 339.27734375 87.380859375 339.27734375 74.55078125 335.061523438 c 4,85,86
 70.1171875 333.604492188 70.1171875 333.604492188 62.91796875 333.604492188 c 132,-1,87
 55.7197265625 333.604492188 55.7197265625 333.604492188 41.9931640625 340.4609375 c 5,88,89
 40.947265625 344.48046875 40.947265625 344.48046875 39.900390625 342.493164062 c 6,90,91
 25.8974609375 356.092773438 25.8974609375 356.092773438 25.8974609375 378.228515625 c 132,-1,92
 25.8974609375 400.364257812 25.8974609375 400.364257812 35.7744140625 420.486328125 c 4,93,94
 41.962890625 433.094726562 41.962890625 433.094726562 43.5478515625 438.369140625 c 4,95,96
 60.01171875 494.169921875 60.01171875 494.169921875 68.388671875 530.77734375 c 4,97,98
 86.6845703125 610.739257812 86.6845703125 610.739257812 89.06640625 643.446289062 c 4,99,100
 90.3466796875 651.442382812 90.3466796875 651.442382812 92.48046875 658.10546875 c 4,101,102
 96.080078125 669.340820312 96.080078125 669.340820312 104.831054688 674.422851562 c 4,103,104
 109.747070312 677.27734375 109.747070312 677.27734375 115.513671875 677.709960938 c 4,0,1
EndSplineSet
EndChar

StartChar: six
Encoding: 54 54 39
Width: 513
Flags: W
LayerCount: 2
Fore
SplineSet
312.587890625 630.778320312 m 0,0,1
 223.438476562 550.6328125 223.438476562 550.6328125 183.372070312 429.52734375 c 1,2,3
 238.344726562 466 238.344726562 466 294.676757812 466 c 0,4,5
 338.24609375 466 338.24609375 466 374.48828125 449.307617188 c 0,6,7
 405.712890625 432.616210938 405.712890625 432.616210938 427.1171875 402.3125 c 128,-1,8
 448.521484375 372.009765625 448.521484375 372.009765625 459.385742188 331.868164062 c 128,-1,9
 470.25 291.7265625 470.25 291.7265625 470.25 244.06640625 c 128,-1,10
 470.25 196.407226562 470.25 196.407226562 457.12109375 150.25 c 128,-1,11
 443.9921875 104.09375 443.9921875 104.09375 419.506835938 67.8974609375 c 128,-1,12
 395.022460938 31.7021484375 395.022460938 31.7021484375 357.424804688 9.947265625 c 0,13,14
 316.75 -13 316.75 -13 268.084960938 -13 c 128,-1,15
 219.419921875 -13 219.419921875 -13 171.845703125 8.91015625 c 0,16,17
 132.661132812 26.6533203125 132.661132812 26.6533203125 109.345703125 55.2822265625 c 0,18,19
 64.3701171875 110.5078125 64.3701171875 110.5078125 49.2177734375 193.653320312 c 0,20,21
 42 233.2578125 42 233.2578125 42 274.357421875 c 0,22,23
 42 354.419921875 42 354.419921875 62.8876953125 426.850585938 c 128,-1,24
 83.775390625 499.28125 83.775390625 499.28125 119.809570312 560.493164062 c 0,25,26
 159.783203125 621.705078125 159.783203125 621.705078125 216.448242188 669.959960938 c 0,27,28
 285.8984375 729.102539062 285.8984375 729.102539062 361.791992188 761.22265625 c 0,29,30
 378.065429688 768.567382812 378.065429688 768.567382812 389.034179688 769.896484375 c 2,31,32
 392.08984375 745.266601562 392.08984375 745.266601562 395.146484375 770.637695312 c 1,33,34
 405.373046875 762.456054688 405.373046875 762.456054688 410.9921875 756.212890625 c 0,35,36
 422.25 744.696289062 422.25 744.696289062 422.25 727.475585938 c 0,37,38
 422.25 704.758789062 422.25 704.758789062 393.088867188 685.916992188 c 0,39,40
 380.580078125 677.8359375 380.580078125 677.8359375 364.791015625 670.877929688 c 0,41,42
 340.276367188 655.708984375 340.276367188 655.708984375 312.587890625 630.778320312 c 0,0,1
305.825195312 358.735351562 m 0,43,44
 286.995117188 370 286.995117188 370 259.2265625 370 c 128,-1,45
 231.583007812 370 231.583007812 370 200.741210938 347.043945312 c 0,46,47
 173.740234375 326.9453125 173.740234375 326.9453125 159.173828125 309.15234375 c 1,48,49
 157.82421875 295.61328125 157.82421875 295.61328125 156.680664062 283.293945312 c 128,-1,50
 155.536132812 270.974609375 155.536132812 270.974609375 155.536132812 247.094726562 c 128,-1,51
 155.536132812 223.213867188 155.536132812 223.213867188 160.889648438 189.311523438 c 128,-1,52
 166.244140625 155.408203125 166.244140625 155.408203125 179.028320312 127.954101562 c 128,-1,53
 191.814453125 100.499023438 191.814453125 100.499023438 212.014648438 84.25 c 128,-1,54
 232.215820312 68 232.215820312 68 261.23828125 68 c 128,-1,55
 290.260742188 68 290.260742188 68 308.420898438 81.4658203125 c 128,-1,56
 326.581054688 94.9306640625 326.581054688 94.9306640625 339.125 117.904296875 c 128,-1,57
 351.666992188 140.877929688 351.666992188 140.877929688 357.29296875 169.349609375 c 128,-1,58
 362.91796875 197.8203125 362.91796875 197.8203125 362.91796875 225.703125 c 128,-1,59
 362.91796875 253.5859375 362.91796875 253.5859375 356.595703125 280.346679688 c 0,60,61
 343.387695312 336.263671875 343.387695312 336.263671875 305.825195312 358.735351562 c 0,43,44
EndSplineSet
EndChar

StartChar: seven
Encoding: 55 55 40
Width: 445
Flags: W
LayerCount: 2
Fore
SplineSet
431.2265625 650.344726562 m 132,-1,1
 431.2265625 636.619140625 431.2265625 636.619140625 413.96875 592.186523438 c 4,2,3
 407.01953125 574.297851562 407.01953125 574.297851562 399.500976562 552.606445312 c 132,-1,4
 391.981445312 530.915039062 391.981445312 530.915039062 384.072265625 511.07421875 c 132,-1,5
 376.162109375 491.233398438 376.162109375 491.233398438 370.625 475.951171875 c 132,-1,6
 365.0859375 460.66796875 365.0859375 460.66796875 362.677734375 454.584960938 c 4,7,8
 312.79296875 327.727539062 312.79296875 327.727539062 258.642578125 203.610351562 c 132,-1,9
 204.495117188 79.4931640625 204.495117188 79.4931640625 137.880859375 -42.96875 c 4,10,11
 128.826171875 -59.8896484375 128.826171875 -59.8896484375 110.080078125 -59.8896484375 c 4,12,13
 98.650390625 -59.8896484375 98.650390625 -59.8896484375 87.8955078125 -53.1416015625 c 132,-1,14
 77.1416015625 -46.3935546875 77.1416015625 -46.3935546875 70.607421875 -35.06640625 c 4,15,16
 64.0478515625 -24.3681640625 64.0478515625 -24.3681640625 64.0478515625 -12.7216796875 c 4,17,18
 64.0478515625 -6.720703125 64.0478515625 -6.720703125 66.06640625 -0.3896484375 c 6,19,20
 102.609375 109.401367188 102.609375 109.401367188 145.899414062 187.280273438 c 5,21,22
 189.547851562 285.487304688 189.547851562 285.487304688 233.1953125 373.828125 c 5,23,24
 254.331054688 418.547851562 254.331054688 418.547851562 275.465820312 470.061523438 c 6,25,26
 295.75390625 516.057617188 295.75390625 516.057617188 313.930664062 563.395507812 c 5,27,28
 314.090820312 552.4609375 314.090820312 552.4609375 314.251953125 565.084960938 c 5,29,-1
 47.2265625 565.084960938 l 6,30,31
 27.564453125 565.084960938 27.564453125 565.084960938 18.4609375 576.078125 c 4,32,33
 11.36328125 584.651367188 11.36328125 584.651367188 11.36328125 597.125976562 c 4,34,35
 11.36328125 602.999023438 11.36328125 602.999023438 13.1123046875 608.927734375 c 4,36,37
 21.2421875 637.276367188 21.2421875 637.276367188 30.5810546875 679.266601562 c 132,-1,38
 39.919921875 721.2578125 39.919921875 721.2578125 44.4462890625 735.715820312 c 4,39,40
 53.1943359375 763.65625 53.1943359375 763.65625 70.4765625 763.65625 c 4,41,42
 76.939453125 763.65625 76.939453125 763.65625 85.23046875 760.405273438 c 132,-1,43
 93.5205078125 757.153320312 93.5205078125 757.153320312 98.568359375 750.107421875 c 4,44,45
 106.14453125 740.70703125 106.14453125 740.70703125 106.14453125 727.106445312 c 6,46,47
 106.14453125 704.657226562 106.14453125 704.657226562 106.14453125 726.478515625 c 6,48,49
 105.548828125 714.5625 105.548828125 714.5625 105.548828125 707.067382812 c 132,-1,50
 105.548828125 699.573242188 105.548828125 699.573242188 105.68359375 695.048828125 c 132,-1,51
 105.817382812 690.525390625 105.817382812 690.525390625 105.840820312 686.060546875 c 5,52,53
 112.37890625 666.1796875 112.37890625 666.1796875 118.916015625 685.715820312 c 5,54,-1
 228.349609375 685.715820312 l 6,55,56
 247.408203125 685.715820312 247.408203125 685.715820312 264.684570312 686.626953125 c 6,57,58
 264.90625 666.8828125 264.90625 666.8828125 265.127929688 686.645507812 c 6,59,60
 294.393554688 687.581054688 294.393554688 687.581054688 324 689 c 4,61,62
 351.291015625 690.418945312 351.291015625 690.418945312 376.4765625 690.418945312 c 6,63,-1
 386.2265625 690.418945312 l 6,64,65
 397.53125 690.418945312 397.53125 690.418945312 407.713867188 686.162109375 c 132,-1,66
 417.896484375 681.904296875 417.896484375 681.904296875 423.377929688 674.571289062 c 4,67,0
 431.2265625 664.0703125 431.2265625 664.0703125 431.2265625 650.344726562 c 132,-1,1
EndSplineSet
EndChar

StartChar: eight
Encoding: 56 56 41
Width: 455
Flags: W
LayerCount: 2
Fore
SplineSet
423.044921875 190.728515625 m 128,-1,1
 423.044921875 151.296875 423.044921875 151.296875 410.3203125 114.4765625 c 128,-1,2
 397.594726562 77.65625 397.594726562 77.65625 374.741210938 48.658203125 c 128,-1,3
 351.888671875 19.6611328125 351.888671875 19.6611328125 318.319335938 3.884765625 c 0,4,5
 279.962890625 -13 279.962890625 -13 239.150390625 -13 c 128,-1,6
 198.337890625 -13 198.337890625 -13 159.631835938 -3.720703125 c 0,7,8
 122.39453125 4.953125 122.39453125 4.953125 96.599609375 25.8486328125 c 128,-1,9
 70.8046875 46.7451171875 70.8046875 46.7451171875 54.2158203125 82.1083984375 c 0,10,11
 36.6875 119.474609375 36.6875 119.474609375 36.6845703125 173.166015625 c 0,12,13
 36.6845703125 232.174804688 36.6845703125 232.174804688 69.3515625 283.064453125 c 0,14,15
 84.3486328125 306.427734375 84.3486328125 306.427734375 101.73046875 322.673828125 c 128,-1,16
 119.111328125 338.920898438 119.111328125 338.920898438 135.754882812 350.41015625 c 1,17,18
 120.200195312 362.123046875 120.200195312 362.123046875 104.224609375 377.608398438 c 128,-1,19
 88.25 393.092773438 88.25 393.092773438 73.349609375 414.756835938 c 128,-1,20
 58.4501953125 436.419921875 58.4501953125 436.419921875 48.044921875 462.896484375 c 128,-1,21
 37.6396484375 489.373046875 37.6396484375 489.373046875 36.759765625 523.358398438 c 2,22,23
 36.7578125 512.413085938 36.7578125 512.413085938 36.7548828125 523.583984375 c 2,24,25
 36.7080078125 526.134765625 36.7080078125 526.134765625 36.7080078125 528.66796875 c 0,26,27
 36.7080078125 572.448242188 36.7080078125 572.448242188 50.869140625 608.784179688 c 128,-1,28
 65.03125 645.12109375 65.03125 645.12109375 89.1923828125 671.533203125 c 128,-1,29
 113.352539062 697.946289062 113.352539062 697.946289062 148.75 711.983398438 c 0,30,31
 187.676757812 727 187.676757812 727 227.236328125 727 c 128,-1,32
 266.795898438 727 266.795898438 727 303.455078125 715.389648438 c 0,33,34
 338.400390625 704.541992188 338.400390625 704.541992188 362.3515625 682.697265625 c 128,-1,35
 386.301757812 660.852539062 386.301757812 660.852539062 401.963867188 626.70703125 c 0,36,37
 418.552734375 590.540039062 418.552734375 590.540039062 418.555664062 543.642578125 c 0,38,39
 418.555664062 475.10546875 418.555664062 475.10546875 378.92578125 428.086914062 c 0,40,41
 361.5703125 407.495117188 361.5703125 407.495117188 339.034179688 391.16015625 c 0,42,43
 332.3515625 386.31640625 332.3515625 386.31640625 324.340820312 381.6640625 c 1,44,45
 387.28515625 332.815429688 387.28515625 332.815429688 412.833984375 259.47265625 c 0,46,0
 423.044921875 230.161132812 423.044921875 230.161132812 423.044921875 190.728515625 c 128,-1,1
152.19921875 278.364257812 m 128,-1,48
 132.59375 243.916992188 132.59375 243.916992188 132.59375 202.147460938 c 0,49,50
 132.59375 172.703125 132.59375 172.703125 138.30859375 146.9296875 c 128,-1,51
 144.0234375 121.155273438 144.0234375 121.155273438 154.31640625 104.387695312 c 128,-1,52
 164.611328125 87.6201171875 164.611328125 87.6201171875 179.900390625 77.810546875 c 128,-1,53
 195.189453125 68 195.189453125 68 215.16015625 68 c 128,-1,54
 235.129882812 68 235.129882812 68 248.720703125 70.1083984375 c 128,-1,55
 262.309570312 72.2158203125 262.309570312 72.2158203125 276.6796875 79.607421875 c 0,56,57
 302.256835938 92.7216796875 302.256835938 92.7216796875 311.995117188 115.694335938 c 128,-1,58
 321.732421875 138.666992188 321.732421875 138.666992188 321.732421875 166.655273438 c 0,59,60
 321.732421875 203.8359375 321.732421875 203.8359375 311.025390625 229.326171875 c 0,61,62
 290.946289062 277.125 290.946289062 277.125 245.33203125 306.4765625 c 0,63,64
 225.860351562 319.006835938 225.860351562 319.006835938 204.552734375 328.935546875 c 1,65,47
 171.803710938 312.8125 171.803710938 312.8125 152.19921875 278.364257812 c 128,-1,48
292.952148438 615.193359375 m 0,66,67
 266.71484375 648 266.71484375 648 221.127929688 648 c 0,68,69
 181.416992188 648 181.416992188 648 157.110351562 619.63671875 c 128,-1,70
 132.803710938 591.2734375 132.803710938 591.2734375 132.71875 546.33203125 c 0,71,72
 133.543945312 515.153320312 133.543945312 515.153320312 152.38671875 486.5078125 c 0,73,74
 158.56640625 477.282226562 158.56640625 477.282226562 171.298828125 463.456054688 c 0,75,76
 200.474609375 431.775390625 200.474609375 431.775390625 229.942382812 413.110351562 c 0,77,78
 239.826171875 406.849609375 239.826171875 406.849609375 248.078125 403.31640625 c 1,79,80
 262.3203125 408.8984375 262.3203125 408.8984375 275.793945312 421.27734375 c 128,-1,81
 289.267578125 433.657226562 289.267578125 433.657226562 299.826171875 451.493164062 c 128,-1,82
 310.426757812 469.397460938 310.426757812 469.397460938 315.9453125 490.372070312 c 128,-1,83
 321.451171875 511.294921875 321.451171875 511.294921875 321.508789062 531.564453125 c 0,84,85
 320.666992188 556.124023438 320.666992188 556.124023438 312.90625 578.038085938 c 128,-1,86
 305.145507812 599.946289062 305.145507812 599.946289062 292.952148438 615.193359375 c 0,66,67
EndSplineSet
EndChar

StartChar: nine
Encoding: 57 57 42
Width: 513
Flags: W
LayerCount: 2
Fore
SplineSet
253.806640625 324 m 128,-1,1
 280.767578125 324 280.767578125 324 312.735351562 347.133789062 c 0,2,3
 336.20703125 364.119140625 336.20703125 364.119140625 354.549804688 385.295898438 c 1,4,5
 355.872070312 398.577148438 355.872070312 398.577148438 357.006835938 410.80078125 c 128,-1,6
 358.142578125 423.025390625 358.142578125 423.025390625 358.142578125 446.905273438 c 128,-1,7
 358.142578125 470.786132812 358.142578125 470.786132812 352.7890625 504.688476562 c 128,-1,8
 347.434570312 538.591796875 347.434570312 538.591796875 334.650390625 566.045898438 c 128,-1,9
 321.864257812 593.500976562 321.864257812 593.500976562 301.6640625 609.75 c 128,-1,10
 281.462890625 626 281.462890625 626 252.440429688 626 c 128,-1,11
 223.416992188 626 223.416992188 626 205.221679688 612.5078125 c 128,-1,12
 187.026367188 599.016601562 187.026367188 599.016601562 174.478515625 576.431640625 c 128,-1,13
 161.931640625 553.846679688 161.931640625 553.846679688 155.90234375 524.94921875 c 128,-1,14
 149.875 496.051757812 149.875 496.051757812 149.875 468.317382812 c 128,-1,15
 149.875 440.583007812 149.875 440.583007812 156.58203125 413.860351562 c 0,16,17
 170.3828125 358.868164062 170.3828125 358.868164062 208.1171875 335.565429688 c 0,18,0
 226.846679688 324 226.846679688 324 253.806640625 324 c 128,-1,1
304.319335938 189.825195312 m 0,19,20
 319.209960938 224.59765625 319.209960938 224.59765625 330.903320312 264.926757812 c 1,21,22
 276.21484375 228 276.21484375 228 219.001953125 228 c 0,23,24
 174.3515625 228 174.3515625 228 138.573242188 245.251953125 c 0,25,26
 107.798828125 262.446289062 107.798828125 262.446289062 86.416015625 292.181640625 c 128,-1,27
 65.125 321.7890625 65.125 321.7890625 53.833984375 361.969726562 c 128,-1,28
 42.5419921875 402.150390625 42.5419921875 402.150390625 42.5419921875 449.946289062 c 128,-1,29
 42.5419921875 497.7421875 42.5419921875 497.7421875 56.05078125 543.801757812 c 128,-1,30
 69.560546875 589.860351562 69.560546875 589.860351562 93.5966796875 626.533203125 c 128,-1,31
 117.633789062 663.20703125 117.633789062 663.20703125 155.287109375 685.006835938 c 0,32,33
 196.04296875 708 196.04296875 708 245.25 708 c 128,-1,34
 294.45703125 708 294.45703125 708 341.978515625 685.01953125 c 0,35,36
 380.880859375 667.432617188 380.880859375 667.432617188 404.196289062 638.950195312 c 0,37,38
 449.765625 583.28125 449.765625 583.28125 463.998046875 501.013671875 c 0,39,40
 470.791992188 461.7421875 470.791992188 461.7421875 470.791992188 420.994140625 c 0,41,42
 470.791992188 341.682617188 470.791992188 341.682617188 452.6640625 273.05859375 c 128,-1,43
 434.537109375 204.434570312 434.537109375 204.434570312 404.171875 149.0078125 c 0,44,45
 372.862304688 93.47265625 372.862304688 93.47265625 325.140625 52.5966796875 c 128,-1,46
 277.537109375 11.8212890625 277.537109375 11.8212890625 225.921875 -10.0068359375 c 0,47,48
 216.14453125 -15.013671875 216.14453125 -15.013671875 201.295898438 -22.2744140625 c 128,-1,49
 186.44921875 -29.5341796875 186.44921875 -29.5341796875 173.171875 -30.896484375 c 2,50,51
 171 -32 171 -32 165.94921875 -31.6376953125 c 1,52,53
 159.75 -28 159.75 -28 159.76953125 -27.453125 c 2,54,55
 153.41015625 -23.1474609375 153.41015625 -23.1474609375 146.43359375 -15.9306640625 c 0,56,57
 134.041992188 -4.1943359375 134.041992188 -4.1943359375 134.041992188 12.125 c 0,58,59
 134.041992188 23.1337890625 134.041992188 23.1337890625 143.098632812 31.9619140625 c 0,60,61
 150.95703125 39.5224609375 150.95703125 39.5224609375 210.373046875 75.62890625 c 0,62,63
 222.80078125 83.1806640625 222.80078125 83.1806640625 228.41015625 88.2041015625 c 0,64,65
 278.84375 133.05078125 278.84375 133.05078125 304.319335938 189.825195312 c 0,19,20
EndSplineSet
EndChar

StartChar: colon
Encoding: 58 58 43
Width: 197
Flags: W
LayerCount: 2
Fore
SplineSet
24.75 409 m 0,0,1
 24.75 443.153320312 24.75 443.153320312 44.0458984375 469.577148438 c 0,2,3
 63.341796875 496 63.341796875 496 90.0947265625 496 c 0,4,5
 116.84765625 496 116.84765625 496 137.923828125 469.954101562 c 0,6,7
 159 443.909179688 159 443.909179688 159 405.6875 c 0,8,9
 159 367.465820312 159 367.465820312 138.436523438 340.732421875 c 0,10,11
 117.873046875 314 117.873046875 314 90 314 c 0,12,13
 85.095703125 314 85.095703125 314 80.9716796875 315.704101562 c 0,14,15
 70.203125 318.034179688 70.203125 318.034179688 59.7900390625 326.62890625 c 0,16,17
 40.919921875 342.204101562 40.919921875 342.204101562 30.0458984375 375.55078125 c 0,18,19
 24.75 391.791015625 24.75 391.791015625 24.75 409 c 0,0,1
159 51 m 0,20,21
 159 14.189453125 159 14.189453125 139.0859375 -14.4052734375 c 0,22,23
 119.171875 -43 119.171875 -43 90.75 -43 c 0,24,25
 76.5703125 -43 76.5703125 -43 63.8662109375 -34.5302734375 c 0,26,27
 51.1611328125 -26.060546875 51.1611328125 -26.060546875 43.037109375 -13.197265625 c 0,28,29
 34.912109375 -0.3330078125 34.912109375 -0.3330078125 29.4560546875 16.201171875 c 0,30,31
 24 32.734375 24 32.734375 24 51 c 0,32,33
 24 88.7470703125 24 88.7470703125 43.8916015625 113.873046875 c 0,34,35
 63.7841796875 139 63.7841796875 139 90.685546875 139 c 0,36,37
 117.586914062 139 117.586914062 139 138.29296875 113.461914062 c 0,38,39
 159 87.923828125 159 87.923828125 159 51 c 0,20,21
EndSplineSet
EndChar

StartChar: semicolon
Encoding: 59 59 44
Width: 198
Flags: W
LayerCount: 2
Fore
SplineSet
165.75 406 m 0,0,1
 165.75 367.841796875 165.75 367.841796875 146.077148438 340.920898438 c 0,2,3
 126.404296875 314 126.404296875 314 97.5 314 c 0,4,5
 93.2685546875 314 93.2685546875 314 89.619140625 315.544921875 c 0,6,7
 63.59765625 320.043945312 63.59765625 320.043945312 49.798828125 346.619140625 c 0,8,9
 36 373.194335938 36 373.194335938 36 404 c 0,10,11
 36 442.717773438 36 442.717773438 53.6279296875 468.358398438 c 0,12,13
 71.2568359375 494 71.2568359375 494 99.73046875 494 c 0,14,15
 128.204101562 494 128.204101562 494 146.977539062 466.883789062 c 0,16,17
 165.75 439.767578125 165.75 439.767578125 165.75 406 c 0,0,1
181.5 -12 m 0,18,19
 181.5 -55.8203125 181.5 -55.8203125 168.48046875 -91.1171875 c 0,20,21
 155.4609375 -126.415039062 155.4609375 -126.415039062 132.08203125 -154.123046875 c 0,22,23
 117.984375 -169.161132812 117.984375 -169.161132812 101.939453125 -182.9140625 c 0,24,25
 75.638671875 -205.45703125 75.638671875 -205.45703125 64.005859375 -210.498046875 c 0,26,27
 58.232421875 -213 58.232421875 -213 53.25 -213 c 0,28,29
 38.7734375 -213 38.7734375 -213 31.4619140625 -197.034179688 c 0,30,31
 24 -187.219726562 24 -187.219726562 24 -172 c 0,32,33
 24 -159.662109375 24 -159.662109375 33.412109375 -148.680664062 c 0,34,35
 47.5380859375 -132.201171875 47.5380859375 -132.201171875 52.6689453125 -128.469726562 c 0,36,37
 75.9716796875 -107.611328125 75.9716796875 -107.611328125 84.7412109375 -92.021484375 c 0,38,39
 89.8994140625 -82.8515625 89.8994140625 -82.8515625 92.94921875 -72.1279296875 c 0,40,41
 96 -61.4052734375 96 -61.4052734375 96 -45 c 1,42,-1
 94.7333984375 -34.59765625 l 1,43,44
 89.54296875 -26.8125 89.54296875 -26.8125 73.8525390625 -22.1630859375 c 0,45,46
 58.1630859375 -17.5146484375 58.1630859375 -17.5146484375 47.259765625 -8.365234375 c 0,47,48
 35.94140625 0.541015625 35.94140625 0.541015625 29.2275390625 13.2236328125 c 0,49,50
 20.25 30.1806640625 20.25 30.1806640625 20.25 52 c 0,51,52
 20.25 93.45703125 20.25 93.45703125 46.3203125 116.384765625 c 0,53,54
 68.625 136 68.625 136 93 136 c 0,55,56
 117.494140625 136 117.494140625 136 134.150390625 120.9765625 c 0,57,58
 150.806640625 105.953125 150.806640625 105.953125 161.762695312 84.041015625 c 0,59,60
 181.5 44.56640625 181.5 44.56640625 181.5 -12 c 0,18,19
EndSplineSet
EndChar

StartChar: less
Encoding: 60 60 45
Width: 351
Flags: W
LayerCount: 2
Fore
SplineSet
335.25 450 m 2,0,-1
 335.25 437.450195312 l 1,1,2
 261.471679688 364.1953125 261.471679688 364.1953125 225.75 326.241210938 c 0,3,4
 189.036132812 287.232421875 189.036132812 287.232421875 132.754882812 229.87890625 c 1,5,6
 190.973632812 169.983398438 190.973632812 169.983398438 220.108398438 142.235351562 c 0,7,8
 243.385742188 120.06640625 243.385742188 120.06640625 342 29.1015625 c 1,9,-1
 342 16 l 2,10,11
 342 2.4541015625 342 2.4541015625 340.018554688 -4.591796875 c 0,12,13
 338.037109375 -11.6376953125 338.037109375 -11.6376953125 336.618164062 -14.9462890625 c 0,14,15
 335.200195312 -18.2548828125 335.200195312 -18.2548828125 334.706054688 -19.8564453125 c 0,16,17
 334.5 -22 334.5 -22 334.5 -26 c 2,18,-1
 334.5 -67.3779296875 l 1,19,20
 262.461914062 -16.9111328125 262.461914062 -16.9111328125 231.008789062 7.3427734375 c 0,21,22
 172.512695312 52.4482421875 172.512695312 52.4482421875 107.119140625 109.573242188 c 0,23,24
 74.6953125 137.896484375 74.6953125 137.896484375 18.75 184.07421875 c 1,25,-1
 18.75 275.383789062 l 1,26,27
 87.654296875 328.797851562 87.654296875 328.797851562 117.666992188 355.224609375 c 0,28,29
 147.680664062 381.651367188 147.680664062 381.651367188 165.698242188 398.66796875 c 0,30,31
 232.262695312 461.534179688 232.262695312 461.534179688 303.319335938 511.161132812 c 2,32,-1
 330.75 530.319335938 l 1,33,-1
 330.75 489 l 2,34,35
 330.75 482.072265625 330.75 482.072265625 331.834960938 477.731445312 c 0,36,37
 332.920898438 473.390625 332.920898438 473.390625 334.084960938 467.955078125 c 0,38,39
 335.25 462.51953125 335.25 462.51953125 335.25 450 c 2,0,-1
EndSplineSet
EndChar

StartChar: equal
Encoding: 61 61 46
Width: 393
Flags: W
LayerCount: 2
Fore
SplineSet
246 282 m 1,0,-1
 45.75 281 l 1,1,-1
 35.55078125 281 l 1,2,-1
 29.99609375 292.444335938 l 2,3,4
 17.9462890625 317.275390625 17.9462890625 317.275390625 17.9462890625 337.248046875 c 0,5,6
 17.9462890625 357.220703125 17.9462890625 357.220703125 29.4150390625 384.274414062 c 2,7,-1
 34.8095703125 397 l 1,8,-1
 45.75 397 l 2,9,10
 116.3515625 397 116.3515625 397 180.856445312 396 c 0,11,12
 245.361328125 395 245.361328125 395 291.75 395 c 2,13,-1
 361.124023438 395 l 1,14,-1
 364.135742188 374.921875 l 2,15,16
 366 362.49609375 366 362.49609375 366 354 c 2,17,-1
 366 340 l 2,18,19
 366 331.365234375 366 331.365234375 365.6015625 320.733398438 c 0,20,21
 364.9140625 302.41796875 364.9140625 302.41796875 357.16015625 290.010742188 c 2,22,-1
 350.848632812 279.9140625 l 1,23,24
 333.637695312 282 333.637695312 282 324 282 c 2,25,-1
 246 282 l 1,0,-1
42.75 233 m 1,26,-1
 135 234 l 1,27,-1
 353.084960938 234 l 1,28,-1
 358.709960938 223.614257812 l 2,29,30
 370.427734375 201.982421875 370.427734375 201.982421875 370.427734375 180.916992188 c 0,31,32
 370.427734375 162.21875 370.427734375 162.21875 360.643554688 132.866210938 c 2,33,-1
 355.930664062 118.727539062 l 1,34,35
 327.432617188 117 327.432617188 117 309 117 c 2,36,-1
 185.25 117 l 2,37,38
 92.7197265625 117 92.7197265625 117 23.25 119.724609375 c 1,39,-1
 23.25 144 l 2,40,41
 23.25 148.927734375 23.25 148.927734375 21.375 156.427734375 c 0,42,43
 19.5 163.927734375 19.5 163.927734375 19.5 175.090820312 c 0,44,45
 19.5 186.252929688 19.5 186.252929688 21.5732421875 196.758789062 c 0,46,47
 23.646484375 207.263671875 23.646484375 207.263671875 26.8642578125 233 c 1,48,-1
 42.75 233 l 1,26,-1
EndSplineSet
EndChar

StartChar: greater
Encoding: 62 62 47
Width: 351
Flags: W
LayerCount: 2
Fore
SplineSet
17.25 16 m 2,0,-1
 17.25 29.060546875 l 1,1,2
 96.3330078125 102.413085938 96.3330078125 102.413085938 183.834960938 189.081054688 c 0,3,4
 202.375976562 207.4453125 202.375976562 207.4453125 225.749023438 230.268554688 c 1,5,6
 208.2109375 247.993164062 208.2109375 247.993164062 189.099609375 268.131835938 c 0,7,8
 169.98828125 288.270507812 169.98828125 288.270507812 145.629882812 313.252929688 c 0,9,10
 121.271484375 338.236328125 121.271484375 338.236328125 93.9580078125 366.671875 c 0,11,12
 66.64453125 395.108398438 66.64453125 395.108398438 24 437.450195312 c 1,13,-1
 24 450 l 2,14,15
 24 462.51953125 24 462.51953125 25.1650390625 467.955078125 c 0,16,17
 26.3291015625 473.390625 26.3291015625 473.390625 27.01953125 476.149414062 c 0,18,19
 28.5 482.072265625 28.5 482.072265625 28.5 489 c 2,20,-1
 28.5 531.223632812 l 1,21,-1
 56.24609375 510.935546875 l 2,22,23
 103.223632812 476.586914062 103.223632812 476.586914062 134.809570312 450.201171875 c 0,24,25
 166.259765625 423.9296875 166.259765625 423.9296875 193.712890625 398.858398438 c 0,26,27
 221.165039062 373.788085938 221.165039062 373.788085938 252.365234375 346.549804688 c 0,28,29
 283.565429688 319.311523438 283.565429688 319.311523438 340.5 275.424804688 c 1,30,-1
 340.5 184.07421875 l 1,31,32
 300.25390625 150.85546875 300.25390625 150.85546875 275.915039062 129.88671875 c 0,33,34
 249.040039062 106.732421875 249.040039062 106.732421875 229.44140625 90.279296875 c 0,35,36
 209.842773438 73.826171875 209.842773438 73.826171875 190.04296875 57.232421875 c 0,37,38
 170.244140625 40.638671875 170.244140625 40.638671875 149.7890625 24.4765625 c 0,39,40
 114.287109375 -3.57421875 114.287109375 -3.57421875 24.75 -67.8564453125 c 1,41,-1
 24.75 -26 l 2,42,43
 24.75 -19.890625 24.75 -19.890625 22.9814453125 -15.763671875 c 0,44,45
 21.212890625 -11.6376953125 21.212890625 -11.6376953125 19.2314453125 -4.591796875 c 0,46,47
 17.25 2.4541015625 17.25 2.4541015625 17.25 16 c 2,0,-1
EndSplineSet
EndChar

StartChar: question
Encoding: 63 63 48
Width: 275
Flags: W
LayerCount: 2
Fore
SplineSet
149.25 40 m 0,0,1
 149.25 2.4443359375 149.25 2.4443359375 127.6328125 -22.0546875 c 0,2,3
 110.795898438 -41.13671875 110.795898438 -41.13671875 90.0791015625 -41.13671875 c 0,4,5
 84.65234375 -41.13671875 84.65234375 -41.13671875 79.10546875 -39.7822265625 c 0,6,7
 53.4072265625 -36.3544921875 53.4072265625 -36.3544921875 39.4541015625 -11.3095703125 c 0,8,9
 25.5 13.7353515625 25.5 13.7353515625 25.5 44 c 0,10,11
 25.5 79.8935546875 25.5 79.8935546875 42.4462890625 103.947265625 c 0,12,13
 59.392578125 128 59.392578125 128 87.84375 128 c 0,14,15
 116.293945312 128 116.293945312 128 133.560546875 99.0380859375 c 0,16,17
 149.25 72.7197265625 149.25 72.7197265625 149.25 40 c 0,0,1
50.25 237 m 1,18,-1
 51 284 l 2,19,20
 51 302.094726562 51 302.094726562 50.375 313.76171875 c 0,21,22
 49.75 325.428710938 49.75 325.428710938 49.75 331.865234375 c 0,23,24
 49.75 338.301757812 49.75 338.301757812 50.0810546875 347.125 c 0,25,26
 50.412109375 355.948242188 50.412109375 355.948242188 53.7373046875 368.364257812 c 0,27,28
 57.0634765625 380.779296875 57.0634765625 380.779296875 67.119140625 390.356445312 c 2,29,-1
 69.0048828125 392.153320312 l 1,30,31
 91.4404296875 403.904296875 91.4404296875 403.904296875 111.668945312 417.153320312 c 0,32,33
 131.896484375 430.40234375 131.896484375 430.40234375 147.970703125 446.5859375 c 0,34,35
 164.044921875 462.768554688 164.044921875 462.768554688 172.772460938 483.634765625 c 0,36,37
 181.5 504.501953125 181.5 504.501953125 181.5 534 c 0,38,39
 181.5 575.263671875 181.5 575.263671875 161.33984375 608.213867188 c 0,40,41
 151.993164062 623.490234375 151.993164062 623.490234375 139.556640625 632.745117188 c 0,42,43
 127.120117188 642 127.120117188 642 115.456054688 642 c 0,44,45
 103.791992188 642 103.791992188 642 90.2919921875 635.5 c 0,46,47
 76.7919921875 629 76.7919921875 629 60.75 629 c 0,48,49
 41.13671875 629 41.13671875 629 25.443359375 646.705078125 c 0,50,51
 9.75 664.41015625 9.75 664.41015625 9.75 693 c 0,52,53
 9.75 715.232421875 9.75 715.232421875 17.044921875 730.6328125 c 0,54,55
 24.33984375 746.032226562 24.33984375 746.032226562 35.9482421875 754.140625 c 0,56,57
 47.5576171875 762.248046875 47.5576171875 762.248046875 58.8134765625 764.124023438 c 0,58,59
 70.0693359375 766 70.0693359375 766 81 766 c 0,60,61
 118.865234375 766 118.865234375 766 152.0859375 736.84375 c 0,62,63
 185.307617188 707.6875 185.307617188 707.6875 210.375 665.638671875 c 0,64,65
 235.443359375 623.588867188 235.443359375 623.588867188 250.096679688 573.659179688 c 0,66,67
 264.75 523.728515625 264.75 523.728515625 264.75 478.861328125 c 0,68,69
 264.75 433.995117188 264.75 433.995117188 252.876953125 402.920898438 c 0,70,71
 231.192382812 346.1640625 231.192382812 346.1640625 186.68359375 314.018554688 c 2,72,-1
 152.208984375 289.037109375 l 2,73,74
 137.095703125 278.045898438 137.095703125 278.045898438 125.96484375 266.352539062 c 0,75,76
 118.4296875 258.436523438 118.4296875 258.436523438 116.318359375 248.302734375 c 2,77,-1
 114.61328125 240.1171875 l 1,78,-1
 114.001953125 239.505859375 l 1,79,-1
 114.001953125 239 l 1,80,-1
 114.001953125 212 l 2,81,82
 114.001953125 176.873046875 114.001953125 176.873046875 102.69921875 161.190429688 c 0,83,84
 94.99609375 150.500976562 94.99609375 150.500976562 83.4658203125 149.103515625 c 2,85,-1
 80.451171875 148.73828125 l 1,86,-1
 77.5234375 149.638671875 l 2,87,88
 68.3935546875 152.448242188 68.3935546875 152.448242188 61.28125 161.151367188 c 0,89,90
 50.25 174.651367188 50.25 174.651367188 50.25 210 c 2,91,-1
 50.25 237 l 1,18,-1
EndSplineSet
EndChar

StartChar: at
Encoding: 64 64 49
Width: 673
Flags: W
LayerCount: 2
Fore
SplineSet
298.5 119 m 0,0,1
 298.5 98.4580078125 298.5 98.4580078125 304.40234375 88.166015625 c 0,2,3
 308.512695312 81 308.512695312 81 322.291015625 81 c 0,4,5
 336.0703125 81 336.0703125 81 348.974609375 89.603515625 c 0,6,7
 361.879882812 98.2060546875 361.879882812 98.2060546875 370.013671875 109.655273438 c 0,8,9
 373.766601562 115.599609375 373.766601562 115.599609375 378.818359375 125.704101562 c 0,10,11
 383.87109375 135.80859375 383.87109375 135.80859375 385.657226562 142.481445312 c 1,12,-1
 387 174.705078125 l 1,13,-1
 387 198.015625 l 1,14,15
 373.206054688 192.430664062 373.206054688 192.430664062 360.798828125 185.958007812 c 0,16,17
 348.390625 179.484375 348.390625 179.484375 340.37890625 176.247070312 c 0,18,19
 322.939453125 167.831054688 322.939453125 167.831054688 308.895507812 151.602539062 c 0,20,21
 298.5 139.58984375 298.5 139.58984375 298.5 119 c 0,0,1
357.75 -92 m 0,22,23
 401.142578125 -92 401.142578125 -92 449.541992188 -69.84765625 c 0,24,25
 472.967773438 -59.125 472.967773438 -59.125 493.038085938 -43.703125 c 0,26,27
 513.108398438 -28.2822265625 513.108398438 -28.2822265625 526.124023438 -9.193359375 c 2,28,-1
 533.858398438 2.1513671875 l 1,29,30
 565.912109375 -9.5048828125 565.912109375 -9.5048828125 577.870117188 -12.4033203125 c 2,31,-1
 611.081054688 -20.455078125 l 1,32,-1
 588.385742188 -53.79296875 l 2,33,34
 541.440429688 -122.751953125 541.440429688 -122.751953125 481.537109375 -157.895507812 c 0,35,36
 421.69921875 -193 421.69921875 -193 352.5 -193 c 0,37,38
 302.462890625 -193 302.462890625 -193 255.194335938 -173.93359375 c 0,39,40
 207.98828125 -154.892578125 207.98828125 -154.892578125 167.38671875 -119.333007812 c 0,41,42
 126.78515625 -83.7734375 126.78515625 -83.7734375 95.69140625 -32.748046875 c 0,43,44
 64.0205078125 19.224609375 64.0205078125 19.224609375 46.1669921875 82.3056640625 c 0,45,46
 27 151.109375 27 151.109375 27 236.790039062 c 0,47,48
 27 322.469726562 27 322.469726562 53.73046875 400.134765625 c 0,49,50
 80.4609375 477.799804688 80.4609375 477.799804688 126.603515625 536.140625 c 0,51,52
 172.876953125 594.647460938 172.876953125 594.647460938 231.362304688 623.823242188 c 0,53,54
 289.84765625 653 289.84765625 653 353.25 653 c 0,55,56
 393.116210938 653 393.116210938 653 433.731445312 639.196289062 c 0,57,58
 516.265625 611.145507812 516.265625 611.145507812 574.4375 531.428710938 c 0,59,60
 604.459960938 490.286132812 604.459960938 490.286132812 621.6875 439.000976562 c 0,61,62
 632.786132812 405.174804688 632.786132812 405.174804688 639.643554688 369.680664062 c 0,63,64
 646.5 334.186523438 646.5 334.186523438 646.5 290.744140625 c 0,65,66
 646.5 247.30078125 646.5 247.30078125 635.251953125 197.487304688 c 0,67,68
 624.00390625 147.673828125 624.00390625 147.673828125 603.749023438 103.923828125 c 0,69,70
 583.494140625 60.173828125 583.494140625 60.173828125 552.66796875 27.4033203125 c 0,71,72
 521.841796875 -5.3671875 521.841796875 -5.3671875 482.94140625 -15.5146484375 c 0,73,74
 473.622070312 -18 473.622070312 -18 462 -18 c 0,75,76
 428.051757812 -18 428.051757812 -18 408.197265625 11.95703125 c 0,77,78
 400.86328125 23.021484375 400.86328125 23.021484375 395.315429688 36.193359375 c 1,79,80
 360.979492188 -3.6943359375 360.979492188 -3.6943359375 325.08203125 -17.521484375 c 0,81,82
 305.666992188 -25 305.666992188 -25 288 -25 c 0,83,84
 239.528320312 -25 239.528320312 -25 218.145507812 13.69140625 c 0,85,86
 198.75 48.7890625 198.75 48.7890625 198.75 103 c 0,87,88
 198.75 132.975585938 198.75 132.975585938 209.5 156.65625 c 0,89,90
 236.286132812 215.665039062 236.286132812 215.665039062 301.138671875 247.521484375 c 0,91,92
 328.264648438 260.583007812 328.264648438 260.583007812 347.596679688 269.470703125 c 0,93,94
 366.928710938 278.359375 366.928710938 278.359375 387 285.451171875 c 1,95,-1
 387 341 l 2,96,97
 387 377.038085938 387 377.038085938 377.686523438 397.60546875 c 0,98,99
 371.16796875 412 371.16796875 412 347.25 412 c 0,100,101
 328.536132812 412 328.536132812 412 318.516601562 405.139648438 c 0,102,103
 308.497070312 398.279296875 308.497070312 398.279296875 302.958007812 388.784179688 c 0,104,105
 297.418945312 379.2890625 297.418945312 379.2890625 294.995117188 368.78515625 c 0,106,107
 292.571289062 358.28125 292.571289062 358.28125 291.061523438 350.228515625 c 0,108,109
 285.301757812 325.65625 285.301757812 325.65625 267.88671875 308.768554688 c 0,110,111
 250.59375 292 250.59375 292 229.5 292 c 0,112,113
 220.384765625 292 220.384765625 292 213.469726562 297.854492188 c 0,114,115
 203.765625 306.069335938 203.765625 306.069335938 201.6328125 320.287109375 c 0,116,117
 199.5 334.50390625 199.5 334.50390625 199.5 345 c 0,118,119
 199.5 378.93359375 199.5 378.93359375 219.120117188 410.8359375 c 0,120,121
 236.092773438 438.43359375 236.092773438 438.43359375 260.268554688 461.379882812 c 0,122,123
 284.4140625 484.297851562 284.4140625 484.297851562 313.392578125 498.6484375 c 0,124,125
 342.37109375 513 342.37109375 513 366.75 513 c 0,126,127
 377.196289062 513 377.196289062 513 393.635742188 509.1875 c 0,128,129
 420.87109375 502.872070312 420.87109375 502.872070312 433.6171875 494.375 c 0,130,131
 466.5625 472.411132812 466.5625 472.411132812 474.8046875 433.26171875 c 0,132,133
 481.5 401.459960938 481.5 401.459960938 481.5 361.08203125 c 0,134,135
 481.5 320.703125 481.5 320.703125 480.75 278.203125 c 0,136,137
 480 235.703125 480 235.703125 480 193 c 2,138,-1
 480 163 l 2,139,140
 480 110.899414062 480 110.899414062 483.35546875 97.36328125 c 0,141,142
 484.122070312 96 484.122070312 96 489 96 c 0,143,144
 504.375 96 504.375 96 516.857421875 112.989257812 c 0,145,146
 532.748046875 134.618164062 532.748046875 134.618164062 544.354492188 166.0234375 c 0,147,148
 555.9609375 197.4296875 555.9609375 197.4296875 561.850585938 231.612304688 c 0,149,150
 567.75 265.854492188 567.75 265.854492188 567.75 288 c 0,151,152
 567.75 347.486328125 567.75 347.486328125 550.663085938 396.697265625 c 0,153,154
 533.576171875 445.907226562 533.576171875 445.907226562 504.047851562 481.616210938 c 0,155,156
 474.518554688 517.325195312 474.518554688 517.325195312 435.7890625 537.151367188 c 0,157,158
 397.015625 557 397.015625 557 353.25 557 c 0,159,160
 300.549804688 557 300.549804688 557 258.4375 529.845703125 c 0,161,162
 216.32421875 502.690429688 216.32421875 502.690429688 186.596679688 457.522460938 c 0,163,164
 156.747070312 412.169921875 156.747070312 412.169921875 140.624023438 350.947265625 c 0,165,166
 124.5 289.723632812 124.5 289.723632812 124.5 222.708007812 c 0,167,168
 124.5 95.189453125 124.5 95.189453125 184.083984375 5.8720703125 c 0,169,170
 216.671875 -40.2587890625 216.671875 -40.2587890625 260.350585938 -66.142578125 c 0,171,172
 303.985351562 -92 303.985351562 -92 357.75 -92 c 0,22,23
EndSplineSet
EndChar

StartChar: A
Encoding: 65 65 50
Width: 672
Flags: W
LayerCount: 2
Fore
SplineSet
346.58984375 302 m 2,0,-1
 330.297851562 302 l 1,1,-1
 270.014648438 303 l 2,2,3
 240.678710938 303 240.678710938 303 225.047851562 300.854492188 c 1,4,5
 184.806640625 190.35546875 184.806640625 190.35546875 165.416015625 110.966796875 c 0,6,7
 162.248046875 97.998046875 162.248046875 97.998046875 160.860351562 89.984375 c 0,8,9
 160.893554688 87.5146484375 160.893554688 87.5146484375 161.124023438 86.4091796875 c 0,10,11
 171.532226562 82.0810546875 171.532226562 82.0810546875 186.9140625 80.3388671875 c 128,-1,12
 202.296875 78.5966796875 202.296875 78.5966796875 215.454101562 75.4365234375 c 128,-1,13
 228.611328125 72.275390625 228.611328125 72.275390625 236.185546875 63.802734375 c 0,14,15
 246.390625 52.38671875 246.390625 52.38671875 246.390625 34.712890625 c 128,-1,16
 246.390625 17.0390625 246.390625 17.0390625 235.278320312 5.5048828125 c 0,17,18
 224.166015625 -7 224.166015625 -7 209.732421875 -7 c 0,19,20
 181.791015625 -7 181.791015625 -7 154.09375 -3.5 c 128,-1,21
 126.396484375 0 126.396484375 0 104.790039062 0 c 0,22,23
 84.4921875 0 84.4921875 0 70.2421875 -2.5 c 128,-1,24
 55.9921875 -5 55.9921875 -5 37.5 -5 c 0,25,26
 23.2421875 -5 23.2421875 -5 14.6015625 9.400390625 c 0,27,28
 7.5 20.4697265625 7.5 20.4697265625 7.5 34.2783203125 c 0,29,30
 7.5 60.515625 7.5 60.515625 23.87109375 71.3232421875 c 0,31,32
 32.8603515625 77.2578125 32.8603515625 77.2578125 42.3603515625 79.3173828125 c 128,-1,33
 51.859375 81.3779296875 51.859375 81.3779296875 60.4853515625 84.6875 c 0,34,35
 63.6884765625 85.9169921875 63.6884765625 85.9169921875 67.0830078125 92.501953125 c 0,36,37
 68.390625 94.6748046875 68.390625 94.6748046875 72.484375 106.586914062 c 128,-1,38
 76.578125 118.498046875 76.578125 118.498046875 81.7255859375 132.711914062 c 128,-1,39
 86.873046875 146.924804688 86.873046875 146.924804688 90.9306640625 160.725585938 c 128,-1,40
 94.98828125 174.525390625 94.98828125 174.525390625 104.853515625 203.76171875 c 0,41,42
 115.123046875 232.997070312 115.123046875 232.997070312 133.024414062 283.446289062 c 128,-1,43
 150.920898438 333.880859375 150.920898438 333.880859375 168.819335938 385.251953125 c 0,44,45
 271.953125 673.475585938 271.953125 673.475585938 292.451171875 731.684570312 c 0,46,47
 294.955078125 740.668945312 294.955078125 740.668945312 298.643554688 747.0078125 c 0,48,49
 306.78515625 761 306.78515625 761 323.318359375 761 c 128,-1,50
 339.8515625 761 339.8515625 761 349.22265625 745.181640625 c 0,51,52
 354.081054688 736.981445312 354.081054688 736.981445312 356.6953125 727.833007812 c 0,53,54
 376.16015625 673.833984375 376.16015625 673.833984375 396.057617188 617.4375 c 128,-1,55
 415.954101562 561.043945312 415.954101562 561.043945312 435.575195312 506.6171875 c 1,56,57
 507.092773438 292.805664062 507.092773438 292.805664062 587.705078125 97.4765625 c 0,58,59
 591.224609375 88.212890625 591.224609375 88.212890625 596.9375 85.490234375 c 0,60,61
 608.072265625 80.181640625 608.072265625 80.181640625 620.072265625 77.4619140625 c 128,-1,62
 632.073242188 74.7412109375 632.073242188 74.7412109375 643.170898438 70.7060546875 c 128,-1,63
 654.26953125 66.6708984375 654.26953125 66.6708984375 660.263671875 53.5927734375 c 0,64,65
 664.5 44.3505859375 664.5 44.3505859375 664.5 31.2255859375 c 128,-1,66
 664.5 18.1005859375 664.5 18.1005859375 656.700195312 8.1923828125 c 0,67,68
 651.578125 1.2333984375 651.578125 1.2333984375 642.31640625 -2.8837890625 c 128,-1,69
 633.0546875 -7 633.0546875 -7 622.5 -7 c 2,70,-1
 613.5 -7 l 2,71,72
 593.569335938 -7 593.569335938 -7 575.569335938 -4 c 0,73,74
 556.296875 -1 556.296875 -1 532.533203125 -1 c 128,-1,75
 508.76953125 -1 508.76953125 -1 480.2578125 -4 c 128,-1,76
 451.74609375 -7 451.74609375 -7 421.536132812 -7 c 0,77,78
 407.065429688 -7 407.065429688 -7 395.38671875 4.46875 c 0,79,80
 381.619140625 16.94140625 381.619140625 16.94140625 381.619140625 35.08203125 c 128,-1,81
 381.619140625 53.22265625 381.619140625 53.22265625 393.126953125 63.37890625 c 0,82,83
 400.06640625 69.501953125 400.06640625 69.501953125 411.67578125 71.7685546875 c 128,-1,84
 423.287109375 74.03515625 423.287109375 74.03515625 436.15625 74.8447265625 c 128,-1,85
 449.025390625 75.654296875 449.025390625 75.654296875 456.977539062 77.7060546875 c 1,86,87
 453.61328125 92.3623046875 453.61328125 92.3623046875 437.387695312 138.1171875 c 128,-1,88
 421.162109375 183.873046875 421.162109375 183.873046875 410.361328125 214.392578125 c 128,-1,89
 399.560546875 244.912109375 399.560546875 244.912109375 386.76171875 278.44921875 c 0,90,91
 382.62109375 287.854492188 382.62109375 287.854492188 380.859375 292.413085938 c 128,-1,92
 379.098632812 296.970703125 379.098632812 296.970703125 378.53125 298.282226562 c 0,93,94
 371.629882812 302 371.629882812 302 346.58984375 302 c 2,0,-1
161.380859375 67.498046875 m 1,95,-1
 161.313476562 67.578125 l 1,96,-1
 161.380859375 67.498046875 l 1,95,-1
292.283203125 395.514648438 m 128,-1,98
 314.580078125 395.899414062 314.580078125 395.899414062 352.663085938 395.979492188 c 1,99,100
 339.248046875 441.493164062 339.248046875 441.493164062 333.326171875 461.544921875 c 0,101,102
 325.62890625 487.61328125 325.62890625 487.61328125 308.592773438 547.362304688 c 1,103,104
 300.174804688 524.234375 300.174804688 524.234375 291.674804688 498.400390625 c 0,105,106
 273.700195312 443.759765625 273.700195312 443.759765625 256.866210938 395.033203125 c 1,107,97
 269.985351562 395.12890625 269.985351562 395.12890625 292.283203125 395.514648438 c 128,-1,98
EndSplineSet
Substitution2: "'c2sc' Versalien in Kapit+AOQA-lchen in Lateinisch Nachschlagetabelle 0 Subtabelle" uni1D00
EndChar

StartChar: B
Encoding: 66 66 51
Width: 603
Flags: W
LayerCount: 2
Fore
SplineSet
395.678710938 502.78515625 m 128,-1,1
 405.991210938 524.505859375 405.991210938 524.505859375 405.991210938 556.836914062 c 0,2,3
 405.991210938 608.396484375 405.991210938 608.396484375 377 634.698242188 c 128,-1,4
 348.009765625 661 348.009765625 661 300.353515625 661 c 2,5,-1
 288.616210938 661 l 2,6,7
 279.788085938 661 279.788085938 661 270.044921875 660.61328125 c 0,8,9
 250.450195312 659.8359375 250.450195312 659.8359375 240.265625 651.3515625 c 0,10,11
 236.635742188 648.328125 236.635742188 648.328125 236.635742188 609.81640625 c 2,12,13
 236.635742188 517.057617188 236.635742188 517.057617188 236.635742188 441.583984375 c 1,14,15
 239.580078125 441 239.580078125 441 244.181640625 441 c 2,16,-1
 272.686523438 441 l 2,17,18
 334.844726562 441 334.844726562 441 368.389648438 467.586914062 c 0,19,0
 385.3515625 481.030273438 385.3515625 481.030273438 395.678710938 502.78515625 c 128,-1,1
414.096679688 121.649414062 m 128,-1,21
 446.234375 158.297851562 446.234375 158.297851562 446.234375 218.709960938 c 0,22,23
 446.234375 256.28125 446.234375 256.28125 429.793945312 285.953125 c 0,24,25
 416.987304688 310.821289062 416.987304688 310.821289062 398.553710938 324.375 c 0,26,27
 361.39453125 351.6953125 361.39453125 351.6953125 308.290039062 355.2109375 c 0,28,29
 281.264648438 357 281.264648438 357 254.2421875 357 c 2,30,-1
 239.989257812 357 l 2,31,32
 237.325195312 357 237.325195312 357 234.958984375 356.234375 c 1,33,34
 234.958984375 268.58203125 234.958984375 268.58203125 234.958984375 164.676757812 c 2,35,36
 234.958984375 144.309570312 234.958984375 144.309570312 237.690429688 122.999023438 c 0,37,38
 239.586914062 108.202148438 239.586914062 108.202148438 249.885742188 97.376953125 c 0,39,40
 263.205078125 85 263.205078125 85 312.090820312 85 c 0,41,20
 381.958984375 85 381.958984375 85 414.096679688 121.649414062 c 128,-1,21
235.104492188 358.754882812 m 1,42,-1
 235.104492188 358.754882812 l 1,42,-1
42.4130859375 724.29296875 m 0,43,44
 55.85546875 741.5 55.85546875 741.5 97.78125 741.5 c 1,45,46
 116.765625 715.75 116.765625 715.75 137.705078125 740 c 1,47,48
 175.224609375 740 175.224609375 740 213.37109375 744.5 c 128,-1,49
 251.517578125 749 251.517578125 749 290.44140625 749 c 128,-1,50
 329.364257812 749 329.364257812 749 370.07421875 738.861328125 c 0,51,52
 410.786132812 729.374023438 410.786132812 729.374023438 446.58203125 707.579101562 c 0,53,54
 481.583984375 685.784179688 481.583984375 685.784179688 502.91796875 647.758789062 c 128,-1,55
 524.25 609.732421875 524.25 609.732421875 524.25 555.5703125 c 0,56,57
 524.25 491.88671875 524.25 491.88671875 492.025390625 450.002929688 c 0,58,59
 477.543945312 431.180664062 477.543945312 431.180664062 458.0859375 417.197265625 c 1,60,61
 505.087890625 392.665039062 505.087890625 392.665039062 534.274414062 348.102539062 c 0,62,63
 567 298.135742188 567 298.135742188 567 226.162109375 c 0,64,65
 567 167.233398438 567 167.233398438 549.284179688 123.55078125 c 128,-1,66
 531.569335938 79.8671875 531.569335938 79.8671875 502.2109375 51.6083984375 c 0,67,68
 472.619140625 23.349609375 472.619140625 23.349609375 430.372070312 9.8046875 c 0,69,70
 388.125 -4.6689453125 388.125 -4.6689453125 341.08203125 -5.9521484375 c 0,71,72
 333.633789062 -7 333.633789062 -7 332.547851562 -7 c 2,73,74
 332.547851562 -32 332.547851562 -32 75.75 -7 c 0,75,76
 65.880859375 -7 65.880859375 -7 52.7275390625 -3.9765625 c 128,-1,77
 39.576171875 -0.953125 39.576171875 -0.953125 32.3994140625 13.0693359375 c 0,78,79
 27 22.9267578125 27 22.9267578125 27 36.3623046875 c 0,80,81
 27 53.837890625 27 53.837890625 38.849609375 63.986328125 c 0,82,83
 45.072265625 69.3154296875 45.072265625 69.3154296875 55.8076171875 71.8232421875 c 128,-1,84
 66.54296875 74.3310546875 66.54296875 74.3310546875 79.890625 76.9560546875 c 128,-1,85
 93.2392578125 79.58203125 93.2392578125 79.58203125 104.421875 85.154296875 c 0,86,87
 106.353515625 86.1171875 106.353515625 86.1171875 107.162109375 87.19921875 c 128,-1,88
 107.927734375 88.2255859375 107.927734375 88.2255859375 108.555664062 92.9228515625 c 0,89,90
 109.993164062 114.713867188 109.993164062 114.713867188 110.498046875 175.717773438 c 128,-1,91
 111.001953125 236.720703125 111.001953125 236.720703125 112.126953125 293.696289062 c 0,92,93
 114 388.583007812 114 388.583007812 114 525.944335938 c 2,94,95
 114 561.880859375 114 561.880859375 114 624.981445312 c 2,96,97
 114 638.486328125 114 638.486328125 112.180664062 644.53125 c 128,-1,98
 110.360351562 650.575195312 110.360351562 650.575195312 108.291015625 652.508789062 c 128,-1,99
 106.220703125 654.443359375 106.220703125 654.443359375 98.919921875 656.192382812 c 128,-1,100
 91.619140625 657.94140625 91.619140625 657.94140625 79.865234375 660.53515625 c 0,101,102
 70.345703125 661.041015625 70.345703125 661.041015625 61.3330078125 664.495117188 c 128,-1,103
 52.3212890625 667.94921875 52.3212890625 667.94921875 46.623046875 672.208007812 c 0,104,105
 33.75 681.974609375 33.75 681.974609375 33.75 697.954101562 c 128,-1,106
 33.75 713.932617188 33.75 713.932617188 42.4130859375 724.29296875 c 0,43,44
EndSplineSet
Substitution2: "'c2sc' Versalien in Kapit+AOQA-lchen in Lateinisch Nachschlagetabelle 0 Subtabelle" uni0299
EndChar

StartChar: C
Encoding: 67 67 52
Width: 633
Flags: W
LayerCount: 2
Fore
SplineSet
536.119140625 759.173828125 m 0,0,1
 548.73828125 776 548.73828125 776 567.75 776 c 0,2,3
 579.963867188 776 579.963867188 776 587.36328125 763.020507812 c 128,-1,4
 594.75 750.059570312 594.75 750.059570312 594.75 716 c 0,5,6
 594.75 700.77734375 594.75 700.77734375 593.625 685.27734375 c 128,-1,7
 592.5 669.77734375 592.5 669.77734375 592.5 651.15234375 c 0,8,9
 592.5 605.026367188 592.5 605.026367188 589.341796875 550.288085938 c 1,10,11
 586.54296875 533.491210938 586.54296875 533.491210938 581.240234375 525.244140625 c 0,12,13
 573.369140625 513 573.369140625 513 561.75 513 c 0,14,15
 556.110351562 513 556.110351562 513 553.443359375 514 c 128,-1,16
 550.775390625 515 550.775390625 515 550.5 515 c 0,17,18
 533.546875 515 533.546875 515 525.7109375 539.815429688 c 0,19,20
 522.12109375 551.18359375 522.12109375 551.18359375 519.607421875 564.611328125 c 0,21,22
 516.927734375 578.0390625 516.927734375 578.0390625 514.561523438 589.420898438 c 128,-1,23
 512.196289062 600.802734375 512.196289062 600.802734375 509.415039062 607.146484375 c 0,24,25
 485.658203125 637.426757812 485.658203125 637.426757812 450.763671875 654.212890625 c 128,-1,26
 415.869140625 671 415.869140625 671 377.475585938 671 c 0,27,28
 323.782226562 671 323.782226562 671 286.736328125 648.36328125 c 0,29,30
 214.830078125 604.423828125 214.830078125 604.423828125 190.615234375 495.91796875 c 0,31,32
 178.751953125 442.759765625 178.751953125 442.759765625 178.751953125 382.1953125 c 128,-1,33
 178.751953125 321.629882812 178.751953125 321.629882812 190.5703125 263.41796875 c 0,34,35
 214.850585938 143.825195312 214.850585938 143.825195312 291.896484375 91.1494140625 c 0,36,37
 330.143554688 65 330.143554688 65 386.622070312 65 c 0,38,39
 423.524414062 65 423.524414062 65 464.228515625 85.560546875 c 0,40,41
 503.848632812 105.573242188 503.848632812 105.573242188 525.765625 139.04296875 c 0,42,43
 528.877929688 144.97265625 528.877929688 144.97265625 539.181640625 169.502929688 c 128,-1,44
 549.484375 194.034179688 549.484375 194.034179688 554.108398438 203.283203125 c 0,45,46
 564.466796875 224 564.466796875 224 578.76953125 224 c 128,-1,47
 593.072265625 224 593.072265625 224 601.94921875 214.53125 c 0,48,49
 612.75 203.010742188 612.75 203.010742188 612.75 180 c 0,50,51
 612.75 170.299804688 612.75 170.299804688 610.736328125 150.42578125 c 0,52,53
 606.74609375 111.061523438 606.74609375 111.061523438 597.698242188 71.2490234375 c 0,54,55
 592.223632812 47.1640625 592.223632812 47.1640625 584.646484375 38.25 c 0,56,57
 557.53125 6.349609375 557.53125 6.349609375 492.869140625 -11.4404296875 c 0,58,59
 464.721679688 -18.7314453125 464.721679688 -18.7314453125 434.888671875 -22.37109375 c 128,-1,60
 405.1484375 -26 405.1484375 -26 381.6328125 -26 c 0,61,62
 302.223632812 -26 302.223632812 -26 237.921875 9.7333984375 c 0,63,64
 173.620117188 43.150390625 173.620117188 43.150390625 129.752929688 99.46484375 c 0,65,66
 89.3857421875 155.779296875 89.3857421875 155.779296875 67.5673828125 229.4765625 c 128,-1,67
 45.75 303.174804688 45.75 303.174804688 45.75 387.549804688 c 128,-1,68
 45.75 471.924804688 45.75 471.924804688 68.5732421875 540.822265625 c 128,-1,69
 91.396484375 609.719726562 91.396484375 609.719726562 131.40234375 658.091796875 c 0,70,71
 175.047851562 706.462890625 175.047851562 706.462890625 236.645507812 730.884765625 c 0,72,73
 298.2421875 757 298.2421875 757 370.82421875 757 c 0,74,75
 433.259765625 757 433.259765625 757 491.450195312 740.255859375 c 0,76,77
 498.870117188 738.024414062 498.870117188 738.024414062 506.381835938 735.013671875 c 128,-1,78
 513.893554688 732.001953125 513.893554688 732.001953125 519.635742188 729.987304688 c 0,79,80
 520.59375 731.858398438 520.59375 731.858398438 521.458984375 733.876953125 c 0,81,82
 527.208007812 747.29296875 527.208007812 747.29296875 536.119140625 759.173828125 c 0,0,1
EndSplineSet
Substitution2: "'c2sc' Versalien in Kapit+AOQA-lchen in Lateinisch Nachschlagetabelle 0 Subtabelle" uni1D04
EndChar

StartChar: D
Encoding: 68 68 53
Width: 714
Flags: W
LayerCount: 2
Fore
SplineSet
236.530273438 652.765625 m 0,0,1
 233.62109375 641.16015625 233.62109375 641.16015625 233.62109375 623.73828125 c 2,2,3
 234.029296875 558.215820312 234.029296875 558.215820312 234.438476562 524.149414062 c 2,4,5
 234.438476562 441.028320312 234.438476562 441.028320312 233.62109375 358.959960938 c 128,-1,6
 232.8046875 276.891601562 232.8046875 276.891601562 232.8046875 194.03125 c 0,7,8
 232.8046875 119.40625 232.8046875 119.40625 248.392578125 95.720703125 c 0,9,10
 255.3125 85.20703125 255.3125 85.20703125 266.673828125 80.603515625 c 128,-1,11
 278.03515625 76 278.03515625 76 296.526367188 76 c 0,12,13
 351.03125 76 351.03125 76 396.12890625 98.482421875 c 128,-1,14
 441.215820312 120.958984375 441.215820312 120.958984375 473.1484375 160.39453125 c 128,-1,15
 505.081054688 199.830078125 505.081054688 199.830078125 522.938476562 253.436523438 c 128,-1,16
 540.795898438 307.043945312 540.795898438 307.043945312 540.795898438 368.311523438 c 0,17,18
 540.795898438 475.22265625 540.795898438 475.22265625 493.3359375 549.625 c 128,-1,19
 445.875 624.02734375 445.875 624.02734375 353.901367188 654.1015625 c 0,20,21
 336.467773438 659.46484375 336.467773438 659.46484375 319.453125 663.732421875 c 128,-1,22
 302.4375 668 302.4375 668 285.90625 668 c 2,23,-1
 263.876953125 668 l 2,24,25
 263.033203125 667.883789062 263.033203125 667.883789062 261.649414062 667.787109375 c 0,26,27
 251.112304688 667.053710938 251.112304688 667.053710938 241.229492188 659.245117188 c 0,28,29
 238.208984375 656.859375 238.208984375 656.859375 236.530273438 652.765625 c 0,0,1
104.479492188 648.357421875 m 0,30,31
 95.3271484375 651 95.3271484375 651 86.25 651 c 2,32,33
 73.875 625.5 73.875 625.5 61.5 650 c 2,34,35
 48.154296875 650 48.154296875 650 37.05078125 661.46875 c 0,36,37
 27.115234375 672.06640625 27.115234375 672.06640625 27.115234375 689.520507812 c 0,38,39
 27.115234375 693.497070312 27.115234375 693.497070312 27.6962890625 697.627929688 c 0,40,41
 29.8857421875 713.1953125 29.8857421875 713.1953125 36.994140625 722.673828125 c 0,42,43
 41.46875 728.639648438 41.46875 728.639648438 48.48828125 731.758789062 c 0,44,45
 64.4296875 738.844726562 64.4296875 738.844726562 95.2744140625 742.389648438 c 0,46,47
 126.729492188 745.935546875 126.729492188 745.935546875 154.369140625 747.955078125 c 128,-1,48
 182.018554688 749.975585938 182.018554688 749.975585938 207.625976562 750.986328125 c 0,49,50
 258.611328125 753 258.611328125 753 282.638671875 753 c 0,51,52
 369.165039062 753 369.165039062 753 441.6015625 724.668945312 c 0,53,54
 514.037109375 698.208984375 514.037109375 698.208984375 566.805664062 647.854492188 c 0,55,56
 616.072265625 597.500976562 616.072265625 597.500976562 642.536132812 524.6015625 c 128,-1,57
 669 451.702148438 669 451.702148438 669 362.174804688 c 128,-1,58
 669 272.6484375 669 272.6484375 639.188476562 203.918945312 c 128,-1,59
 609.375976562 135.189453125 609.375976562 135.189453125 559.693359375 88.4873046875 c 0,60,61
 507.107421875 41.78515625 507.107421875 41.78515625 440.15234375 17.7431640625 c 0,62,63
 373.198242188 -8 373.198242188 -8 303.87890625 -8 c 0,64,65
 282.356445312 -8 282.356445312 -8 269.76953125 -6.97265625 c 2,66,67
 245.10546875 20.0400390625 245.10546875 20.0400390625 220.443359375 -2.947265625 c 2,68,69
 208.444335938 -2 208.444335938 -2 181.330078125 -2 c 128,-1,70
 154.215820312 -2 154.215820312 -2 121.946289062 -4.5 c 0,71,72
 92.1015625 -7 92.1015625 -7 59.25 -7 c 0,73,74
 46.4921875 -7 46.4921875 -7 39.185546875 5.177734375 c 0,75,76
 33.75 13.5859375 33.75 13.5859375 33.75 25.431640625 c 0,77,78
 33.75 44.318359375 33.75 44.318359375 43.369140625 56.22265625 c 0,79,80
 55.6025390625 71.3603515625 55.6025390625 71.3603515625 76.9140625 74.4638671875 c 0,81,82
 78.345703125 74.671875 78.345703125 74.671875 89.029296875 77.4765625 c 128,-1,83
 99.7109375 80.2802734375 99.7109375 80.2802734375 104.455078125 85.259765625 c 0,84,85
 109.411132812 98.0830078125 109.411132812 98.0830078125 110.640625 139.168945312 c 0,86,87
 111.014648438 150.422851562 111.014648438 150.422851562 111.759765625 172.260742188 c 0,88,89
 113.25 215.907226562 113.25 215.907226562 113.25 316.869140625 c 2,90,91
 113.25 420.618164062 113.25 420.618164062 113.25 538.694335938 c 2,92,93
 113.25 577.625976562 113.25 577.625976562 111.791992188 599.279296875 c 0,94,95
 109.255859375 636.948242188 109.255859375 636.948242188 107.810546875 645.115234375 c 0,96,97
 106.752929688 647.701171875 106.752929688 647.701171875 104.479492188 648.357421875 c 0,30,31
EndSplineSet
Substitution2: "'c2sc' Versalien in Kapit+AOQA-lchen in Lateinisch Nachschlagetabelle 0 Subtabelle" uni1D05
EndChar

StartChar: E
Encoding: 69 69 54
Width: 590
Flags: W
LayerCount: 2
Fore
SplineSet
513.385742188 709.921875 m 0,0,1
 516.75 687.49609375 516.75 687.49609375 516.75 667 c 2,2,3
 516.375 615.5 516.375 615.5 516 614 c 1,4,5
 516 559.288085938 516 559.288085938 503.926757812 542.34375 c 0,6,7
 497.719726562 533.631835938 497.719726562 533.631835938 487.930664062 532 c 1,8,-1
 486.75 532 l 2,9,10
 465.274414062 532 465.274414062 532 454.568359375 558.705078125 c 0,11,12
 449.028320312 572.51953125 449.028320312 572.51953125 444.00390625 590.065429688 c 128,-1,13
 438.98046875 607.610351562 438.98046875 607.610351562 432.783203125 623.376953125 c 0,14,15
 428.950195312 633.12890625 428.950195312 633.12890625 423.618164062 636.713867188 c 0,16,17
 412.631835938 644.100585938 412.631835938 644.100585938 376.6484375 648.108398438 c 0,18,19
 350.685546875 651 350.685546875 651 304.684570312 651 c 2,20,-1
 267.098632812 651 l 2,21,22
 254.313476562 651 254.313476562 651 249.499023438 646.893554688 c 0,23,24
 239.198242188 638.108398438 239.198242188 638.108398438 237.8359375 610.205078125 c 0,25,26
 237.030273438 593.705078125 237.030273438 593.705078125 237.030273438 579.0078125 c 2,27,28
 237.447265625 507.434570312 237.447265625 507.434570312 237.865234375 453.921875 c 1,29,30
 237.865234375 441.434570312 237.865234375 441.434570312 237.865234375 432.32421875 c 2,31,32
 237.865234375 429.732421875 237.865234375 429.732421875 237.979492188 427.317382812 c 0,33,34
 242.903320312 426.25 242.903320312 426.25 251.85546875 426.25 c 2,35,-1
 272.110351562 427 l 2,36,37
 295.306640625 427 295.306640625 427 318.181640625 427.48046875 c 0,38,39
 339.821289062 427.934570312 339.821289062 427.934570312 363.147460938 432.680664062 c 0,40,41
 379.786132812 435.893554688 379.786132812 435.893554688 385.596679688 446.862304688 c 0,42,43
 393.633789062 462.036132812 393.633789062 462.036132812 394.94140625 484.7421875 c 2,44,-1
 395.227539062 489.711914062 l 1,45,46
 400.169921875 501.545898438 400.169921875 501.545898438 404.232421875 508.841796875 c 0,47,48
 413.786132812 526 413.786132812 526 431.641601562 526 c 0,49,50
 442.39453125 526 442.39453125 526 450.249023438 519.305664062 c 0,51,52
 461.084960938 510.071289062 461.084960938 510.071289062 462.451171875 492.895507812 c 0,53,54
 463.380859375 481.204101562 463.380859375 481.204101562 463.380859375 463.806640625 c 128,-1,55
 463.380859375 446.409179688 463.380859375 446.409179688 462.545898438 424.909179688 c 128,-1,56
 461.7109375 403.409179688 461.7109375 403.409179688 461.7109375 382.506835938 c 128,-1,57
 461.7109375 361.604492188 461.7109375 361.604492188 462.545898438 340.606445312 c 2,58,-1
 463.938476562 280.5 l 2,59,60
 463.938476562 256.571289062 463.938476562 256.571289062 454.982421875 242.78515625 c 128,-1,61
 446.02734375 229 446.02734375 229 429.971679688 229 c 0,62,63
 402.756835938 229 402.756835938 229 394.077148438 278.8828125 c 0,64,65
 391.91796875 291.287109375 391.91796875 291.287109375 390.479492188 301.196289062 c 128,-1,66
 389.040039062 311.104492188 389.040039062 311.104492188 386.701171875 316.705078125 c 1,67,-1
 386.151367188 319.83203125 l 2,68,69
 384.706054688 328.05078125 384.706054688 328.05078125 378.479492188 332.435546875 c 0,70,71
 359.840820312 345.5625 359.840820312 345.5625 320.737304688 345.5625 c 2,72,-1
 278.791992188 345 l 2,73,74
 275.4296875 345 275.4296875 345 261.282226562 344.122070312 c 0,75,76
 246.424804688 343.200195312 246.424804688 343.200195312 239.401367188 342.302734375 c 1,77,78
 238.143554688 333.564453125 238.143554688 333.564453125 238.143554688 325.315429688 c 2,79,80
 238.421875 318.083007812 238.421875 318.083007812 238.700195312 305.732421875 c 1,81,82
 238.700195312 241.59375 238.700195312 241.59375 238.700195312 157.794921875 c 2,83,84
 238.700195312 129.2265625 238.700195312 129.2265625 240.797851562 116.844726562 c 128,-1,85
 242.89453125 104.462890625 242.89453125 104.462890625 246.416992188 96.05859375 c 0,86,87
 247.938476562 92.431640625 247.938476562 92.431640625 251.936523438 90.4736328125 c 128,-1,88
 255.935546875 88.5146484375 255.935546875 88.5146484375 270.321289062 86.5966796875 c 128,-1,89
 284.70703125 84.6787109375 284.70703125 84.6787109375 303.40234375 83.7900390625 c 0,90,91
 341.061523438 82 341.061523438 82 364.822265625 82 c 2,92,-1
 391.549804688 82 l 2,93,94
 412.2109375 82 412.2109375 82 431.865234375 84.353515625 c 0,95,96
 463.220703125 88.107421875 463.220703125 88.107421875 471.443359375 94.138671875 c 0,97,98
 479.233398438 100.209960938 479.233398438 100.209960938 488.076171875 117.040039062 c 0,99,100
 496.16796875 133.87109375 496.16796875 133.87109375 504.405273438 153.340820312 c 128,-1,101
 512.641601562 172.811523438 512.641601562 172.811523438 519.204101562 186.626953125 c 128,-1,102
 525.766601562 200.443359375 525.766601562 200.443359375 532.864257812 207.721679688 c 128,-1,103
 539.9609375 215 539.9609375 215 548.6953125 215 c 128,-1,104
 557.4296875 215 557.4296875 215 563.885742188 210.696289062 c 0,105,106
 578.75 200.786132812 578.75 200.786132812 578.75 175.888671875 c 0,107,108
 578.75 166.673828125 578.75 166.673828125 576.125976562 157.8515625 c 0,109,110
 573.530273438 140.133789062 573.530273438 140.133789062 571.821289062 135.057617188 c 0,111,112
 565.380859375 104.0390625 565.380859375 104.0390625 552.350585938 22.1357421875 c 1,113,114
 551.357421875 45.146484375 551.357421875 45.146484375 550.362304688 18.158203125 c 2,115,116
 538.783203125 -5 538.783203125 -5 515.25 -5 c 2,117,-1
 115.5 -5 l 2,118,119
 105.633789062 -5 105.633789062 -5 94.3837890625 -6 c 128,-1,120
 83.1337890625 -7 83.1337890625 -7 72.654296875 -7 c 128,-1,121
 62.17578125 -7 62.17578125 -7 52.732421875 -5.9052734375 c 0,122,123
 38.2724609375 -4.228515625 38.2724609375 -4.228515625 31.23828125 11.87890625 c 0,124,125
 27 20.9443359375 27 20.9443359375 27 33.474609375 c 0,126,127
 27 57.3623046875 27 57.3623046875 48.78125 67.126953125 c 0,128,129
 59.2666015625 71.828125 59.2666015625 71.828125 72.7216796875 75.5517578125 c 0,130,131
 103.1484375 83.9716796875 103.1484375 83.9716796875 108.953125 94.1640625 c 0,132,133
 112.499023438 101.251953125 112.499023438 101.251953125 114.749023438 123.671875 c 128,-1,134
 117 146.091796875 117 146.091796875 117 176.470703125 c 128,-1,135
 117 206.849609375 117 206.849609375 116.25 238.606445312 c 128,-1,136
 115.5 270.36328125 115.5 270.36328125 115.5 321.370117188 c 128,-1,137
 115.5 372.375976562 115.5 372.375976562 114.75 448.96484375 c 128,-1,138
 114 525.553710938 114 525.553710938 114 603.219726562 c 2,139,140
 114 595.3984375 114 595.3984375 114 620.032226562 c 1,141,142
 114 607.17578125 114 607.17578125 114 628.438476562 c 1,143,144
 113.650390625 614.2109375 113.650390625 614.2109375 113.301757812 635.09765625 c 2,145,146
 112.586914062 647.107421875 112.586914062 647.107421875 109.3828125 649.102539062 c 0,147,148
 99.27734375 655.395507812 99.27734375 655.395507812 85.7099609375 657.9296875 c 128,-1,149
 72.1435546875 660.463867188 72.1435546875 660.463867188 60.98046875 662.635742188 c 128,-1,150
 49.818359375 664.80859375 49.818359375 664.80859375 42.947265625 671.706054688 c 0,151,152
 32.25 682.447265625 32.25 682.447265625 32.25 700.356445312 c 0,153,154
 32.25 710.33984375 32.25 710.33984375 36.5166015625 719.559570312 c 0,155,156
 44.013671875 736.907226562 44.013671875 736.907226562 70.404296875 741.305664062 c 0,157,158
 78.3193359375 742.625 78.3193359375 742.625 86.8828125 742.625 c 2,159,160
 97.81640625 717.3125 97.81640625 717.3125 108.75 742 c 2,161,162
 137.255859375 742 137.255859375 742 166.075195312 740.5 c 128,-1,163
 194.893554688 739 194.893554688 739 239.236328125 739 c 128,-1,164
 283.578125 739 283.578125 739 340.375 740.5 c 128,-1,165
 397.172851562 742 397.172851562 742 456.69921875 742 c 2,166,-1
 465.88671875 742 l 2,167,168
 490.823242188 742 490.823242188 742 500.689453125 733.564453125 c 0,169,170
 510.866210938 724.864257812 510.866210938 724.864257812 513.385742188 709.921875 c 0,0,1
EndSplineSet
Substitution2: "'c2sc' Versalien in Kapit+AOQA-lchen in Lateinisch Nachschlagetabelle 0 Subtabelle" uni1D07
EndChar

